<svg xmlns="http://www.w3.org/2000/svg" xmlns:xlink="http://www.w3.org/1999/xlink" width="500" zoomAndPan="magnify" viewBox="0 0 375 374.999991" height="500" preserveAspectRatio="xMidYMid meet" version="1.0"><defs><g/><clipPath id="8b04be6076"><rect x="0" width="43" y="0" height="11"/></clipPath><clipPath id="5355da7250"><rect x="0" width="41" y="0" height="11"/></clipPath></defs><g fill="#000000" fill-opacity="1"><g transform="translate(101.725757, 162.667182)"><g><path d="M 3.53125 0.171875 C 3.46875 0.171875 3.425781 0.15625 3.40625 0.125 C 3.375 0.09375 3.359375 0.0507812 3.359375 0 L 3.359375 -29.1875 C 3.359375 -29.332031 3.414062 -29.40625 3.53125 -29.40625 L 21.34375 -29.40625 C 21.445312 -29.40625 21.5 -29.332031 21.5 -29.1875 L 21.5 -28.21875 C 21.5 -28.164062 21.472656 -28.113281 21.421875 -28.0625 C 21.390625 -28.0625 21.363281 -28.0625 21.34375 -28.0625 C 21.3125 -28.0625 21.28125 -28.0625 21.25 -28.0625 C 20.632812 -28.363281 19.945312 -28.578125 19.1875 -28.703125 C 18.4375 -28.828125 17.5 -28.910156 16.375 -28.953125 C 15.257812 -28.992188 13.847656 -29.015625 12.140625 -29.015625 L 4.53125 -29.015625 L 4.53125 -14.78125 L 15.203125 -14.78125 C 15.316406 -14.78125 15.375 -14.722656 15.375 -14.609375 C 15.375 -14.472656 15.316406 -14.40625 15.203125 -14.40625 L 4.53125 -14.40625 L 4.53125 -0.171875 L 12.140625 -0.171875 C 13.847656 -0.171875 15.257812 -0.191406 16.375 -0.234375 C 17.5 -0.273438 18.4375 -0.363281 19.1875 -0.5 C 19.945312 -0.644531 20.632812 -0.859375 21.25 -1.140625 C 21.3125 -1.160156 21.367188 -1.160156 21.421875 -1.140625 C 21.472656 -1.109375 21.5 -1.050781 21.5 -0.96875 L 21.5 0 C 21.5 0.113281 21.445312 0.171875 21.34375 0.171875 L 4.375 0.171875 C 4.375 0.171875 4.234375 0.171875 3.953125 0.171875 C 3.671875 0.171875 3.53125 0.171875 3.53125 0.171875 Z M 3.53125 0.171875 "/></g></g></g><g fill="#000000" fill-opacity="1"><g transform="translate(120.877752, 162.667182)"><g><path d="M 24.234375 -29.3125 C 26.109375 -26.738281 27.046875 -23.867188 27.046875 -20.703125 C 27.046875 -18.742188 26.679688 -16.894531 25.953125 -15.15625 C 25.222656 -13.425781 24.207031 -11.890625 22.90625 -10.546875 C 21.601562 -9.203125 20.09375 -8.125 18.375 -7.3125 C 16.65625 -6.5 14.800781 -6.050781 12.8125 -5.96875 L 12.765625 -5.96875 C 12.734375 -5.96875 12.625 -5.96875 12.4375 -5.96875 C 12.4375 -5.96875 12.421875 -5.953125 12.390625 -5.921875 L 3.3125 -5.921875 C 3.207031 -5.921875 3.15625 -5.988281 3.15625 -6.125 L 3.15625 -29.1875 C 3.15625 -29.332031 3.207031 -29.40625 3.3125 -29.40625 L 4.15625 -29.40625 C 4.269531 -29.40625 4.328125 -29.332031 4.328125 -29.1875 L 4.328125 -6.296875 L 12.015625 -6.296875 C 12.066406 -6.296875 12.191406 -6.296875 12.390625 -6.296875 C 12.609375 -6.296875 12.734375 -6.296875 12.765625 -6.296875 C 14.585938 -6.410156 16.28125 -6.859375 17.84375 -7.640625 C 19.414062 -8.421875 20.796875 -9.46875 21.984375 -10.78125 C 23.171875 -12.101562 24.09375 -13.609375 24.75 -15.296875 C 25.414062 -16.992188 25.75 -18.796875 25.75 -20.703125 C 25.75 -23.785156 24.894531 -26.585938 23.1875 -29.109375 C 23.15625 -29.160156 23.15625 -29.21875 23.1875 -29.28125 C 23.207031 -29.363281 23.265625 -29.40625 23.359375 -29.40625 L 24.109375 -29.40625 C 24.160156 -29.40625 24.203125 -29.375 24.234375 -29.3125 Z M 12.8125 -4.15625 C 16.476562 -3.957031 19.65625 -2.613281 22.34375 -0.125 C 22.394531 -0.0703125 22.410156 -0.00390625 22.390625 0.078125 C 22.359375 0.140625 22.300781 0.171875 22.21875 0.171875 L 21.59375 0.171875 C 21.53125 0.171875 21.488281 0.15625 21.46875 0.125 C 19.050781 -2.28125 16.148438 -3.582031 12.765625 -3.78125 C 12.734375 -3.78125 12.609375 -3.796875 12.390625 -3.828125 C 12.191406 -3.828125 12.066406 -3.828125 12.015625 -3.828125 L 4.328125 -3.828125 L 4.328125 0 C 4.328125 0.113281 4.269531 0.171875 4.15625 0.171875 L 3.3125 0.171875 C 3.207031 0.171875 3.15625 0.113281 3.15625 0 L 3.15625 -3.984375 C 3.15625 -4.097656 3.207031 -4.15625 3.3125 -4.15625 L 12.390625 -4.15625 C 12.421875 -4.15625 12.4375 -4.15625 12.4375 -4.15625 C 12.625 -4.15625 12.734375 -4.15625 12.765625 -4.15625 Z M 12.8125 -4.15625 "/></g></g></g><g fill="#000000" fill-opacity="1"><g transform="translate(146.539752, 162.667182)"><g><path d="M 4.375 0.171875 C 4.3125 0.171875 4.125 0.171875 3.8125 0.171875 C 3.507812 0.171875 3.359375 0.171875 3.359375 0.171875 L 3.359375 -29.40625 C 3.359375 -29.40625 3.367188 -29.40625 3.390625 -29.40625 C 3.421875 -29.40625 3.46875 -29.40625 3.53125 -29.40625 C 3.582031 -29.40625 3.757812 -29.40625 4.0625 -29.40625 C 4.375 -29.40625 4.53125 -29.40625 4.53125 -29.40625 L 4.53125 0.171875 C 4.53125 0.171875 4.515625 0.171875 4.484375 0.171875 C 4.460938 0.171875 4.425781 0.171875 4.375 0.171875 Z M 4.375 0.171875 "/></g></g></g><g fill="#000000" fill-opacity="1"><g transform="translate(151.327754, 162.667182)"><g><path d="M 23.609375 -29.40625 C 23.742188 -29.40625 23.8125 -29.332031 23.8125 -29.1875 L 23.8125 -28.21875 C 23.8125 -28.164062 23.785156 -28.113281 23.734375 -28.0625 C 23.703125 -28.0625 23.660156 -28.0625 23.609375 -28.0625 C 23.609375 -28.0625 23.59375 -28.0625 23.5625 -28.0625 C 22.945312 -28.363281 22.257812 -28.578125 21.5 -28.703125 C 20.75 -28.828125 19.8125 -28.910156 18.6875 -28.953125 C 17.570312 -28.992188 16.160156 -29.015625 14.453125 -29.015625 L 12.6875 -29.015625 L 12.6875 0 C 12.6875 0.113281 12.628906 0.171875 12.515625 0.171875 L 11.671875 0.171875 C 11.566406 0.171875 11.515625 0.113281 11.515625 0 L 11.515625 -29.015625 L 9.75 -29.015625 C 8.007812 -29.015625 6.578125 -28.992188 5.453125 -28.953125 C 4.335938 -28.910156 3.40625 -28.828125 2.65625 -28.703125 C 1.914062 -28.578125 1.238281 -28.363281 0.625 -28.0625 C 0.601562 -28.0625 0.578125 -28.0625 0.546875 -28.0625 C 0.515625 -28.0625 0.488281 -28.0625 0.46875 -28.0625 C 0.40625 -28.113281 0.375 -28.164062 0.375 -28.21875 L 0.375 -29.1875 C 0.375 -29.332031 0.429688 -29.40625 0.546875 -29.40625 Z M 23.609375 -29.40625 "/></g></g></g><g fill="#000000" fill-opacity="1"><g transform="translate(172.369753, 162.667182)"><g><path d="M 3.53125 0.171875 C 3.46875 0.171875 3.425781 0.15625 3.40625 0.125 C 3.375 0.09375 3.359375 0.0507812 3.359375 0 L 3.359375 -29.1875 C 3.359375 -29.332031 3.414062 -29.40625 3.53125 -29.40625 L 21.34375 -29.40625 C 21.445312 -29.40625 21.5 -29.332031 21.5 -29.1875 L 21.5 -28.21875 C 21.5 -28.164062 21.472656 -28.113281 21.421875 -28.0625 C 21.390625 -28.0625 21.363281 -28.0625 21.34375 -28.0625 C 21.3125 -28.0625 21.28125 -28.0625 21.25 -28.0625 C 20.632812 -28.363281 19.945312 -28.578125 19.1875 -28.703125 C 18.4375 -28.828125 17.5 -28.910156 16.375 -28.953125 C 15.257812 -28.992188 13.847656 -29.015625 12.140625 -29.015625 L 4.53125 -29.015625 L 4.53125 -14.78125 L 15.203125 -14.78125 C 15.316406 -14.78125 15.375 -14.722656 15.375 -14.609375 C 15.375 -14.472656 15.316406 -14.40625 15.203125 -14.40625 L 4.53125 -14.40625 L 4.53125 0 C 4.53125 0.113281 4.476562 0.171875 4.375 0.171875 Z M 3.53125 0.171875 "/></g></g></g><g fill="#000000" fill-opacity="1"><g transform="translate(191.10175, 162.667182)"><g><path d="M 21.421875 -1.140625 C 21.472656 -1.109375 21.5 -1.050781 21.5 -0.96875 L 21.5 0 C 21.5 0.113281 21.445312 0.171875 21.34375 0.171875 L 4.375 0.171875 C 4.375 0.171875 4.234375 0.171875 3.953125 0.171875 C 3.671875 0.171875 3.53125 0.171875 3.53125 0.171875 C 3.414062 0.171875 3.359375 0.113281 3.359375 0 L 3.359375 -29.1875 C 3.359375 -29.332031 3.414062 -29.40625 3.53125 -29.40625 L 4.375 -29.40625 C 4.476562 -29.40625 4.53125 -29.332031 4.53125 -29.1875 L 4.53125 -0.171875 L 12.140625 -0.171875 C 13.847656 -0.171875 15.257812 -0.191406 16.375 -0.234375 C 17.5 -0.273438 18.4375 -0.363281 19.1875 -0.5 C 19.945312 -0.644531 20.632812 -0.859375 21.25 -1.140625 C 21.3125 -1.160156 21.367188 -1.160156 21.421875 -1.140625 Z M 21.421875 -1.140625 "/></g></g></g><g fill="#000000" fill-opacity="1"><g transform="translate(209.833747, 162.667182)"><g><path d="M 17.515625 -21 C 19.503906 -20.914062 21.363281 -20.457031 23.09375 -19.625 C 24.832031 -18.800781 26.34375 -17.710938 27.625 -16.359375 C 28.914062 -15.003906 29.925781 -13.4375 30.65625 -11.65625 C 31.382812 -9.875 31.75 -7.988281 31.75 -6 C 31.78125 -3.875 31.359375 -1.847656 30.484375 0.078125 C 30.460938 0.140625 30.410156 0.171875 30.328125 0.171875 L 29.484375 0.171875 C 29.453125 0.171875 29.425781 0.171875 29.40625 0.171875 C 29.375 0.171875 29.359375 0.15625 29.359375 0.125 C 29.359375 0.125 29.34375 0.125 29.3125 0.125 C 29.3125 0.09375 29.3125 0.078125 29.3125 0.078125 C 29.3125 0.109375 29.3125 0.109375 29.3125 0.078125 C 29.3125 0.078125 29.300781 0.0664062 29.28125 0.046875 C 29.28125 0.015625 29.28125 0 29.28125 0 C 29.28125 -0.03125 29.289062 -0.0546875 29.3125 -0.078125 C 30.09375 -1.953125 30.472656 -3.925781 30.453125 -6 C 30.453125 -7.9375 30.117188 -9.765625 29.453125 -11.484375 C 28.796875 -13.203125 27.878906 -14.734375 26.703125 -16.078125 C 25.535156 -17.429688 24.160156 -18.503906 22.578125 -19.296875 C 20.992188 -20.097656 19.289062 -20.550781 17.46875 -20.65625 L 16 -20.65625 C 15.863281 -20.632812 15.753906 -20.625 15.671875 -20.625 L 15.328125 -20.578125 C 15.109375 -20.546875 14.882812 -20.519531 14.65625 -20.5 C 14.457031 -20.46875 14.25 -20.425781 14.03125 -20.375 C 14 -20.375 13.984375 -20.375 13.984375 -20.375 C 13.535156 -20.257812 13.113281 -20.144531 12.71875 -20.03125 C 12.53125 -19.976562 12.320312 -19.894531 12.09375 -19.78125 C 11.976562 -19.75 11.863281 -19.710938 11.75 -19.671875 C 11.644531 -19.628906 11.550781 -19.582031 11.46875 -19.53125 C 11.238281 -19.414062 11.039062 -19.316406 10.875 -19.234375 C 10.59375 -19.117188 10.285156 -18.953125 9.953125 -18.734375 L 9.703125 -18.609375 C 9.648438 -18.546875 9.550781 -18.472656 9.40625 -18.390625 C 9.351562 -18.335938 9.269531 -18.285156 9.15625 -18.234375 C 8.507812 -17.753906 7.90625 -17.234375 7.34375 -16.671875 C 7.257812 -16.585938 7.191406 -16.53125 7.140625 -16.5 C 6.941406 -16.28125 6.757812 -16.070312 6.59375 -15.875 C 6.507812 -15.757812 6.441406 -15.660156 6.390625 -15.578125 C 6.390625 -15.578125 6.375 -15.578125 6.34375 -15.578125 C 6.289062 -15.492188 6.25 -15.425781 6.21875 -15.375 L 6.171875 -15.375 C 6.171875 -15.34375 6.15625 -15.3125 6.125 -15.28125 L 5.96875 -15.078125 C 5.71875 -14.742188 5.460938 -14.378906 5.203125 -13.984375 C 5.148438 -13.867188 5.09375 -13.765625 5.03125 -13.671875 C 4.976562 -13.578125 4.925781 -13.484375 4.875 -13.390625 C 4.707031 -13.085938 4.550781 -12.78125 4.40625 -12.46875 C 4.269531 -12.132812 4.128906 -11.800781 3.984375 -11.46875 L 3.90625 -11.21875 C 3.875 -11.132812 3.847656 -11.019531 3.828125 -10.875 C 3.765625 -10.757812 3.734375 -10.675781 3.734375 -10.625 C 3.710938 -10.59375 3.703125 -10.550781 3.703125 -10.5 L 3.65625 -10.421875 C 3.625 -10.304688 3.59375 -10.195312 3.5625 -10.09375 C 3.539062 -10 3.515625 -9.910156 3.484375 -9.828125 C 3.429688 -9.628906 3.390625 -9.421875 3.359375 -9.203125 C 3.328125 -9.171875 3.300781 -9.070312 3.28125 -8.90625 L 3.28125 -8.859375 C 3.21875 -8.472656 3.160156 -8.125 3.109375 -7.8125 C 3.078125 -7.582031 3.0625 -7.34375 3.0625 -7.09375 C 3.039062 -6.707031 3.03125 -6.34375 3.03125 -6 C 3.03125 -5.632812 3.039062 -5.257812 3.0625 -4.875 C 3.0625 -4.644531 3.078125 -4.421875 3.109375 -4.203125 C 3.140625 -4.117188 3.15625 -4.035156 3.15625 -3.953125 C 3.175781 -3.691406 3.21875 -3.425781 3.28125 -3.15625 L 3.28125 -3.109375 C 3.300781 -2.960938 3.328125 -2.863281 3.359375 -2.8125 C 3.410156 -2.5625 3.453125 -2.351562 3.484375 -2.1875 C 3.515625 -2.101562 3.539062 -2.007812 3.5625 -1.90625 C 3.59375 -1.8125 3.625 -1.707031 3.65625 -1.59375 L 3.703125 -1.515625 C 3.703125 -1.429688 3.710938 -1.390625 3.734375 -1.390625 C 3.734375 -1.304688 3.765625 -1.207031 3.828125 -1.09375 C 3.847656 -1.007812 3.875 -0.910156 3.90625 -0.796875 L 3.984375 -0.5 C 4.046875 -0.363281 4.117188 -0.222656 4.203125 -0.078125 C 4.203125 -0.0546875 4.203125 -0.03125 4.203125 0 C 4.203125 0.03125 4.203125 0.046875 4.203125 0.046875 C 4.203125 0.046875 4.1875 0.0546875 4.15625 0.078125 C 4.15625 0.109375 4.15625 0.109375 4.15625 0.078125 C 4.1875 0.078125 4.1875 0.09375 4.15625 0.125 C 4.15625 0.125 4.140625 0.125 4.109375 0.125 C 4.085938 0.15625 4.085938 0.171875 4.109375 0.171875 C 4.085938 0.171875 4.078125 0.171875 4.078125 0.171875 C 4.078125 0.171875 4.0625 0.171875 4.03125 0.171875 L 3.15625 0.171875 C 3.09375 0.171875 3.035156 0.140625 2.984375 0.078125 C 2.140625 -1.847656 1.71875 -3.875 1.71875 -6 C 1.71875 -7.988281 2.082031 -9.863281 2.8125 -11.625 C 3.539062 -13.394531 4.546875 -14.960938 5.828125 -16.328125 C 7.117188 -17.703125 8.632812 -18.796875 10.375 -19.609375 C 12.113281 -20.421875 13.972656 -20.882812 15.953125 -21 L 16.765625 -21.046875 Z M 15.203125 -22.890625 C 13.046875 -23.085938 11.035156 -23.726562 9.171875 -24.8125 C 7.316406 -25.90625 5.769531 -27.320312 4.53125 -29.0625 C 4.476562 -29.113281 4.46875 -29.1875 4.5 -29.28125 C 4.519531 -29.332031 4.570312 -29.359375 4.65625 -29.359375 L 5.375 -29.359375 C 5.425781 -29.359375 5.484375 -29.34375 5.546875 -29.3125 C 5.546875 -29.3125 5.546875 -29.300781 5.546875 -29.28125 C 5.578125 -29.28125 5.59375 -29.28125 5.59375 -29.28125 C 5.644531 -29.1875 5.695312 -29.097656 5.75 -29.015625 C 5.8125 -28.929688 5.882812 -28.835938 5.96875 -28.734375 L 6.171875 -28.46875 C 6.203125 -28.414062 6.226562 -28.367188 6.25 -28.328125 C 6.28125 -28.285156 6.328125 -28.25 6.390625 -28.21875 C 6.410156 -28.132812 6.476562 -28.050781 6.59375 -27.96875 C 6.644531 -27.882812 6.703125 -27.800781 6.765625 -27.71875 C 6.785156 -27.71875 6.800781 -27.703125 6.8125 -27.671875 C 6.832031 -27.648438 6.84375 -27.640625 6.84375 -27.640625 C 6.925781 -27.523438 7.023438 -27.425781 7.140625 -27.34375 C 7.191406 -27.289062 7.257812 -27.21875 7.34375 -27.125 C 7.40625 -27.039062 7.46875 -26.972656 7.53125 -26.921875 C 7.601562 -26.867188 7.679688 -26.800781 7.765625 -26.71875 C 7.828125 -26.65625 7.882812 -26.597656 7.9375 -26.546875 C 8.21875 -26.296875 8.46875 -26.082031 8.6875 -25.90625 C 8.800781 -25.820312 8.898438 -25.753906 8.984375 -25.703125 C 9.234375 -25.535156 9.5 -25.351562 9.78125 -25.15625 C 9.84375 -25.125 9.894531 -25.09375 9.9375 -25.0625 C 9.976562 -25.039062 10.023438 -25.015625 10.078125 -24.984375 C 10.128906 -24.960938 10.210938 -24.910156 10.328125 -24.828125 C 10.441406 -24.765625 10.539062 -24.722656 10.625 -24.703125 L 10.625 -24.65625 C 10.820312 -24.570312 11.003906 -24.488281 11.171875 -24.40625 C 11.203125 -24.40625 11.21875 -24.390625 11.21875 -24.359375 C 11.300781 -24.328125 11.390625 -24.289062 11.484375 -24.25 C 11.585938 -24.207031 11.679688 -24.175781 11.765625 -24.15625 C 12.015625 -24.039062 12.238281 -23.953125 12.4375 -23.890625 C 12.65625 -23.804688 12.847656 -23.738281 13.015625 -23.6875 C 13.265625 -23.601562 13.488281 -23.535156 13.6875 -23.484375 C 13.800781 -23.484375 13.898438 -23.46875 13.984375 -23.4375 C 14.148438 -23.40625 14.375 -23.363281 14.65625 -23.3125 C 14.851562 -23.28125 15.078125 -23.25 15.328125 -23.21875 L 15.40625 -23.21875 C 15.5 -23.195312 15.570312 -23.1875 15.625 -23.1875 L 15.75 -23.1875 C 15.832031 -23.1875 15.914062 -23.171875 16 -23.140625 L 17.515625 -23.140625 C 19.472656 -23.285156 21.316406 -23.832031 23.046875 -24.78125 C 24.785156 -25.726562 26.242188 -27.003906 27.421875 -28.609375 C 27.585938 -28.828125 27.742188 -29.050781 27.890625 -29.28125 C 27.921875 -29.300781 27.945312 -29.3125 27.96875 -29.3125 C 27.96875 -29.34375 27.96875 -29.359375 27.96875 -29.359375 C 28 -29.359375 28.03125 -29.359375 28.0625 -29.359375 C 28.082031 -29.359375 28.082031 -29.359375 28.0625 -29.359375 L 28.8125 -29.359375 C 28.894531 -29.359375 28.953125 -29.332031 28.984375 -29.28125 C 29.003906 -29.1875 29.003906 -29.113281 28.984375 -29.0625 C 27.640625 -27.21875 25.960938 -25.738281 23.953125 -24.625 C 21.953125 -23.519531 19.804688 -22.914062 17.515625 -22.8125 L 16.765625 -22.765625 L 15.953125 -22.8125 C 15.929688 -22.8125 15.890625 -22.8125 15.828125 -22.8125 C 15.773438 -22.8125 15.722656 -22.820312 15.671875 -22.84375 C 15.609375 -22.84375 15.519531 -22.84375 15.40625 -22.84375 L 15.28125 -22.84375 C 15.28125 -22.84375 15.273438 -22.847656 15.265625 -22.859375 C 15.253906 -22.878906 15.234375 -22.890625 15.203125 -22.890625 Z M 15.203125 -22.890625 "/></g></g></g><g fill="#000000" fill-opacity="1"><g transform="translate(240.199738, 162.667182)"><g><path d="M 31.921875 -29.359375 C 32.035156 -29.328125 32.078125 -29.253906 32.046875 -29.140625 L 23.609375 -1.140625 L 23.140625 0.296875 C 23.140625 0.328125 23.125 0.351562 23.09375 0.375 C 23.09375 0.375 23.082031 0.375 23.0625 0.375 C 23.0625 0.40625 23.046875 0.421875 23.015625 0.421875 C 23.015625 0.421875 23 0.421875 22.96875 0.421875 C 22.96875 0.421875 22.957031 0.421875 22.9375 0.421875 C 22.90625 0.390625 22.890625 0.375 22.890625 0.375 C 22.859375 0.375 22.859375 0.375 22.890625 0.375 C 22.859375 0.351562 22.832031 0.328125 22.8125 0.296875 L 16.5 -20.578125 L 10.625 -1.140625 L 10.421875 -0.46875 L 10.203125 0.296875 C 10.171875 0.328125 10.15625 0.351562 10.15625 0.375 C 10.15625 0.375 10.144531 0.375 10.125 0.375 C 10.125 0.375 10.109375 0.390625 10.078125 0.421875 C 10.078125 0.421875 10.0625 0.421875 10.03125 0.421875 C 10.007812 0.421875 10 0.421875 10 0.421875 C 9.96875 0.390625 9.953125 0.375 9.953125 0.375 C 9.921875 0.375 9.90625 0.375 9.90625 0.375 C 9.9375 0.375 9.9375 0.375 9.90625 0.375 C 9.882812 0.351562 9.875 0.328125 9.875 0.296875 C 9.84375 0.234375 9.84375 0.234375 9.875 0.296875 L 0.96875 -29.140625 C 0.96875 -29.171875 0.96875 -29.203125 0.96875 -29.234375 C 0.96875 -29.265625 0.984375 -29.289062 1.015625 -29.3125 C 0.984375 -29.289062 0.984375 -29.289062 1.015625 -29.3125 C 1.035156 -29.34375 1.046875 -29.359375 1.046875 -29.359375 C 1.046875 -29.359375 1.0625 -29.359375 1.09375 -29.359375 C 1.09375 -29.359375 1.109375 -29.359375 1.140625 -29.359375 C 1.140625 -29.390625 1.140625 -29.40625 1.140625 -29.40625 L 2.015625 -29.40625 C 2.097656 -29.40625 2.15625 -29.363281 2.1875 -29.28125 L 10.453125 -1.8125 L 16.34375 -21.203125 L 13.90625 -29.140625 C 13.90625 -29.171875 13.90625 -29.203125 13.90625 -29.234375 C 13.925781 -29.265625 13.9375 -29.265625 13.9375 -29.234375 C 13.9375 -29.265625 13.9375 -29.289062 13.9375 -29.3125 C 13.914062 -29.289062 13.914062 -29.289062 13.9375 -29.3125 C 13.96875 -29.34375 13.984375 -29.359375 13.984375 -29.359375 C 14.015625 -29.359375 14.03125 -29.359375 14.03125 -29.359375 C 14.050781 -29.359375 14.0625 -29.359375 14.0625 -29.359375 C 14.0625 -29.390625 14.078125 -29.40625 14.109375 -29.40625 L 14.953125 -29.40625 C 15.035156 -29.40625 15.09375 -29.363281 15.125 -29.28125 L 23.4375 -1.8125 L 31.703125 -29.28125 C 31.734375 -29.382812 31.804688 -29.410156 31.921875 -29.359375 Z M 31.921875 -29.359375 "/></g></g></g><g fill="#000000" fill-opacity="1"><g transform="translate(115.7531, 221.167178)"><g><path d="M 3.359375 -6.71875 C 3.390625 -6.664062 3.40625 -6.609375 3.40625 -6.546875 C 3.289062 -5.878906 3.316406 -5.164062 3.484375 -4.40625 C 3.648438 -3.65625 4.054688 -2.925781 4.703125 -2.21875 C 5.347656 -1.519531 6.367188 -0.9375 7.765625 -0.46875 C 8.859375 -0.101562 9.976562 0.078125 11.125 0.078125 C 11.238281 0.078125 11.378906 0.078125 11.546875 0.078125 C 11.742188 0.0546875 11.882812 0.046875 11.96875 0.046875 C 13.34375 -0.0664062 14.570312 -0.410156 15.65625 -0.984375 C 16.75 -1.554688 17.609375 -2.285156 18.234375 -3.171875 C 18.867188 -4.054688 19.1875 -5.03125 19.1875 -6.09375 C 19.1875 -7.070312 18.90625 -7.988281 18.34375 -8.84375 C 17.789062 -9.695312 17.007812 -10.414062 16 -11 L 5.71875 -16.96875 C 4.5625 -17.632812 3.660156 -18.457031 3.015625 -19.4375 C 2.378906 -20.425781 2.0625 -21.476562 2.0625 -22.59375 C 2.0625 -23.820312 2.414062 -24.941406 3.125 -25.953125 C 3.84375 -26.960938 4.820312 -27.796875 6.0625 -28.453125 C 7.3125 -29.109375 8.722656 -29.492188 10.296875 -29.609375 C 10.378906 -29.609375 10.503906 -29.609375 10.671875 -29.609375 L 10.75 -29.609375 C 10.914062 -29.609375 11.039062 -29.609375 11.125 -29.609375 C 12.332031 -29.609375 13.492188 -29.425781 14.609375 -29.0625 C 16.316406 -28.53125 17.675781 -27.675781 18.6875 -26.5 C 19.695312 -25.320312 20.203125 -24.019531 20.203125 -22.59375 C 20.203125 -22.476562 20.144531 -22.421875 20.03125 -22.421875 L 19.03125 -22.421875 C 18.96875 -22.421875 18.925781 -22.4375 18.90625 -22.46875 C 18.875 -22.519531 18.859375 -22.578125 18.859375 -22.640625 C 18.972656 -23.304688 18.941406 -24.015625 18.765625 -24.765625 C 18.597656 -25.523438 18.191406 -26.253906 17.546875 -26.953125 C 16.910156 -27.660156 15.890625 -28.253906 14.484375 -28.734375 C 13.398438 -29.097656 12.28125 -29.28125 11.125 -29.28125 C 11.039062 -29.28125 10.898438 -29.28125 10.703125 -29.28125 C 10.535156 -29.25 10.398438 -29.234375 10.296875 -29.234375 C 8.921875 -29.117188 7.6875 -28.773438 6.59375 -28.203125 C 5.5 -27.628906 4.632812 -26.898438 4 -26.015625 C 3.375 -25.140625 3.0625 -24.164062 3.0625 -23.09375 C 3.0625 -22.113281 3.34375 -21.195312 3.90625 -20.34375 C 4.46875 -19.488281 5.253906 -18.769531 6.265625 -18.1875 L 16.546875 -12.21875 C 17.691406 -11.570312 18.585938 -10.742188 19.234375 -9.734375 C 19.878906 -8.734375 20.203125 -7.6875 20.203125 -6.59375 C 20.203125 -5.363281 19.84375 -4.242188 19.125 -3.234375 C 18.414062 -2.222656 17.4375 -1.394531 16.1875 -0.75 C 14.945312 -0.113281 13.539062 0.257812 11.96875 0.375 C 11.914062 0.40625 11.851562 0.421875 11.78125 0.421875 C 11.707031 0.421875 11.644531 0.421875 11.59375 0.421875 L 11.515625 0.421875 C 11.367188 0.421875 11.238281 0.421875 11.125 0.421875 C 9.945312 0.421875 8.785156 0.238281 7.640625 -0.125 C 5.929688 -0.65625 4.570312 -1.507812 3.5625 -2.6875 C 2.5625 -3.863281 2.0625 -5.164062 2.0625 -6.59375 C 2.0625 -6.707031 2.113281 -6.765625 2.21875 -6.765625 L 3.234375 -6.765625 C 3.285156 -6.765625 3.328125 -6.75 3.359375 -6.71875 Z M 3.359375 -6.71875 "/></g></g></g><g fill="#000000" fill-opacity="1"><g transform="translate(134.863095, 221.167178)"><g><path d="M 23.609375 -29.40625 C 23.742188 -29.40625 23.8125 -29.332031 23.8125 -29.1875 L 23.8125 -28.21875 C 23.8125 -28.164062 23.785156 -28.113281 23.734375 -28.0625 C 23.703125 -28.0625 23.660156 -28.0625 23.609375 -28.0625 C 23.609375 -28.0625 23.59375 -28.0625 23.5625 -28.0625 C 22.945312 -28.363281 22.257812 -28.578125 21.5 -28.703125 C 20.75 -28.828125 19.8125 -28.910156 18.6875 -28.953125 C 17.570312 -28.992188 16.160156 -29.015625 14.453125 -29.015625 L 12.6875 -29.015625 L 12.6875 0 C 12.6875 0.113281 12.628906 0.171875 12.515625 0.171875 L 11.671875 0.171875 C 11.566406 0.171875 11.515625 0.113281 11.515625 0 L 11.515625 -29.015625 L 9.75 -29.015625 C 8.007812 -29.015625 6.578125 -28.992188 5.453125 -28.953125 C 4.335938 -28.910156 3.40625 -28.828125 2.65625 -28.703125 C 1.914062 -28.578125 1.238281 -28.363281 0.625 -28.0625 C 0.601562 -28.0625 0.578125 -28.0625 0.546875 -28.0625 C 0.515625 -28.0625 0.488281 -28.0625 0.46875 -28.0625 C 0.40625 -28.113281 0.375 -28.164062 0.375 -28.21875 L 0.375 -29.1875 C 0.375 -29.332031 0.429688 -29.40625 0.546875 -29.40625 Z M 23.609375 -29.40625 "/></g></g></g><g fill="#000000" fill-opacity="1"><g transform="translate(155.905094, 221.167178)"><g><path d="M 21 -29.40625 C 21.113281 -29.40625 21.171875 -29.332031 21.171875 -29.1875 L 21.171875 -8.90625 C 21.171875 -8.738281 21.171875 -8.582031 21.171875 -8.4375 C 21.140625 -8.300781 21.125 -8.148438 21.125 -7.984375 C 21.09375 -7.835938 21.066406 -7.695312 21.046875 -7.5625 C 20.816406 -6.070312 20.28125 -4.742188 19.4375 -3.578125 C 18.601562 -2.421875 17.539062 -1.503906 16.25 -0.828125 C 14.96875 -0.160156 13.582031 0.171875 12.09375 0.171875 C 10.414062 0.171875 8.890625 -0.234375 7.515625 -1.046875 C 6.140625 -1.859375 5.046875 -2.953125 4.234375 -4.328125 C 3.429688 -5.703125 3.03125 -7.226562 3.03125 -8.90625 L 3.03125 -29.1875 C 3.03125 -29.332031 3.082031 -29.40625 3.1875 -29.40625 L 4.03125 -29.40625 C 4.144531 -29.40625 4.203125 -29.332031 4.203125 -29.1875 L 4.203125 -8.90625 C 4.203125 -7.363281 4.570312 -5.960938 5.3125 -4.703125 C 6.050781 -3.441406 7.050781 -2.441406 8.3125 -1.703125 C 9.570312 -0.960938 10.972656 -0.59375 12.515625 -0.59375 C 13.859375 -0.59375 15.117188 -0.898438 16.296875 -1.515625 C 17.472656 -2.128906 18.445312 -2.960938 19.21875 -4.015625 C 19.988281 -5.066406 20.484375 -6.273438 20.703125 -7.640625 C 20.734375 -7.753906 20.75 -7.867188 20.75 -7.984375 C 20.75 -8.003906 20.75 -8.015625 20.75 -8.015625 C 20.78125 -8.160156 20.796875 -8.300781 20.796875 -8.4375 C 20.796875 -8.601562 20.796875 -8.757812 20.796875 -8.90625 L 20.796875 -29.1875 C 20.796875 -29.332031 20.863281 -29.40625 21 -29.40625 Z M 21 -29.40625 "/></g></g></g><g fill="#000000" fill-opacity="1"><g transform="translate(176.947093, 221.167178)"><g><path d="M 24.234375 -29.3125 C 26.109375 -26.738281 27.046875 -23.867188 27.046875 -20.703125 C 27.046875 -18.742188 26.679688 -16.894531 25.953125 -15.15625 C 25.222656 -13.425781 24.207031 -11.890625 22.90625 -10.546875 C 21.601562 -9.203125 20.09375 -8.125 18.375 -7.3125 C 16.65625 -6.5 14.800781 -6.050781 12.8125 -5.96875 L 12.765625 -5.96875 C 12.734375 -5.96875 12.625 -5.96875 12.4375 -5.96875 C 12.4375 -5.96875 12.421875 -5.953125 12.390625 -5.921875 L 3.3125 -5.921875 C 3.207031 -5.921875 3.15625 -5.988281 3.15625 -6.125 L 3.15625 -29.1875 C 3.15625 -29.332031 3.207031 -29.40625 3.3125 -29.40625 L 4.15625 -29.40625 C 4.269531 -29.40625 4.328125 -29.332031 4.328125 -29.1875 L 4.328125 -6.296875 L 12.015625 -6.296875 C 12.066406 -6.296875 12.191406 -6.296875 12.390625 -6.296875 C 12.609375 -6.296875 12.734375 -6.296875 12.765625 -6.296875 C 14.585938 -6.410156 16.28125 -6.859375 17.84375 -7.640625 C 19.414062 -8.421875 20.796875 -9.46875 21.984375 -10.78125 C 23.171875 -12.101562 24.09375 -13.609375 24.75 -15.296875 C 25.414062 -16.992188 25.75 -18.796875 25.75 -20.703125 C 25.75 -23.785156 24.894531 -26.585938 23.1875 -29.109375 C 23.15625 -29.160156 23.15625 -29.21875 23.1875 -29.28125 C 23.207031 -29.363281 23.265625 -29.40625 23.359375 -29.40625 L 24.109375 -29.40625 C 24.160156 -29.40625 24.203125 -29.375 24.234375 -29.3125 Z M 12.8125 -4.15625 C 16.476562 -3.957031 19.65625 -2.613281 22.34375 -0.125 C 22.394531 -0.0703125 22.410156 -0.00390625 22.390625 0.078125 C 22.359375 0.140625 22.300781 0.171875 22.21875 0.171875 L 21.59375 0.171875 C 21.53125 0.171875 21.488281 0.15625 21.46875 0.125 C 19.050781 -2.28125 16.148438 -3.582031 12.765625 -3.78125 C 12.734375 -3.78125 12.609375 -3.796875 12.390625 -3.828125 C 12.191406 -3.828125 12.066406 -3.828125 12.015625 -3.828125 L 4.328125 -3.828125 L 4.328125 0 C 4.328125 0.113281 4.269531 0.171875 4.15625 0.171875 L 3.3125 0.171875 C 3.207031 0.171875 3.15625 0.113281 3.15625 0 L 3.15625 -3.984375 C 3.15625 -4.097656 3.207031 -4.15625 3.3125 -4.15625 L 12.390625 -4.15625 C 12.421875 -4.15625 12.4375 -4.15625 12.4375 -4.15625 C 12.625 -4.15625 12.734375 -4.15625 12.765625 -4.15625 Z M 12.8125 -4.15625 "/></g></g></g><g fill="#000000" fill-opacity="1"><g transform="translate(202.609093, 221.167178)"><g><path d="M 4.375 0.171875 C 4.3125 0.171875 4.125 0.171875 3.8125 0.171875 C 3.507812 0.171875 3.359375 0.171875 3.359375 0.171875 L 3.359375 -29.40625 C 3.359375 -29.40625 3.367188 -29.40625 3.390625 -29.40625 C 3.421875 -29.40625 3.46875 -29.40625 3.53125 -29.40625 C 3.582031 -29.40625 3.757812 -29.40625 4.0625 -29.40625 C 4.375 -29.40625 4.53125 -29.40625 4.53125 -29.40625 L 4.53125 0.171875 C 4.53125 0.171875 4.515625 0.171875 4.484375 0.171875 C 4.460938 0.171875 4.425781 0.171875 4.375 0.171875 Z M 4.375 0.171875 "/></g></g></g><g fill="#000000" fill-opacity="1"><g transform="translate(207.397095, 221.167178)"><g><path d="M 17.515625 -21 C 19.503906 -20.914062 21.363281 -20.457031 23.09375 -19.625 C 24.832031 -18.800781 26.34375 -17.710938 27.625 -16.359375 C 28.914062 -15.003906 29.925781 -13.4375 30.65625 -11.65625 C 31.382812 -9.875 31.75 -7.988281 31.75 -6 C 31.78125 -3.875 31.359375 -1.847656 30.484375 0.078125 C 30.460938 0.140625 30.410156 0.171875 30.328125 0.171875 L 29.484375 0.171875 C 29.453125 0.171875 29.425781 0.171875 29.40625 0.171875 C 29.375 0.171875 29.359375 0.15625 29.359375 0.125 C 29.359375 0.125 29.34375 0.125 29.3125 0.125 C 29.3125 0.09375 29.3125 0.078125 29.3125 0.078125 C 29.3125 0.109375 29.3125 0.109375 29.3125 0.078125 C 29.3125 0.078125 29.300781 0.0664062 29.28125 0.046875 C 29.28125 0.015625 29.28125 0 29.28125 0 C 29.28125 -0.03125 29.289062 -0.0546875 29.3125 -0.078125 C 30.09375 -1.953125 30.472656 -3.925781 30.453125 -6 C 30.453125 -7.9375 30.117188 -9.765625 29.453125 -11.484375 C 28.796875 -13.203125 27.878906 -14.734375 26.703125 -16.078125 C 25.535156 -17.429688 24.160156 -18.503906 22.578125 -19.296875 C 20.992188 -20.097656 19.289062 -20.550781 17.46875 -20.65625 L 16 -20.65625 C 15.863281 -20.632812 15.753906 -20.625 15.671875 -20.625 L 15.328125 -20.578125 C 15.109375 -20.546875 14.882812 -20.519531 14.65625 -20.5 C 14.457031 -20.46875 14.25 -20.425781 14.03125 -20.375 C 14 -20.375 13.984375 -20.375 13.984375 -20.375 C 13.535156 -20.257812 13.113281 -20.144531 12.71875 -20.03125 C 12.53125 -19.976562 12.320312 -19.894531 12.09375 -19.78125 C 11.976562 -19.75 11.863281 -19.710938 11.75 -19.671875 C 11.644531 -19.628906 11.550781 -19.582031 11.46875 -19.53125 C 11.238281 -19.414062 11.039062 -19.316406 10.875 -19.234375 C 10.59375 -19.117188 10.285156 -18.953125 9.953125 -18.734375 L 9.703125 -18.609375 C 9.648438 -18.546875 9.550781 -18.472656 9.40625 -18.390625 C 9.351562 -18.335938 9.269531 -18.285156 9.15625 -18.234375 C 8.507812 -17.753906 7.90625 -17.234375 7.34375 -16.671875 C 7.257812 -16.585938 7.191406 -16.53125 7.140625 -16.5 C 6.941406 -16.28125 6.757812 -16.070312 6.59375 -15.875 C 6.507812 -15.757812 6.441406 -15.660156 6.390625 -15.578125 C 6.390625 -15.578125 6.375 -15.578125 6.34375 -15.578125 C 6.289062 -15.492188 6.25 -15.425781 6.21875 -15.375 L 6.171875 -15.375 C 6.171875 -15.34375 6.15625 -15.3125 6.125 -15.28125 L 5.96875 -15.078125 C 5.71875 -14.742188 5.460938 -14.378906 5.203125 -13.984375 C 5.148438 -13.867188 5.09375 -13.765625 5.03125 -13.671875 C 4.976562 -13.578125 4.925781 -13.484375 4.875 -13.390625 C 4.707031 -13.085938 4.550781 -12.78125 4.40625 -12.46875 C 4.269531 -12.132812 4.128906 -11.800781 3.984375 -11.46875 L 3.90625 -11.21875 C 3.875 -11.132812 3.847656 -11.019531 3.828125 -10.875 C 3.765625 -10.757812 3.734375 -10.675781 3.734375 -10.625 C 3.710938 -10.59375 3.703125 -10.550781 3.703125 -10.5 L 3.65625 -10.421875 C 3.625 -10.304688 3.59375 -10.195312 3.5625 -10.09375 C 3.539062 -10 3.515625 -9.910156 3.484375 -9.828125 C 3.429688 -9.628906 3.390625 -9.421875 3.359375 -9.203125 C 3.328125 -9.171875 3.300781 -9.070312 3.28125 -8.90625 L 3.28125 -8.859375 C 3.21875 -8.472656 3.160156 -8.125 3.109375 -7.8125 C 3.078125 -7.582031 3.0625 -7.34375 3.0625 -7.09375 C 3.039062 -6.707031 3.03125 -6.34375 3.03125 -6 C 3.03125 -5.632812 3.039062 -5.257812 3.0625 -4.875 C 3.0625 -4.644531 3.078125 -4.421875 3.109375 -4.203125 C 3.140625 -4.117188 3.15625 -4.035156 3.15625 -3.953125 C 3.175781 -3.691406 3.21875 -3.425781 3.28125 -3.15625 L 3.28125 -3.109375 C 3.300781 -2.960938 3.328125 -2.863281 3.359375 -2.8125 C 3.410156 -2.5625 3.453125 -2.351562 3.484375 -2.1875 C 3.515625 -2.101562 3.539062 -2.007812 3.5625 -1.90625 C 3.59375 -1.8125 3.625 -1.707031 3.65625 -1.59375 L 3.703125 -1.515625 C 3.703125 -1.429688 3.710938 -1.390625 3.734375 -1.390625 C 3.734375 -1.304688 3.765625 -1.207031 3.828125 -1.09375 C 3.847656 -1.007812 3.875 -0.910156 3.90625 -0.796875 L 3.984375 -0.5 C 4.046875 -0.363281 4.117188 -0.222656 4.203125 -0.078125 C 4.203125 -0.0546875 4.203125 -0.03125 4.203125 0 C 4.203125 0.03125 4.203125 0.046875 4.203125 0.046875 C 4.203125 0.046875 4.1875 0.0546875 4.15625 0.078125 C 4.15625 0.109375 4.15625 0.109375 4.15625 0.078125 C 4.1875 0.078125 4.1875 0.09375 4.15625 0.125 C 4.15625 0.125 4.140625 0.125 4.109375 0.125 C 4.085938 0.15625 4.085938 0.171875 4.109375 0.171875 C 4.085938 0.171875 4.078125 0.171875 4.078125 0.171875 C 4.078125 0.171875 4.0625 0.171875 4.03125 0.171875 L 3.15625 0.171875 C 3.09375 0.171875 3.035156 0.140625 2.984375 0.078125 C 2.140625 -1.847656 1.71875 -3.875 1.71875 -6 C 1.71875 -7.988281 2.082031 -9.863281 2.8125 -11.625 C 3.539062 -13.394531 4.546875 -14.960938 5.828125 -16.328125 C 7.117188 -17.703125 8.632812 -18.796875 10.375 -19.609375 C 12.113281 -20.421875 13.972656 -20.882812 15.953125 -21 L 16.765625 -21.046875 Z M 15.203125 -22.890625 C 13.046875 -23.085938 11.035156 -23.726562 9.171875 -24.8125 C 7.316406 -25.90625 5.769531 -27.320312 4.53125 -29.0625 C 4.476562 -29.113281 4.46875 -29.1875 4.5 -29.28125 C 4.519531 -29.332031 4.570312 -29.359375 4.65625 -29.359375 L 5.375 -29.359375 C 5.425781 -29.359375 5.484375 -29.34375 5.546875 -29.3125 C 5.546875 -29.3125 5.546875 -29.300781 5.546875 -29.28125 C 5.578125 -29.28125 5.59375 -29.28125 5.59375 -29.28125 C 5.644531 -29.1875 5.695312 -29.097656 5.75 -29.015625 C 5.8125 -28.929688 5.882812 -28.835938 5.96875 -28.734375 L 6.171875 -28.46875 C 6.203125 -28.414062 6.226562 -28.367188 6.25 -28.328125 C 6.28125 -28.285156 6.328125 -28.25 6.390625 -28.21875 C 6.410156 -28.132812 6.476562 -28.050781 6.59375 -27.96875 C 6.644531 -27.882812 6.703125 -27.800781 6.765625 -27.71875 C 6.785156 -27.71875 6.800781 -27.703125 6.8125 -27.671875 C 6.832031 -27.648438 6.84375 -27.640625 6.84375 -27.640625 C 6.925781 -27.523438 7.023438 -27.425781 7.140625 -27.34375 C 7.191406 -27.289062 7.257812 -27.21875 7.34375 -27.125 C 7.40625 -27.039062 7.46875 -26.972656 7.53125 -26.921875 C 7.601562 -26.867188 7.679688 -26.800781 7.765625 -26.71875 C 7.828125 -26.65625 7.882812 -26.597656 7.9375 -26.546875 C 8.21875 -26.296875 8.46875 -26.082031 8.6875 -25.90625 C 8.800781 -25.820312 8.898438 -25.753906 8.984375 -25.703125 C 9.234375 -25.535156 9.5 -25.351562 9.78125 -25.15625 C 9.84375 -25.125 9.894531 -25.09375 9.9375 -25.0625 C 9.976562 -25.039062 10.023438 -25.015625 10.078125 -24.984375 C 10.128906 -24.960938 10.210938 -24.910156 10.328125 -24.828125 C 10.441406 -24.765625 10.539062 -24.722656 10.625 -24.703125 L 10.625 -24.65625 C 10.820312 -24.570312 11.003906 -24.488281 11.171875 -24.40625 C 11.203125 -24.40625 11.21875 -24.390625 11.21875 -24.359375 C 11.300781 -24.328125 11.390625 -24.289062 11.484375 -24.25 C 11.585938 -24.207031 11.679688 -24.175781 11.765625 -24.15625 C 12.015625 -24.039062 12.238281 -23.953125 12.4375 -23.890625 C 12.65625 -23.804688 12.847656 -23.738281 13.015625 -23.6875 C 13.265625 -23.601562 13.488281 -23.535156 13.6875 -23.484375 C 13.800781 -23.484375 13.898438 -23.46875 13.984375 -23.4375 C 14.148438 -23.40625 14.375 -23.363281 14.65625 -23.3125 C 14.851562 -23.28125 15.078125 -23.25 15.328125 -23.21875 L 15.40625 -23.21875 C 15.5 -23.195312 15.570312 -23.1875 15.625 -23.1875 L 15.75 -23.1875 C 15.832031 -23.1875 15.914062 -23.171875 16 -23.140625 L 17.515625 -23.140625 C 19.472656 -23.285156 21.316406 -23.832031 23.046875 -24.78125 C 24.785156 -25.726562 26.242188 -27.003906 27.421875 -28.609375 C 27.585938 -28.828125 27.742188 -29.050781 27.890625 -29.28125 C 27.921875 -29.300781 27.945312 -29.3125 27.96875 -29.3125 C 27.96875 -29.34375 27.96875 -29.359375 27.96875 -29.359375 C 28 -29.359375 28.03125 -29.359375 28.0625 -29.359375 C 28.082031 -29.359375 28.082031 -29.359375 28.0625 -29.359375 L 28.8125 -29.359375 C 28.894531 -29.359375 28.953125 -29.332031 28.984375 -29.28125 C 29.003906 -29.1875 29.003906 -29.113281 28.984375 -29.0625 C 27.640625 -27.21875 25.960938 -25.738281 23.953125 -24.625 C 21.953125 -23.519531 19.804688 -22.914062 17.515625 -22.8125 L 16.765625 -22.765625 L 15.953125 -22.8125 C 15.929688 -22.8125 15.890625 -22.8125 15.828125 -22.8125 C 15.773438 -22.8125 15.722656 -22.820312 15.671875 -22.84375 C 15.609375 -22.84375 15.519531 -22.84375 15.40625 -22.84375 L 15.28125 -22.84375 C 15.28125 -22.84375 15.273438 -22.847656 15.265625 -22.859375 C 15.253906 -22.878906 15.234375 -22.890625 15.203125 -22.890625 Z M 15.203125 -22.890625 "/></g></g></g><g fill="#000000" fill-opacity="1"><g transform="translate(237.763086, 221.167178)"><g><path d="M 3.109375 -13.3125 C 3.140625 -13.257812 3.15625 -13.203125 3.15625 -13.140625 C 3.039062 -12.472656 3.066406 -11.757812 3.234375 -11 C 3.398438 -10.25 3.804688 -9.519531 4.453125 -8.8125 C 5.097656 -8.113281 6.117188 -7.53125 7.515625 -7.0625 C 8.609375 -6.695312 9.726562 -6.515625 10.875 -6.515625 C 10.988281 -6.515625 11.128906 -6.523438 11.296875 -6.546875 C 11.492188 -6.546875 11.632812 -6.546875 11.71875 -6.546875 C 13.09375 -6.660156 14.320312 -7.003906 15.40625 -7.578125 C 16.5 -8.148438 17.359375 -8.878906 17.984375 -9.765625 C 18.617188 -10.648438 18.9375 -11.625 18.9375 -12.6875 C 18.9375 -13.664062 18.65625 -14.582031 18.09375 -15.4375 C 17.539062 -16.289062 16.757812 -17.007812 15.75 -17.59375 L 5.453125 -23.5625 C 4.304688 -24.226562 3.410156 -25.050781 2.765625 -26.03125 C 2.128906 -27.019531 1.8125 -28.070312 1.8125 -29.1875 C 1.8125 -29.21875 1.820312 -29.257812 1.84375 -29.3125 C 1.875 -29.34375 1.914062 -29.359375 1.96875 -29.359375 L 2.640625 -29.359375 C 2.753906 -29.359375 2.8125 -29.300781 2.8125 -29.1875 C 3.007812 -27.363281 4.070312 -25.894531 6 -24.78125 L 16.296875 -18.8125 C 17.441406 -18.164062 18.335938 -17.347656 18.984375 -16.359375 C 19.628906 -15.367188 19.953125 -14.3125 19.953125 -13.1875 C 19.953125 -11.976562 19.59375 -10.863281 18.875 -9.84375 C 18.164062 -8.820312 17.1875 -7.988281 15.9375 -7.34375 C 14.6875 -6.707031 13.28125 -6.332031 11.71875 -6.21875 C 11.632812 -6.1875 11.507812 -6.171875 11.34375 -6.171875 L 11.25 -6.171875 C 11.113281 -6.171875 10.988281 -6.171875 10.875 -6.171875 C 9.695312 -6.171875 8.535156 -6.351562 7.390625 -6.71875 C 5.679688 -7.25 4.320312 -8.101562 3.3125 -9.28125 C 2.3125 -10.457031 1.8125 -11.757812 1.8125 -13.1875 C 1.8125 -13.300781 1.863281 -13.359375 1.96875 -13.359375 L 2.984375 -13.359375 C 3.035156 -13.359375 3.078125 -13.34375 3.109375 -13.3125 Z M 14.828125 -3.703125 C 16.898438 -2.910156 18.367188 -1.703125 19.234375 -0.078125 C 19.265625 -0.0234375 19.265625 0.0234375 19.234375 0.078125 C 19.203125 0.140625 19.160156 0.171875 19.109375 0.171875 L 18.609375 0.171875 C 18.523438 0.171875 18.46875 0.128906 18.4375 0.046875 C 17.9375 -1.460938 16.691406 -2.597656 14.703125 -3.359375 L 14.609375 -3.40625 L 14.53125 -3.4375 C 14.445312 -3.46875 14.363281 -3.5 14.28125 -3.53125 L 14.234375 -3.53125 C 13.140625 -3.894531 12.019531 -4.0625 10.875 -4.03125 C 10.789062 -4.03125 10.648438 -4.03125 10.453125 -4.03125 C 10.285156 -4.03125 10.144531 -4.03125 10.03125 -4.03125 C 8.519531 -3.832031 7.132812 -3.351562 5.875 -2.59375 C 4.613281 -1.84375 3.75 -0.960938 3.28125 0.046875 C 3.25 0.128906 3.191406 0.171875 3.109375 0.171875 L 2.6875 0.171875 C 2.601562 0.171875 2.546875 0.140625 2.515625 0.078125 C 2.492188 0.0234375 2.492188 -0.0234375 2.515625 -0.078125 C 3.109375 -1.203125 4.085938 -2.15625 5.453125 -2.9375 C 6.828125 -3.71875 8.34375 -4.195312 10 -4.375 L 10.03125 -4.375 C 10.113281 -4.375 10.242188 -4.382812 10.421875 -4.40625 L 10.5 -4.40625 C 10.664062 -4.40625 10.789062 -4.40625 10.875 -4.40625 C 12.050781 -4.40625 13.210938 -4.222656 14.359375 -3.859375 C 14.421875 -3.859375 14.472656 -3.84375 14.515625 -3.8125 C 14.554688 -3.789062 14.601562 -3.78125 14.65625 -3.78125 C 14.707031 -3.75 14.765625 -3.722656 14.828125 -3.703125 Z M 14.828125 -3.703125 "/></g></g></g><g transform="matrix(1, 0, 0, 1, 166, 239)"><g clip-path="url(#8b04be6076)"><g fill="#222222" fill-opacity="1"><g transform="translate(0.968296, 8.243739)"><g><path d="M 1.375 0 L 0.625 0 L 0.625 -6.109375 L 1.703125 -6.109375 L 4.453125 -0.734375 L 4.453125 -6.109375 L 5.171875 -6.109375 L 5.171875 0 L 4.109375 0 L 1.375 -5.359375 Z M 1.375 0 "/></g></g></g><g fill="#222222" fill-opacity="1"><g transform="translate(6.392354, 8.243739)"><g><path d="M 4.578125 0 L 0.625 0 L 0.625 -6.109375 L 4.578125 -6.109375 L 4.578125 -5.4375 L 1.375 -5.4375 L 1.375 -3.390625 L 4.203125 -3.390625 L 4.203125 -2.734375 L 1.375 -2.734375 L 1.375 -0.65625 L 4.578125 -0.65625 Z M 4.578125 0 "/></g></g></g><g fill="#222222" fill-opacity="1"><g transform="translate(10.928409, 8.243739)"><g><path d="M 2.796875 0 L 1.96875 0 L 0.15625 -6.109375 L 0.921875 -6.109375 L 2.4375 -1.0625 L 3.9375 -6.109375 L 4.640625 -6.109375 L 6.15625 -1.046875 L 7.65625 -6.109375 L 8.4375 -6.109375 L 6.625 0 L 5.796875 0 L 4.296875 -4.90625 Z M 2.796875 0 "/></g></g></g><g fill="#222222" fill-opacity="1"><g transform="translate(19.128496, 8.243739)"><g/></g></g><g fill="#222222" fill-opacity="1"><g transform="translate(20.976524, 8.243739)"><g><path d="M 3.09375 0 L 2.3125 0 L 2.3125 -2.34375 L 0.03125 -6.109375 L 0.890625 -6.109375 L 2.6875 -3.0625 L 4.515625 -6.109375 L 5.359375 -6.109375 L 3.09375 -2.34375 Z M 3.09375 0 "/></g></g></g><g fill="#222222" fill-opacity="1"><g transform="translate(25.97658, 8.243739)"><g><path d="M 3.234375 0.078125 C 2.753906 0.078125 2.335938 -0.00390625 1.984375 -0.171875 C 1.628906 -0.335938 1.332031 -0.566406 1.09375 -0.859375 C 0.863281 -1.148438 0.691406 -1.484375 0.578125 -1.859375 C 0.460938 -2.242188 0.40625 -2.644531 0.40625 -3.0625 C 0.40625 -3.476562 0.460938 -3.875 0.578125 -4.25 C 0.691406 -4.625 0.863281 -4.957031 1.09375 -5.25 C 1.332031 -5.539062 1.628906 -5.769531 1.984375 -5.9375 C 2.335938 -6.101562 2.753906 -6.1875 3.234375 -6.1875 C 3.710938 -6.1875 4.128906 -6.101562 4.484375 -5.9375 C 4.847656 -5.769531 5.144531 -5.539062 5.375 -5.25 C 5.613281 -4.957031 5.789062 -4.625 5.90625 -4.25 C 6.019531 -3.875 6.078125 -3.476562 6.078125 -3.0625 C 6.078125 -2.644531 6.019531 -2.242188 5.90625 -1.859375 C 5.789062 -1.484375 5.613281 -1.148438 5.375 -0.859375 C 5.144531 -0.566406 4.847656 -0.335938 4.484375 -0.171875 C 4.128906 -0.00390625 3.710938 0.078125 3.234375 0.078125 Z M 3.234375 -0.578125 C 3.691406 -0.578125 4.078125 -0.679688 4.390625 -0.890625 C 4.703125 -1.109375 4.9375 -1.40625 5.09375 -1.78125 C 5.257812 -2.15625 5.34375 -2.582031 5.34375 -3.0625 C 5.34375 -3.53125 5.257812 -3.945312 5.09375 -4.3125 C 4.9375 -4.6875 4.703125 -4.976562 4.390625 -5.1875 C 4.078125 -5.40625 3.691406 -5.515625 3.234375 -5.515625 C 2.785156 -5.515625 2.40625 -5.40625 2.09375 -5.1875 C 1.78125 -4.976562 1.539062 -4.6875 1.375 -4.3125 C 1.21875 -3.945312 1.140625 -3.53125 1.140625 -3.0625 C 1.140625 -2.582031 1.21875 -2.15625 1.375 -1.78125 C 1.539062 -1.40625 1.78125 -1.109375 2.09375 -0.890625 C 2.40625 -0.679688 2.785156 -0.578125 3.234375 -0.578125 Z M 3.234375 -0.578125 "/></g></g></g><g fill="#222222" fill-opacity="1"><g transform="translate(32.072647, 8.243739)"><g><path d="M 3.75 -2.71875 L 4.921875 0 L 4.109375 0 L 3.03125 -2.578125 L 1.375 -2.578125 L 1.375 0 L 0.625 0 L 0.625 -6.109375 L 2.90625 -6.109375 C 3.488281 -6.109375 3.957031 -5.960938 4.3125 -5.671875 C 4.664062 -5.378906 4.84375 -4.941406 4.84375 -4.359375 C 4.84375 -3.953125 4.742188 -3.601562 4.546875 -3.3125 C 4.359375 -3.03125 4.09375 -2.832031 3.75 -2.71875 Z M 1.375 -3.234375 L 2.8125 -3.234375 C 3.226562 -3.234375 3.546875 -3.328125 3.765625 -3.515625 C 3.992188 -3.703125 4.109375 -3.976562 4.109375 -4.34375 C 4.109375 -4.6875 3.992188 -4.953125 3.765625 -5.140625 C 3.535156 -5.335938 3.21875 -5.4375 2.8125 -5.4375 L 1.375 -5.4375 Z M 1.375 -3.234375 "/></g></g></g><g fill="#222222" fill-opacity="1"><g transform="translate(36.960703, 8.243739)"><g><path d="M 1.375 0 L 0.625 0 L 0.625 -6.109375 L 1.375 -6.109375 L 1.375 -3.296875 L 3.90625 -6.109375 L 4.84375 -6.109375 L 2.140625 -3.171875 L 4.984375 0 L 4.015625 0 L 1.375 -2.96875 Z M 1.375 0 "/></g></g></g></g></g><g transform="matrix(1, 0, 0, 1, 167, 248)"><g clip-path="url(#5355da7250)"><g fill="#222222" fill-opacity="1"><g transform="translate(0.770381, 8.310447)"><g><path d="M 4.578125 0 L 0.625 0 L 0.625 -6.109375 L 4.578125 -6.109375 L 4.578125 -5.4375 L 1.375 -5.4375 L 1.375 -3.390625 L 4.203125 -3.390625 L 4.203125 -2.734375 L 1.375 -2.734375 L 1.375 -0.65625 L 4.578125 -0.65625 Z M 4.578125 0 "/></g></g></g><g fill="#222222" fill-opacity="1"><g transform="translate(5.306436, 8.310447)"><g><path d="M 2.84375 0.078125 C 2.4375 0.078125 2.054688 0.015625 1.703125 -0.109375 C 1.347656 -0.242188 1.046875 -0.453125 0.796875 -0.734375 C 0.554688 -1.023438 0.40625 -1.394531 0.34375 -1.84375 L 1.078125 -1.84375 C 1.140625 -1.519531 1.265625 -1.265625 1.453125 -1.078125 C 1.640625 -0.898438 1.859375 -0.769531 2.109375 -0.6875 C 2.367188 -0.613281 2.625 -0.578125 2.875 -0.578125 C 3.300781 -0.578125 3.632812 -0.664062 3.875 -0.84375 C 4.113281 -1.019531 4.234375 -1.289062 4.234375 -1.65625 C 4.234375 -1.875 4.1875 -2.050781 4.09375 -2.1875 C 4 -2.332031 3.875 -2.445312 3.71875 -2.53125 C 3.5625 -2.613281 3.378906 -2.679688 3.171875 -2.734375 C 2.972656 -2.785156 2.765625 -2.835938 2.546875 -2.890625 C 2.304688 -2.929688 2.070312 -2.984375 1.84375 -3.046875 C 1.613281 -3.117188 1.398438 -3.207031 1.203125 -3.3125 C 1.015625 -3.425781 0.863281 -3.578125 0.75 -3.765625 C 0.632812 -3.960938 0.578125 -4.207031 0.578125 -4.5 C 0.578125 -4.851562 0.660156 -5.15625 0.828125 -5.40625 C 1.003906 -5.65625 1.238281 -5.847656 1.53125 -5.984375 C 1.832031 -6.117188 2.179688 -6.1875 2.578125 -6.1875 C 2.929688 -6.1875 3.265625 -6.125 3.578125 -6 C 3.890625 -5.882812 4.15625 -5.695312 4.375 -5.4375 C 4.59375 -5.1875 4.734375 -4.847656 4.796875 -4.421875 L 4.09375 -4.421875 C 4.03125 -4.703125 3.921875 -4.921875 3.765625 -5.078125 C 3.609375 -5.234375 3.425781 -5.347656 3.21875 -5.421875 C 3.007812 -5.492188 2.796875 -5.53125 2.578125 -5.53125 C 2.160156 -5.53125 1.84375 -5.441406 1.625 -5.265625 C 1.414062 -5.097656 1.3125 -4.863281 1.3125 -4.5625 C 1.3125 -4.320312 1.382812 -4.132812 1.53125 -4 C 1.6875 -3.863281 1.878906 -3.757812 2.109375 -3.6875 C 2.347656 -3.613281 2.601562 -3.546875 2.875 -3.484375 C 3.125 -3.429688 3.375 -3.367188 3.625 -3.296875 C 3.875 -3.234375 4.097656 -3.140625 4.296875 -3.015625 C 4.503906 -2.890625 4.664062 -2.722656 4.78125 -2.515625 C 4.90625 -2.304688 4.96875 -2.035156 4.96875 -1.703125 C 4.96875 -1.160156 4.785156 -0.726562 4.421875 -0.40625 C 4.066406 -0.0820312 3.539062 0.078125 2.84375 0.078125 Z M 2.84375 0.078125 "/></g></g></g><g fill="#222222" fill-opacity="1"><g transform="translate(10.298486, 8.310447)"><g><path d="M 2.90625 0 L 2.171875 0 L 2.171875 -5.4375 L 0.109375 -5.4375 L 0.109375 -6.109375 L 4.984375 -6.109375 L 4.984375 -5.4375 L 2.90625 -5.4375 Z M 2.90625 0 "/></g></g></g><g fill="#222222" fill-opacity="1"><g transform="translate(15.002541, 8.310447)"><g><path d="M 2.296875 0 L 0.625 0 L 0.625 -6.109375 L 2.3125 -6.109375 C 3.332031 -6.109375 4.109375 -5.835938 4.640625 -5.296875 C 5.179688 -4.765625 5.453125 -4.007812 5.453125 -3.03125 C 5.453125 -2.0625 5.179688 -1.3125 4.640625 -0.78125 C 4.097656 -0.257812 3.316406 0 2.296875 0 Z M 1.375 -5.4375 L 1.375 -0.65625 L 2.296875 -0.65625 C 2.617188 -0.65625 2.921875 -0.6875 3.203125 -0.75 C 3.492188 -0.820312 3.75 -0.945312 3.96875 -1.125 C 4.195312 -1.300781 4.378906 -1.539062 4.515625 -1.84375 C 4.648438 -2.15625 4.71875 -2.550781 4.71875 -3.03125 C 4.71875 -3.625 4.613281 -4.09375 4.40625 -4.4375 C 4.195312 -4.789062 3.910156 -5.046875 3.546875 -5.203125 C 3.191406 -5.359375 2.773438 -5.4375 2.296875 -5.4375 Z M 1.375 -5.4375 "/></g></g></g><g fill="#222222" fill-opacity="1"><g transform="translate(20.466597, 8.310447)"><g/></g></g><g fill="#222222" fill-opacity="1"><g transform="translate(22.314625, 8.310447)"><g><path d="M 4.734375 0 L 0.453125 0 L 0.453125 -0.65625 L 2.40625 -2.265625 C 2.800781 -2.597656 3.113281 -2.925781 3.34375 -3.25 C 3.582031 -3.570312 3.703125 -3.9375 3.703125 -4.34375 C 3.703125 -4.707031 3.609375 -4.992188 3.421875 -5.203125 C 3.234375 -5.410156 2.945312 -5.515625 2.5625 -5.515625 C 2.164062 -5.515625 1.851562 -5.394531 1.625 -5.15625 C 1.40625 -4.914062 1.28125 -4.550781 1.25 -4.0625 L 0.515625 -4.0625 C 0.523438 -4.488281 0.613281 -4.859375 0.78125 -5.171875 C 0.957031 -5.484375 1.191406 -5.726562 1.484375 -5.90625 C 1.785156 -6.082031 2.144531 -6.171875 2.5625 -6.171875 C 2.9375 -6.171875 3.257812 -6.097656 3.53125 -5.953125 C 3.8125 -5.804688 4.03125 -5.597656 4.1875 -5.328125 C 4.351562 -5.066406 4.4375 -4.757812 4.4375 -4.40625 C 4.4375 -4.050781 4.363281 -3.71875 4.21875 -3.40625 C 4.082031 -3.101562 3.894531 -2.820312 3.65625 -2.5625 C 3.414062 -2.300781 3.148438 -2.046875 2.859375 -1.796875 L 1.484375 -0.65625 L 4.734375 -0.65625 Z M 4.734375 0 "/></g></g></g><g fill="#222222" fill-opacity="1"><g transform="translate(27.090681, 8.310447)"><g><path d="M 2.65625 0.078125 C 2.007812 0.078125 1.492188 -0.179688 1.109375 -0.703125 C 0.734375 -1.222656 0.546875 -2.007812 0.546875 -3.0625 C 0.546875 -4.113281 0.726562 -4.894531 1.09375 -5.40625 C 1.46875 -5.925781 1.976562 -6.1875 2.625 -6.1875 C 3.28125 -6.1875 3.796875 -5.925781 4.171875 -5.40625 C 4.546875 -4.882812 4.734375 -4.09375 4.734375 -3.03125 C 4.734375 -1.988281 4.546875 -1.207031 4.171875 -0.6875 C 3.804688 -0.175781 3.300781 0.078125 2.65625 0.078125 Z M 2.640625 -0.59375 C 3.054688 -0.59375 3.382812 -0.789062 3.625 -1.1875 C 3.875 -1.582031 4 -2.203125 4 -3.046875 C 4 -3.890625 3.875 -4.507812 3.625 -4.90625 C 3.375 -5.3125 3.035156 -5.515625 2.609375 -5.515625 C 2.191406 -5.515625 1.863281 -5.3125 1.625 -4.90625 C 1.394531 -4.507812 1.28125 -3.894531 1.28125 -3.0625 C 1.28125 -2.21875 1.398438 -1.59375 1.640625 -1.1875 C 1.890625 -0.789062 2.222656 -0.59375 2.640625 -0.59375 Z M 2.640625 -0.59375 "/></g></g></g><g fill="#222222" fill-opacity="1"><g transform="translate(31.978737, 8.310447)"><g><path d="M 4.734375 0 L 0.453125 0 L 0.453125 -0.65625 L 2.40625 -2.265625 C 2.800781 -2.597656 3.113281 -2.925781 3.34375 -3.25 C 3.582031 -3.570312 3.703125 -3.9375 3.703125 -4.34375 C 3.703125 -4.707031 3.609375 -4.992188 3.421875 -5.203125 C 3.234375 -5.410156 2.945312 -5.515625 2.5625 -5.515625 C 2.164062 -5.515625 1.851562 -5.394531 1.625 -5.15625 C 1.40625 -4.914062 1.28125 -4.550781 1.25 -4.0625 L 0.515625 -4.0625 C 0.523438 -4.488281 0.613281 -4.859375 0.78125 -5.171875 C 0.957031 -5.484375 1.191406 -5.726562 1.484375 -5.90625 C 1.785156 -6.082031 2.144531 -6.171875 2.5625 -6.171875 C 2.9375 -6.171875 3.257812 -6.097656 3.53125 -5.953125 C 3.8125 -5.804688 4.03125 -5.597656 4.1875 -5.328125 C 4.351562 -5.066406 4.4375 -4.757812 4.4375 -4.40625 C 4.4375 -4.050781 4.363281 -3.71875 4.21875 -3.40625 C 4.082031 -3.101562 3.894531 -2.820312 3.65625 -2.5625 C 3.414062 -2.300781 3.148438 -2.046875 2.859375 -1.796875 L 1.484375 -0.65625 L 4.734375 -0.65625 Z M 4.734375 0 "/></g></g></g><g fill="#222222" fill-opacity="1"><g transform="translate(36.754793, 8.310447)"><g><path d="M 2.8125 0 L 2.078125 0 L 2.078125 -5.171875 C 1.859375 -4.890625 1.597656 -4.65625 1.296875 -4.46875 C 0.992188 -4.28125 0.671875 -4.144531 0.328125 -4.0625 L 0.328125 -4.78125 C 0.597656 -4.84375 0.847656 -4.945312 1.078125 -5.09375 C 1.316406 -5.238281 1.519531 -5.398438 1.6875 -5.578125 C 1.863281 -5.765625 2 -5.941406 2.09375 -6.109375 L 2.8125 -6.109375 Z M 2.8125 0 "/></g></g></g></g></g></svg>