<svg xmlns="http://www.w3.org/2000/svg" xmlns:xlink="http://www.w3.org/1999/xlink" width="500" zoomAndPan="magnify" viewBox="0 0 375 374.999991" height="500" preserveAspectRatio="xMidYMid meet" version="1.0"><defs><g/><clipPath id="11aeaf7865"><path d="M 60 99 L 315 99 L 315 205.09375 L 60 205.09375 Z M 60 99 " clip-rule="nonzero"/></clipPath><clipPath id="3645cb2ca4"><path d="M 263.652344 179.480469 L 315 179.480469 L 315 231 L 263.652344 231 Z M 263.652344 179.480469 " clip-rule="nonzero"/></clipPath><clipPath id="b4f3734d90"><path d="M 60 177.1875 L 108.363281 177.1875 L 108.363281 231 L 60 231 Z M 60 177.1875 " clip-rule="nonzero"/></clipPath><clipPath id="7c767112c6"><rect x="0" width="99" y="0" height="14"/></clipPath></defs><g fill="#000000" fill-opacity="1"><g transform="translate(129.755065, 224.522695)"><g><path d="M 1.5 -7.703125 C 1.769531 -8.035156 2.109375 -8.269531 2.515625 -8.40625 C 2.921875 -8.550781 3.335938 -8.613281 3.765625 -8.59375 C 4.222656 -8.5625 4.664062 -8.457031 5.09375 -8.28125 C 5.519531 -8.113281 5.945312 -7.941406 6.375 -7.765625 C 6.8125 -7.585938 7.257812 -7.476562 7.71875 -7.4375 C 8.050781 -7.40625 8.347656 -7.460938 8.609375 -7.609375 C 8.867188 -7.765625 9 -8.023438 9 -8.390625 L 9 -13.5 L 10.5 -13.5 L 10.5 0 L 9 0 L 9 -7.53125 C 8.84375 -7.082031 8.578125 -6.753906 8.203125 -6.546875 C 7.835938 -6.335938 7.4375 -6.222656 7 -6.203125 C 6.5625 -6.191406 6.148438 -6.265625 5.765625 -6.421875 C 5.378906 -6.578125 5.007812 -6.757812 4.65625 -6.96875 C 4.3125 -7.1875 3.96875 -7.375 3.625 -7.53125 C 3.28125 -7.695312 2.925781 -7.78125 2.5625 -7.78125 C 2.332031 -7.78125 2.097656 -7.722656 1.859375 -7.609375 C 1.617188 -7.503906 1.5 -7.3125 1.5 -7.03125 L 1.5 0 L 0 0 L 0 -13.5 L 1.5 -13.5 Z M 1.5 -7.703125 "/></g></g></g><g fill="#000000" fill-opacity="1"><g transform="translate(141.887038, 224.522695)"><g><path d="M 5.96875 -13.5 L 12.03125 0 L 10.390625 0 L 8.15625 -4.953125 C 8.15625 -4.328125 8.054688 -3.71875 7.859375 -3.125 C 7.660156 -2.53125 7.367188 -2 6.984375 -1.53125 C 6.597656 -1.0625 6.125 -0.6875 5.5625 -0.40625 C 5 -0.132812 4.351562 0 3.625 0 C 2.832031 0 2.148438 -0.171875 1.578125 -0.515625 C 1.015625 -0.859375 0.59375 -1.328125 0.3125 -1.921875 C 0.0390625 -2.515625 -0.0507812 -3.1875 0.03125 -3.9375 C 0.09375 -4.488281 0.234375 -5.023438 0.453125 -5.546875 C 0.679688 -6.078125 0.941406 -6.585938 1.234375 -7.078125 C 1.535156 -7.566406 1.835938 -8.035156 2.140625 -8.484375 C 2.515625 -9.035156 2.847656 -9.5625 3.140625 -10.0625 C 3.429688 -10.5625 3.675781 -11.085938 3.875 -11.640625 C 4.082031 -12.203125 4.226562 -12.820312 4.3125 -13.5 Z M 7.734375 -5.875 L 4.53125 -13.015625 C 4.40625 -12.265625 4.191406 -11.554688 3.890625 -10.890625 C 3.597656 -10.234375 3.257812 -9.566406 2.875 -8.890625 C 2.613281 -8.410156 2.335938 -7.894531 2.046875 -7.34375 C 1.765625 -6.800781 1.53125 -6.242188 1.34375 -5.671875 C 1.164062 -5.109375 1.109375 -4.535156 1.171875 -3.953125 C 1.234375 -3.367188 1.421875 -2.851562 1.734375 -2.40625 C 2.054688 -1.957031 2.476562 -1.628906 3 -1.421875 C 3.53125 -1.210938 4.144531 -1.171875 4.84375 -1.296875 C 5.289062 -1.367188 5.722656 -1.566406 6.140625 -1.890625 C 6.566406 -2.210938 6.929688 -2.601562 7.234375 -3.0625 C 7.546875 -3.519531 7.753906 -3.992188 7.859375 -4.484375 C 7.972656 -4.972656 7.929688 -5.4375 7.734375 -5.875 Z M 7.734375 -5.875 "/></g></g></g><g fill="#000000" fill-opacity="1"><g transform="translate(154.937009, 224.522695)"><g><path d="M 9 -13.5 L 10.5 -13.5 L 10.5 0 L 9 0 L 9 -2.453125 C 8.53125 -1.941406 7.984375 -1.503906 7.359375 -1.140625 C 6.734375 -0.773438 6.097656 -0.492188 5.453125 -0.296875 C 4.804688 -0.0976562 4.203125 0 3.640625 0 C 2.410156 0 1.492188 -0.257812 0.890625 -0.78125 C 0.296875 -1.3125 0 -2.195312 0 -3.4375 L 0 -13.5 L 1.5 -13.5 L 1.5 -3.4375 C 1.5 -2.664062 1.628906 -2.054688 1.890625 -1.609375 C 2.160156 -1.171875 2.523438 -0.867188 2.984375 -0.703125 C 3.453125 -0.535156 3.960938 -0.484375 4.515625 -0.546875 C 5.203125 -0.628906 5.910156 -0.835938 6.640625 -1.171875 C 7.367188 -1.515625 8.007812 -1.941406 8.5625 -2.453125 C 8.851562 -2.722656 9 -3.046875 9 -3.421875 Z M 9 -13.5 "/></g></g></g><g fill="#000000" fill-opacity="1"><g transform="translate(167.032979, 224.522695)"><g><path d="M 4.71875 0 C 4.226562 0 3.734375 -0.0390625 3.234375 -0.125 C 2.742188 -0.21875 2.28125 -0.367188 1.84375 -0.578125 C 1.550781 -0.710938 1.25 -0.890625 0.9375 -1.109375 C 0.632812 -1.328125 0.378906 -1.585938 0.171875 -1.890625 C -0.0234375 -2.191406 -0.125 -2.515625 -0.125 -2.859375 C -0.125 -3.253906 0.00390625 -3.585938 0.265625 -3.859375 C 0.535156 -4.128906 0.921875 -4.265625 1.421875 -4.265625 C 1.234375 -3.703125 1.191406 -3.171875 1.296875 -2.671875 C 1.410156 -2.171875 1.640625 -1.742188 1.984375 -1.390625 C 2.367188 -0.984375 2.851562 -0.6875 3.4375 -0.5 C 4.019531 -0.320312 4.632812 -0.25 5.28125 -0.28125 C 5.9375 -0.3125 6.554688 -0.429688 7.140625 -0.640625 C 7.722656 -0.859375 8.195312 -1.148438 8.5625 -1.515625 C 8.957031 -1.910156 9.203125 -2.320312 9.296875 -2.75 C 9.390625 -3.1875 9.351562 -3.609375 9.1875 -4.015625 C 9.03125 -4.421875 8.765625 -4.785156 8.390625 -5.109375 C 8.023438 -5.429688 7.59375 -5.6875 7.09375 -5.875 C 6.601562 -6.050781 6.0625 -6.1875 5.46875 -6.28125 C 4.875 -6.382812 4.273438 -6.5 3.671875 -6.625 C 3.066406 -6.757812 2.503906 -6.941406 1.984375 -7.171875 C 1.460938 -7.410156 1.023438 -7.742188 0.671875 -8.171875 C 0.296875 -8.628906 0.078125 -9.148438 0.015625 -9.734375 C -0.046875 -10.328125 0.0546875 -10.875 0.328125 -11.375 C 0.535156 -11.8125 0.832031 -12.164062 1.21875 -12.4375 C 1.613281 -12.71875 2.046875 -12.929688 2.515625 -13.078125 C 2.992188 -13.234375 3.484375 -13.34375 3.984375 -13.40625 C 4.484375 -13.46875 4.945312 -13.5 5.375 -13.5 C 5.875 -13.5 6.367188 -13.453125 6.859375 -13.359375 C 7.347656 -13.273438 7.816406 -13.128906 8.265625 -12.921875 C 8.546875 -12.785156 8.835938 -12.601562 9.140625 -12.375 C 9.453125 -12.15625 9.707031 -11.894531 9.90625 -11.59375 C 10.113281 -11.300781 10.21875 -10.984375 10.21875 -10.640625 C 10.21875 -10.234375 10.085938 -9.894531 9.828125 -9.625 C 9.566406 -9.351562 9.179688 -9.222656 8.671875 -9.234375 C 8.859375 -9.734375 8.910156 -10.210938 8.828125 -10.671875 C 8.753906 -11.128906 8.578125 -11.53125 8.296875 -11.875 C 7.992188 -12.28125 7.582031 -12.59375 7.0625 -12.8125 C 6.550781 -13.03125 6 -13.160156 5.40625 -13.203125 C 4.8125 -13.242188 4.238281 -13.195312 3.6875 -13.0625 C 3.28125 -12.976562 2.878906 -12.832031 2.484375 -12.625 C 2.097656 -12.414062 1.769531 -12.148438 1.5 -11.828125 C 1.226562 -11.503906 1.070312 -11.113281 1.03125 -10.65625 C 0.976562 -10.15625 1.082031 -9.738281 1.34375 -9.40625 C 1.613281 -9.070312 1.96875 -8.804688 2.40625 -8.609375 C 2.84375 -8.410156 3.289062 -8.253906 3.75 -8.140625 C 4.3125 -8.003906 4.914062 -7.882812 5.5625 -7.78125 C 6.207031 -7.675781 6.835938 -7.535156 7.453125 -7.359375 C 8.078125 -7.179688 8.617188 -6.90625 9.078125 -6.53125 C 9.515625 -6.175781 9.847656 -5.753906 10.078125 -5.265625 C 10.304688 -4.773438 10.414062 -4.269531 10.40625 -3.75 C 10.394531 -3.226562 10.257812 -2.726562 10 -2.25 C 9.75 -1.769531 9.375 -1.363281 8.875 -1.03125 C 8.28125 -0.632812 7.601562 -0.363281 6.84375 -0.21875 C 6.082031 -0.0703125 5.375 0 4.71875 0 Z M 4.71875 0 "/></g></g></g><g fill="#000000" fill-opacity="1"><g transform="translate(178.984947, 224.522695)"><g/></g></g><g fill="#000000" fill-opacity="1"><g transform="translate(182.926944, 224.522695)"><g><path d="M 6.53125 -13.5 C 7.4375 -13.5 8.285156 -13.320312 9.078125 -12.96875 C 9.867188 -12.625 10.5625 -12.144531 11.15625 -11.53125 C 11.757812 -10.914062 12.226562 -10.195312 12.5625 -9.375 C 12.894531 -8.5625 13.0625 -7.6875 13.0625 -6.75 C 13.0625 -5.8125 12.894531 -4.929688 12.5625 -4.109375 C 12.226562 -3.296875 11.757812 -2.582031 11.15625 -1.96875 C 10.5625 -1.351562 9.867188 -0.867188 9.078125 -0.515625 C 8.285156 -0.171875 7.4375 0 6.53125 0 C 5.632812 0 4.789062 -0.171875 4 -0.515625 C 3.207031 -0.867188 2.515625 -1.351562 1.921875 -1.96875 C 1.328125 -2.582031 0.859375 -3.296875 0.515625 -4.109375 C 0.171875 -4.929688 0 -5.8125 0 -6.75 C 0 -7.6875 0.171875 -8.5625 0.515625 -9.375 C 0.859375 -10.195312 1.328125 -10.914062 1.921875 -11.53125 C 2.515625 -12.144531 3.207031 -12.625 4 -12.96875 C 4.789062 -13.320312 5.632812 -13.5 6.53125 -13.5 Z M 6.53125 -13.21875 C 5.832031 -13.21875 5.179688 -13.046875 4.578125 -12.703125 C 3.972656 -12.367188 3.4375 -11.90625 2.96875 -11.3125 C 2.507812 -10.71875 2.148438 -10.03125 1.890625 -9.25 C 1.628906 -8.46875 1.5 -7.632812 1.5 -6.75 C 1.5 -5.851562 1.628906 -5.015625 1.890625 -4.234375 C 2.148438 -3.453125 2.507812 -2.765625 2.96875 -2.171875 C 3.4375 -1.578125 3.972656 -1.109375 4.578125 -0.765625 C 5.179688 -0.429688 5.832031 -0.265625 6.53125 -0.265625 C 7.226562 -0.265625 7.878906 -0.429688 8.484375 -0.765625 C 9.097656 -1.109375 9.632812 -1.578125 10.09375 -2.171875 C 10.5625 -2.765625 10.925781 -3.453125 11.1875 -4.234375 C 11.445312 -5.015625 11.578125 -5.851562 11.578125 -6.75 C 11.578125 -7.632812 11.445312 -8.46875 11.1875 -9.25 C 10.925781 -10.03125 10.5625 -10.71875 10.09375 -11.3125 C 9.632812 -11.90625 9.097656 -12.367188 8.484375 -12.703125 C 7.878906 -13.046875 7.226562 -13.21875 6.53125 -13.21875 Z M 6.53125 -13.21875 "/></g></g></g><g fill="#000000" fill-opacity="1"><g transform="translate(197.614909, 224.522695)"><g><path d="M 0 -13.5 L 9.625 -13.5 L 9.625 -11.984375 C 9.03125 -12.117188 8.445312 -12.257812 7.875 -12.40625 C 7.3125 -12.550781 6.722656 -12.679688 6.109375 -12.796875 C 5.503906 -12.921875 4.828125 -13.019531 4.078125 -13.09375 C 3.328125 -13.175781 2.46875 -13.21875 1.5 -13.21875 L 1.5 -7.6875 C 1.8125 -8.070312 2.1875 -8.332031 2.625 -8.46875 C 3.070312 -8.613281 3.515625 -8.640625 3.953125 -8.546875 C 4.253906 -8.484375 4.550781 -8.382812 4.84375 -8.25 C 5.132812 -8.125 5.421875 -8 5.703125 -7.875 C 5.992188 -7.75 6.296875 -7.660156 6.609375 -7.609375 C 6.878906 -7.566406 7.15625 -7.570312 7.4375 -7.625 C 7.71875 -7.6875 7.894531 -7.90625 7.96875 -8.28125 C 8.113281 -7.632812 8.066406 -7.132812 7.828125 -6.78125 C 7.597656 -6.425781 7.265625 -6.21875 6.828125 -6.15625 C 6.390625 -6.101562 5.972656 -6.160156 5.578125 -6.328125 C 5.191406 -6.503906 4.816406 -6.710938 4.453125 -6.953125 C 4.097656 -7.203125 3.742188 -7.410156 3.390625 -7.578125 C 3.046875 -7.753906 2.703125 -7.828125 2.359375 -7.796875 C 2.140625 -7.773438 1.941406 -7.695312 1.765625 -7.5625 C 1.585938 -7.425781 1.5 -7.226562 1.5 -6.96875 L 1.5 0 L 0 0 Z M 0 -13.5 "/></g></g></g><g fill="#000000" fill-opacity="1"><g transform="translate(208.810881, 224.522695)"><g/></g></g><g fill="#000000" fill-opacity="1"><g transform="translate(212.752878, 224.522695)"><g><path d="M 0 -13.5 L 1.5 -13.5 L 1.5 -5.703125 C 2.8125 -6.960938 4.085938 -8.226562 5.328125 -9.5 C 6.578125 -10.769531 7.800781 -12.101562 9 -13.5 L 10.5 -13.5 L 4.03125 -7.609375 C 4.28125 -7.710938 4.539062 -7.789062 4.8125 -7.84375 C 5.09375 -7.894531 5.367188 -7.898438 5.640625 -7.859375 C 6.015625 -7.828125 6.328125 -7.726562 6.578125 -7.5625 C 6.835938 -7.40625 7.054688 -7.203125 7.234375 -6.953125 C 7.515625 -6.578125 7.765625 -6.125 7.984375 -5.59375 C 8.203125 -5.070312 8.410156 -4.515625 8.609375 -3.921875 C 8.804688 -3.335938 9.007812 -2.757812 9.21875 -2.1875 C 9.4375 -1.613281 9.675781 -1.09375 9.9375 -0.625 C 10.019531 -0.507812 10.109375 -0.390625 10.203125 -0.265625 C 10.296875 -0.148438 10.394531 -0.0625 10.5 0 L 9.203125 0 C 8.828125 0 8.582031 -0.078125 8.46875 -0.234375 C 8.363281 -0.398438 8.25 -0.625 8.125 -0.90625 C 7.96875 -1.257812 7.800781 -1.675781 7.625 -2.15625 C 7.457031 -2.644531 7.285156 -3.148438 7.109375 -3.671875 C 6.941406 -4.191406 6.757812 -4.6875 6.5625 -5.15625 C 6.375 -5.632812 6.171875 -6.046875 5.953125 -6.390625 C 5.566406 -6.992188 5.125 -7.320312 4.625 -7.375 C 4.125 -7.425781 3.609375 -7.210938 3.078125 -6.734375 L 1.5 -5.296875 L 1.5 0 L 0 0 Z M 0 -13.5 "/></g></g></g><g fill="#000000" fill-opacity="1"><g transform="translate(224.272843, 224.522695)"><g><path d="M 6 -5.59375 L 6 0 L 4.5 0 L 4.5 -5.59375 L 0 -13.5 L 1.734375 -13.5 L 5.953125 -6.078125 C 6.660156 -7.328125 7.269531 -8.582031 7.78125 -9.84375 C 8.289062 -11.113281 8.695312 -12.332031 9 -13.5 L 10.5 -13.5 Z M 6 -5.59375 "/></g></g></g><g fill="#000000" fill-opacity="1"><g transform="translate(235.846813, 224.522695)"><g><path d="M 10.5 0 L 10.21875 0 C 10.207031 -0.582031 10.019531 -1.242188 9.65625 -1.984375 C 9.300781 -2.722656 8.828125 -3.503906 8.234375 -4.328125 C 7.640625 -5.160156 6.984375 -6 6.265625 -6.84375 C 5.554688 -7.695312 4.828125 -8.519531 4.078125 -9.3125 C 3.335938 -10.101562 2.632812 -10.832031 1.96875 -11.5 C 1.300781 -12.175781 0.734375 -12.75 0.265625 -13.21875 C 0.273438 -11.644531 0.316406 -10.25 0.390625 -9.03125 C 0.472656 -7.820312 0.570312 -6.71875 0.6875 -5.71875 C 0.8125 -4.726562 0.945312 -3.769531 1.09375 -2.84375 C 1.238281 -1.925781 1.375 -0.976562 1.5 0 L 0 0 L 0 -13.5 L 2 -13.5 C 2.894531 -12.582031 3.820312 -11.628906 4.78125 -10.640625 C 5.75 -9.648438 6.691406 -8.628906 7.609375 -7.578125 C 8.523438 -6.523438 9.351562 -5.429688 10.09375 -4.296875 C 10.019531 -5.554688 9.921875 -6.691406 9.796875 -7.703125 C 9.671875 -8.710938 9.539062 -9.679688 9.40625 -10.609375 C 9.269531 -11.535156 9.132812 -12.5 9 -13.5 L 10.5 -13.5 Z M 10.5 0 "/></g></g></g><g fill="#000000" fill-opacity="1"><g transform="translate(247.95037, 224.522695)"><g/></g></g><g clip-path="url(#11aeaf7865)"><path fill="#000000" d="M 310.558594 214.734375 C 306.316406 208.398438 297.253906 204.085938 292.128906 199.613281 C 286.148438 198.261719 280.980469 195.265625 275.796875 192.890625 C 270.320312 190.382812 264.914062 188.335938 259.460938 186.171875 C 242.898438 179.589844 227.113281 172.140625 215.90625 160.546875 C 212.027344 156.535156 208.652344 151.601562 206.273438 147.105469 C 204.832031 144.378906 203.71875 139.507812 201.664062 138.285156 C 198.171875 136.207031 191.734375 138.074219 188.261719 136.605469 C 191.511719 124.988281 178.808594 120.8125 179.46875 111.402344 C 180.109375 102.3125 190.628906 102.515625 194.964844 107.625 C 196.375 109.285156 197.222656 113.773438 201.246094 112.242188 C 202.636719 109.863281 199.757812 107.238281 198.316406 105.523438 C 196.515625 103.382812 194.332031 101.230469 191.613281 100.484375 C 184.640625 98.5625 176.441406 102.40625 175.699219 110.5625 C 174.605469 122.574219 186.445312 123.207031 184.914062 136.605469 C 179.644531 137.980469 173.21875 136.308594 170.253906 138.285156 C 168.433594 139.5 165.738281 147.085938 163.972656 150.046875 C 161.621094 153.992188 158.464844 158.332031 156.015625 160.96875 C 143.042969 174.914062 122.957031 180.429688 104.082031 188.691406 C 97.320312 191.652344 90.457031 195.179688 83.558594 198.773438 C 74.257812 203.617188 63.976562 208.332031 60.945312 217.675781 C 60.128906 220.183594 58.851562 226.410156 62.199219 229.4375 C 67.023438 230.75 71.550781 223.902344 76.859375 222.714844 C 79.484375 222.125 84.289062 222.714844 88.585938 222.714844 L 103.242188 222.714844 C 149.476562 222.714844 213.574219 223.132812 269.511719 223.132812 C 279.085938 223.132812 289.953125 221.996094 297.15625 223.554688 C 302.410156 224.691406 305.917969 231.335938 312.234375 230.695312 C 316.0625 225.457031 313.21875 218.707031 310.554688 214.734375 Z M 197.894531 108.882812 C 195.527344 105.9375 193.542969 102.605469 188.679688 102.164062 C 193.242188 101.234375 196.371094 105.371094 197.894531 108.882812 Z M 184.910156 101.742188 C 185.785156 101.507812 188.113281 101.546875 188.261719 101.742188 C 188.675781 102.292969 186.128906 101.992188 185.75 102.164062 C 184.230469 102.847656 179.96875 104.761719 178.628906 106.785156 C 180.039062 103.957031 183.246094 102.191406 184.910156 101.742188 Z M 177.792969 107.625 C 179.480469 107.789062 177.480469 110.738281 177.375 111.824219 C 179.683594 120.832031 187.886719 125.746094 187.007812 136.605469 C 184.945312 134.761719 186.175781 133.390625 185.75 131.144531 C 184.148438 122.714844 174.425781 118.65625 177.792969 107.625 Z M 201.246094 139.546875 C 206.320312 149.445312 210.585938 157.976562 218.417969 165.167969 C 230.785156 176.523438 252.125 183.660156 269.515625 191.210938 C 277.53125 194.691406 283.246094 197.792969 291.292969 200.871094 C 298.417969 206.328125 307.363281 209.957031 310.140625 219.773438 C 291.941406 192.9375 242.992188 189.828125 218.417969 168.527344 C 210.390625 161.570312 205.570312 153.175781 200.410156 142.488281 C 193.4375 140.082031 182.320312 138.464844 174.863281 141.226562 C 170.269531 142.925781 170.265625 147.394531 167.324219 150.46875 C 165.628906 149.835938 168.554688 147.082031 169 145.847656 C 167.699219 134.359375 191.304688 137.589844 201.246094 139.546875 Z M 71.832031 206.332031 C 100.652344 186.433594 148.34375 181.859375 165.648438 149.628906 C 166.988281 151.394531 164.515625 153.265625 163.554688 155.085938 C 165.449219 154.75 165.691406 152.753906 166.484375 151.308594 C 158.757812 169.933594 140.117188 177.300781 119.996094 185.75 C 110.753906 189.632812 101.28125 193.796875 91.515625 198.351562 C 80.292969 203.585938 67.59375 208.894531 63.039062 220.191406 C 62.820312 214.117188 67.6875 209.195312 71.832031 206.332031 Z M 69.320312 224.8125 C 69.082031 225.5625 68.15625 224.875 68.902344 224.8125 C 92.699219 211.578125 115.910156 197.753906 140.101562 184.910156 C 116.898438 198.605469 93.230469 211.832031 69.320312 224.8125 Z M 185.75 160.96875 C 189.664062 161.925781 191.167969 162.445312 196.519531 165.988281 C 200.621094 168.695312 203.929688 170.707031 207.527344 172.730469 C 233.585938 187.363281 261.355469 202.214844 286.683594 218.09375 C 264.578125 217.347656 236.71875 218.035156 213.449219 218.148438 L 199.925781 218.039062 C 168.023438 217.199219 129.359375 217.503906 86.488281 217.253906 C 119 197.914062 153.070312 180.140625 185.746094 160.96875 Z M 140.519531 184.910156 C 143.984375 182.507812 147.660156 180.3125 151.828125 178.609375 C 150.410156 179.742188 144.101562 183.15625 140.519531 184.910156 Z M 152.664062 178.1875 C 155.902344 175.695312 159.679688 173.742188 163.554688 171.886719 C 160.304688 174.371094 156.464844 176.261719 152.664062 178.1875 Z M 82.722656 221.03125 C 84.679688 221.257812 90.96875 219.414062 93.191406 221.453125 C 90.515625 220.964844 84.269531 222.109375 82.722656 221.03125 Z M 93.609375 220.613281 C 99.171875 220.894531 101.644531 220.800781 106.175781 221.03125 C 103.078125 221.476562 96.019531 222.261719 93.609375 220.613281 Z M 107.011719 221.03125 L 109.527344 221.03125 C 140.917969 220.757812 174.472656 221.605469 206.691406 220.613281 C 174.429688 220.402344 129.667969 220.773438 82.722656 219.773438 C 85.824219 217.59375 94.675781 217.914062 101.570312 218.09375 C 121.550781 218.617188 150.183594 218.75 177.777344 218.464844 L 178.03125 218.582031 L 228.542969 219 L 228.46875 218.871094 C 242.765625 219.09375 256.785156 219.0625 269.09375 218.933594 C 276.253906 218.859375 283.910156 218 290.453125 220.191406 C 259.179688 221.066406 234.699219 220.070312 207.109375 220.613281 C 237.484375 221.714844 269.667969 220.519531 292.546875 221.453125 C 223.585938 222.101562 166.640625 222.222656 107.011719 221.03125 Z M 310.976562 228.59375 C 276.742188 209.300781 242.871094 189.648438 208.785156 170.207031 L 205.855469 170.207031 C 200.046875 165.953125 193.085938 162.851562 186.589844 159.289062 C 179.566406 162.746094 173.125 166.785156 166.484375 170.628906 C 156.230469 173.066406 146.445312 180.238281 137.585938 185.332031 C 112.617188 199.683594 87.101562 213.125 62.199219 226.914062 C 66.140625 208.527344 86.53125 200.640625 102.824219 193.730469 C 116.09375 188.105469 129.621094 183.207031 140.9375 177.351562 C 141.882812 178.328125 138.445312 178.46875 138.425781 179.871094 C 148.929688 174.027344 160.148438 165.035156 167.324219 152.566406 C 169.234375 149.246094 172.027344 142.363281 175.28125 142.066406 C 180.042969 141.632812 182.246094 147.316406 187.007812 147.945312 C 186.515625 146.199219 184.328125 146.15625 183.238281 145.007812 C 185.691406 144.796875 188.429688 147.914062 191.195312 148.789062 C 188.976562 145.832031 185.042969 144.59375 181.5625 142.90625 C 181.273438 144.035156 182.429688 143.71875 182.820312 144.167969 C 181.417969 144.855469 179.683594 142.28125 177.792969 142.066406 C 184.769531 139.964844 194.355469 140.4375 199.992188 143.328125 C 203.4375 150.550781 206.664062 157.070312 211.296875 162.648438 C 230.421875 185.664062 269.59375 188.386719 293.386719 206.753906 L 295.480469 206.753906 C 300.417969 211.457031 306.585938 214.9375 309.300781 221.875 C 307.496094 221.582031 306.730469 220.253906 305.113281 219.773438 C 307.011719 222.667969 312.472656 223.625 310.976562 228.59375 Z M 310.976562 228.59375 " fill-opacity="1" fill-rule="nonzero"/></g><g clip-path="url(#3645cb2ca4)"><path fill="#000000" d="M 310.539062 214.960938 C 306.296875 208.625 297.234375 204.3125 292.113281 199.839844 C 286.128906 198.488281 280.960938 195.492188 275.777344 193.117188 C 270.304688 190.609375 264.894531 188.5625 259.441406 186.398438 C 242.878906 179.816406 227.09375 172.367188 215.886719 160.773438 C 212.007812 156.761719 208.632812 151.828125 206.253906 147.332031 C 204.8125 144.605469 203.699219 139.734375 201.648438 138.511719 C 198.152344 136.433594 191.714844 138.304688 188.246094 136.832031 C 191.492188 125.214844 178.789062 121.039062 179.449219 111.628906 C 180.089844 102.539062 190.609375 102.742188 194.945312 107.851562 C 196.355469 109.511719 197.203125 114 201.226562 112.46875 C 202.617188 110.089844 199.738281 107.464844 198.296875 105.75 C 196.496094 103.609375 194.316406 101.457031 191.59375 100.710938 C 184.621094 98.792969 176.421875 102.632812 175.679688 110.789062 C 174.585938 122.800781 186.429688 123.433594 184.894531 136.832031 C 179.625 138.207031 173.199219 136.535156 170.234375 138.511719 C 168.414062 139.726562 165.71875 147.3125 163.953125 150.273438 C 161.601562 154.21875 158.445312 158.558594 155.996094 161.195312 C 143.023438 175.140625 122.9375 180.65625 104.0625 188.917969 C 97.300781 191.878906 90.4375 195.40625 83.542969 199 C 74.238281 203.84375 63.957031 208.558594 60.925781 217.902344 C 60.109375 220.410156 58.832031 226.636719 62.179688 229.664062 C 67.003906 230.976562 71.53125 224.128906 76.839844 222.941406 C 79.464844 222.355469 84.269531 222.941406 88.566406 222.941406 L 103.226562 222.941406 C 149.457031 222.941406 213.558594 223.359375 269.496094 223.359375 C 279.070312 223.359375 289.9375 222.222656 297.136719 223.78125 C 302.390625 224.917969 305.902344 231.5625 312.214844 230.921875 C 316.042969 225.683594 313.199219 218.9375 310.539062 214.960938 Z M 197.878906 109.109375 C 195.507812 106.164062 193.527344 102.832031 188.664062 102.390625 C 193.222656 101.460938 196.351562 105.597656 197.878906 109.109375 Z M 184.894531 101.96875 C 185.765625 101.734375 188.09375 101.773438 188.242188 101.96875 C 188.65625 102.519531 186.109375 102.21875 185.730469 102.390625 C 184.210938 103.074219 179.949219 104.988281 178.609375 107.011719 C 180.019531 104.183594 183.226562 102.417969 184.894531 101.96875 Z M 177.773438 107.851562 C 179.460938 108.015625 177.460938 110.964844 177.355469 112.050781 C 179.664062 121.058594 187.867188 125.976562 186.988281 136.832031 C 184.925781 134.988281 186.15625 133.617188 185.730469 131.371094 C 184.128906 122.941406 174.40625 118.882812 177.773438 107.851562 Z M 201.226562 139.773438 C 206.300781 149.671875 210.566406 158.203125 218.398438 165.394531 C 230.765625 176.75 252.105469 183.886719 269.496094 191.4375 C 277.511719 194.917969 283.230469 198.019531 291.273438 201.097656 C 298.398438 206.554688 307.34375 210.1875 310.121094 220 C 291.921875 193.164062 242.972656 190.054688 218.398438 168.753906 C 210.371094 161.796875 205.550781 153.402344 200.390625 142.714844 C 193.421875 140.308594 182.300781 138.691406 174.84375 141.453125 C 170.25 143.152344 170.246094 147.621094 167.304688 150.695312 C 165.609375 150.0625 168.539062 147.308594 168.980469 146.074219 C 167.679688 134.585938 191.285156 137.816406 201.226562 139.773438 Z M 71.8125 206.558594 C 100.636719 186.660156 148.324219 182.085938 165.628906 149.855469 C 166.96875 151.621094 164.496094 153.492188 163.535156 155.3125 C 165.429688 154.976562 165.675781 152.980469 166.464844 151.535156 C 158.742188 170.160156 140.101562 177.527344 119.976562 185.976562 C 110.738281 189.859375 101.261719 194.023438 91.5 198.578125 C 80.273438 203.8125 67.578125 209.121094 63.019531 220.417969 C 62.804688 214.34375 67.667969 209.421875 71.8125 206.558594 Z M 69.300781 225.039062 C 69.066406 225.789062 68.136719 225.101562 68.882812 225.039062 C 92.683594 211.804688 115.894531 197.980469 140.082031 185.136719 C 116.878906 198.832031 93.210938 212.058594 69.300781 225.039062 Z M 185.730469 161.195312 C 189.644531 162.152344 191.152344 162.675781 196.5 166.214844 C 200.601562 168.921875 203.910156 170.933594 207.507812 172.957031 C 233.566406 187.589844 261.335938 202.441406 286.667969 218.320312 C 264.558594 217.574219 236.703125 218.261719 213.429688 218.375 L 199.90625 218.265625 C 168.007812 217.425781 129.339844 217.730469 86.46875 217.480469 C 118.984375 198.140625 153.050781 180.367188 185.730469 161.195312 Z M 140.5 185.136719 C 143.96875 182.734375 147.644531 180.539062 151.808594 178.835938 C 150.390625 179.96875 144.082031 183.382812 140.5 185.136719 Z M 152.644531 178.414062 C 155.882812 175.921875 159.660156 173.96875 163.535156 172.113281 C 160.285156 174.597656 156.445312 176.488281 152.644531 178.414062 Z M 82.703125 221.261719 C 84.664062 221.484375 90.949219 219.640625 93.175781 221.679688 C 90.5 221.191406 84.25 222.335938 82.703125 221.261719 Z M 93.59375 220.839844 C 99.15625 221.121094 101.625 221.027344 106.15625 221.261719 C 103.058594 221.703125 96 222.488281 93.59375 220.839844 Z M 106.996094 221.261719 L 109.507812 221.261719 C 140.898438 220.984375 174.457031 221.832031 206.671875 220.839844 C 174.414062 220.628906 129.648438 221 82.703125 220 C 85.808594 217.820312 94.65625 218.140625 101.550781 218.320312 C 121.53125 218.84375 150.164062 218.976562 177.761719 218.691406 L 178.011719 218.808594 L 228.523438 219.226562 L 228.449219 219.097656 C 242.746094 219.324219 256.765625 219.289062 269.074219 219.160156 C 276.234375 219.085938 283.890625 218.226562 290.4375 220.417969 C 259.160156 221.292969 234.679688 220.296875 207.089844 220.839844 C 237.464844 221.941406 269.648438 220.746094 292.527344 221.679688 C 223.566406 222.328125 166.621094 222.449219 106.992188 221.261719 Z M 310.957031 228.820312 C 276.726562 209.527344 242.851562 189.875 208.765625 170.433594 L 205.835938 170.433594 C 200.027344 166.179688 193.066406 163.078125 186.570312 159.515625 C 179.546875 162.972656 173.105469 167.011719 166.464844 170.855469 C 156.210938 173.292969 146.425781 180.464844 137.566406 185.558594 C 112.597656 199.910156 87.082031 213.351562 62.179688 227.140625 C 66.125 208.753906 86.515625 200.867188 102.804688 193.957031 C 116.074219 188.332031 129.605469 183.433594 140.917969 177.578125 C 141.863281 178.554688 138.425781 178.695312 138.40625 180.097656 C 148.910156 174.253906 160.128906 165.261719 167.304688 152.792969 C 169.214844 149.472656 172.007812 142.589844 175.261719 142.292969 C 180.023438 141.859375 182.226562 147.542969 186.988281 148.171875 C 186.496094 146.425781 184.308594 146.382812 183.21875 145.234375 C 185.671875 145.023438 188.410156 148.140625 191.175781 149.015625 C 188.957031 146.058594 185.023438 144.820312 181.542969 143.132812 C 181.253906 144.261719 182.410156 143.945312 182.800781 144.394531 C 181.398438 145.082031 179.664062 142.507812 177.773438 142.292969 C 184.753906 140.191406 194.335938 140.664062 199.972656 143.554688 C 203.417969 150.777344 206.644531 157.296875 211.28125 162.875 C 230.40625 185.890625 269.578125 188.613281 293.367188 206.980469 L 295.460938 206.980469 C 300.402344 211.683594 306.566406 215.164062 309.28125 222.101562 C 307.476562 221.808594 306.710938 220.480469 305.09375 220 C 306.992188 222.894531 312.453125 223.851562 310.957031 228.820312 Z M 310.957031 228.820312 " fill-opacity="1" fill-rule="nonzero"/></g><g clip-path="url(#b4f3734d90)"><path fill="#000000" d="M 310.558594 214.953125 C 306.316406 208.617188 297.253906 204.308594 292.128906 199.832031 C 286.148438 198.484375 280.980469 195.484375 275.796875 193.113281 C 270.320312 190.605469 264.914062 188.558594 259.460938 186.390625 C 242.898438 179.808594 227.113281 172.359375 215.90625 160.769531 C 212.027344 156.757812 208.652344 151.824219 206.273438 147.328125 C 204.832031 144.601562 203.71875 139.726562 201.664062 138.507812 C 198.171875 136.425781 191.734375 138.296875 188.261719 136.828125 C 191.511719 125.207031 178.808594 121.03125 179.46875 111.625 C 180.109375 102.535156 190.628906 102.738281 194.964844 107.84375 C 196.375 109.503906 197.222656 113.992188 201.246094 112.464844 C 202.636719 110.085938 199.757812 107.460938 198.316406 105.742188 C 196.515625 103.601562 194.332031 101.449219 191.613281 100.703125 C 184.640625 98.785156 176.441406 102.625 175.699219 110.785156 C 174.605469 122.796875 186.445312 123.429688 184.914062 136.828125 C 179.644531 138.203125 173.21875 136.53125 170.253906 138.507812 C 168.433594 139.722656 165.738281 147.304688 163.972656 150.269531 C 161.621094 154.214844 158.464844 158.554688 156.015625 161.1875 C 143.042969 175.136719 122.957031 180.648438 104.082031 188.910156 C 97.320312 191.871094 90.457031 195.398438 83.558594 198.992188 C 74.257812 203.839844 63.976562 208.550781 60.945312 217.894531 C 60.128906 220.402344 58.851562 226.628906 62.199219 229.65625 C 67.023438 230.972656 71.550781 224.125 76.859375 222.933594 C 79.484375 222.347656 84.289062 222.933594 88.585938 222.933594 L 103.242188 222.933594 C 149.476562 222.933594 213.574219 223.355469 269.511719 223.355469 C 279.085938 223.355469 289.953125 222.214844 297.15625 223.773438 C 302.410156 224.910156 305.917969 231.558594 312.234375 230.914062 C 316.0625 225.675781 313.21875 218.929688 310.554688 214.953125 Z M 197.894531 109.105469 C 195.527344 106.160156 193.542969 102.828125 188.679688 102.382812 C 193.242188 101.453125 196.371094 105.589844 197.894531 109.105469 Z M 184.910156 101.964844 C 185.785156 101.730469 188.113281 101.765625 188.261719 101.964844 C 188.675781 102.511719 186.128906 102.210938 185.75 102.382812 C 184.230469 103.066406 179.96875 104.980469 178.628906 107.003906 C 180.039062 104.175781 183.246094 102.410156 184.910156 101.964844 Z M 177.792969 107.84375 C 179.480469 108.007812 177.480469 110.957031 177.375 112.042969 C 179.683594 121.054688 187.886719 125.96875 187.007812 136.828125 C 184.945312 134.980469 186.175781 133.613281 185.75 131.367188 C 184.148438 122.933594 174.425781 118.875 177.792969 107.84375 Z M 201.246094 139.765625 C 206.320312 149.667969 210.585938 158.195312 218.417969 165.390625 C 230.785156 176.742188 252.125 183.882812 269.515625 191.429688 C 277.53125 194.914062 283.246094 198.011719 291.292969 201.09375 C 298.417969 206.546875 307.363281 210.179688 310.140625 219.996094 C 291.941406 193.15625 242.992188 190.046875 218.417969 168.75 C 210.390625 161.789062 205.570312 153.398438 200.410156 142.707031 C 193.4375 140.304688 182.320312 138.683594 174.863281 141.445312 C 170.269531 143.148438 170.265625 147.613281 167.324219 150.6875 C 165.628906 150.054688 168.554688 147.300781 169 146.066406 C 167.699219 134.578125 191.304688 137.808594 201.246094 139.765625 Z M 71.832031 206.554688 C 100.652344 186.652344 148.34375 182.078125 165.648438 149.847656 C 166.988281 151.613281 164.515625 153.484375 163.554688 155.308594 C 165.449219 154.96875 165.691406 152.972656 166.484375 151.527344 C 158.757812 170.152344 140.117188 177.519531 119.996094 185.972656 C 110.753906 189.851562 101.28125 194.015625 91.515625 198.570312 C 80.292969 203.808594 67.59375 209.113281 63.039062 220.414062 C 62.820312 214.335938 67.6875 209.414062 71.832031 206.554688 Z M 69.320312 225.035156 C 69.082031 225.78125 68.15625 225.09375 68.902344 225.035156 C 92.699219 211.800781 115.910156 197.972656 140.101562 185.132812 C 116.898438 198.824219 93.230469 212.050781 69.320312 225.035156 Z M 185.75 161.1875 C 189.664062 162.148438 191.167969 162.667969 196.519531 166.207031 C 200.621094 168.917969 203.929688 170.929688 207.527344 172.949219 C 233.585938 187.582031 261.355469 202.4375 286.683594 218.3125 C 264.578125 217.570312 236.71875 218.257812 213.449219 218.367188 L 199.925781 218.257812 C 168.023438 217.417969 129.359375 217.722656 86.488281 217.472656 C 119 198.132812 153.070312 180.359375 185.746094 161.1875 Z M 140.519531 185.132812 C 143.984375 182.726562 147.660156 180.535156 151.828125 178.832031 C 150.410156 179.964844 144.101562 183.375 140.519531 185.132812 Z M 152.664062 178.410156 C 155.902344 175.914062 159.679688 173.964844 163.554688 172.109375 C 160.304688 174.59375 156.464844 176.480469 152.664062 178.410156 Z M 82.722656 221.253906 C 84.679688 221.476562 90.96875 219.636719 93.191406 221.671875 C 90.515625 221.1875 84.269531 222.328125 82.722656 221.253906 Z M 93.609375 220.835938 C 99.171875 221.113281 101.644531 221.023438 106.175781 221.253906 C 103.078125 221.695312 96.019531 222.484375 93.609375 220.835938 Z M 107.011719 221.253906 L 109.527344 221.253906 C 140.917969 220.976562 174.472656 221.824219 206.691406 220.835938 C 174.429688 220.621094 129.667969 220.996094 82.722656 219.996094 C 85.824219 217.8125 94.675781 218.132812 101.570312 218.3125 C 121.550781 218.835938 150.183594 218.96875 177.777344 218.683594 L 178.03125 218.800781 L 228.542969 219.21875 L 228.46875 219.09375 C 242.765625 219.316406 256.785156 219.285156 269.09375 219.152344 C 276.253906 219.078125 283.910156 218.222656 290.453125 220.414062 C 259.179688 221.285156 234.699219 220.289062 207.109375 220.832031 C 237.484375 221.933594 269.667969 220.738281 292.546875 221.671875 C 223.585938 222.324219 166.640625 222.445312 107.011719 221.253906 Z M 310.976562 228.816406 C 276.742188 209.523438 242.871094 189.867188 208.785156 170.429688 L 205.855469 170.429688 C 200.046875 166.171875 193.085938 163.074219 186.589844 159.507812 C 179.566406 162.964844 173.125 167.007812 166.484375 170.847656 C 156.230469 173.285156 146.445312 180.457031 137.585938 185.550781 C 112.617188 199.902344 87.101562 213.347656 62.199219 227.136719 C 66.140625 208.746094 86.53125 200.859375 102.824219 193.953125 C 116.09375 188.328125 129.621094 183.425781 140.9375 177.570312 C 141.882812 178.546875 138.445312 178.6875 138.425781 180.089844 C 148.929688 174.246094 160.148438 165.253906 167.324219 152.789062 C 169.234375 149.464844 172.027344 142.582031 175.28125 142.285156 C 180.042969 141.851562 182.246094 147.539062 187.007812 148.167969 C 186.515625 146.421875 184.328125 146.375 183.238281 145.226562 C 185.691406 145.015625 188.429688 148.136719 191.195312 149.007812 C 188.976562 146.054688 185.042969 144.816406 181.5625 143.125 C 181.273438 144.257812 182.429688 143.9375 182.820312 144.386719 C 181.417969 145.078125 179.683594 142.503906 177.792969 142.285156 C 184.769531 140.183594 194.355469 140.660156 199.992188 143.546875 C 203.4375 150.769531 206.664062 157.289062 211.296875 162.867188 C 230.421875 185.886719 269.59375 188.609375 293.386719 206.972656 L 295.480469 206.972656 C 300.417969 211.679688 306.585938 215.15625 309.300781 222.09375 C 307.496094 221.804688 306.730469 220.472656 305.113281 219.996094 C 307.011719 222.890625 312.472656 223.84375 310.976562 228.816406 Z M 310.976562 228.816406 " fill-opacity="1" fill-rule="nonzero"/></g><path stroke-linecap="butt" transform="matrix(0, -0.75, 0.75, 0, 263.83323, 222.536937)" fill="none" stroke-linejoin="miter" d="M 0.00237485 0.498401 L 6.2055 0.498401 " stroke="#000000" stroke-width="1" stroke-opacity="1" stroke-miterlimit="4"/><path stroke-linecap="butt" transform="matrix(0, -0.75, 0.75, 0, 108.35424, 222.53477)" fill="none" stroke-linejoin="miter" d="M -0.000514751 0.501639 L 6.947402 0.501639 " stroke="#000000" stroke-width="1" stroke-opacity="1" stroke-miterlimit="4"/><g transform="matrix(1, 0, 0, 1, 138, 239)"><g clip-path="url(#7c767112c6)"><g fill="#000000" fill-opacity="1"><g transform="translate(0.74593, 10.557412)"><g><path d="M 1.703125 -6.78125 C 1.515625 -6.84375 1.367188 -6.875 1.265625 -6.875 C 1.109375 -6.875 0.984375 -6.863281 0.890625 -6.84375 C 0.796875 -6.832031 0.742188 -6.832031 0.734375 -6.84375 C 0.722656 -6.863281 0.71875 -6.890625 0.71875 -6.921875 C 0.71875 -6.953125 0.726562 -6.984375 0.75 -7.015625 C 0.769531 -7.046875 0.796875 -7.0625 0.828125 -7.0625 C 1.265625 -7.164062 1.863281 -7.21875 2.625 -7.21875 L 4.828125 -3.609375 L 4.875 -3.609375 L 6.984375 -7.21875 C 7.734375 -7.21875 8.328125 -7.164062 8.765625 -7.0625 C 8.835938 -7.050781 8.875 -7 8.875 -6.90625 C 8.875 -6.851562 8.828125 -6.832031 8.734375 -6.84375 C 8.640625 -6.863281 8.515625 -6.875 8.359375 -6.875 C 8.203125 -6.875 8.035156 -6.835938 7.859375 -6.765625 L 8.703125 -0.765625 C 8.742188 -0.453125 8.835938 -0.257812 8.984375 -0.1875 C 9.023438 -0.175781 9.046875 -0.140625 9.046875 -0.078125 C 9.046875 -0.0234375 9.023438 0 8.984375 0 L 7.53125 0 C 7.488281 0 7.46875 -0.0234375 7.46875 -0.078125 C 7.46875 -0.128906 7.472656 -0.160156 7.484375 -0.171875 C 7.503906 -0.179688 7.523438 -0.191406 7.546875 -0.203125 C 7.617188 -0.234375 7.679688 -0.316406 7.734375 -0.453125 C 7.796875 -0.597656 7.828125 -0.695312 7.828125 -0.75 C 7.828125 -0.800781 7.828125 -0.832031 7.828125 -0.84375 L 7.125 -6.0625 L 7.09375 -6.0625 L 4.921875 -2.265625 C 4.910156 -2.253906 4.859375 -2.25 4.765625 -2.25 C 4.671875 -2.257812 4.617188 -2.265625 4.609375 -2.265625 L 2.34375 -6.0625 L 2.3125 -6.0625 L 1.65625 -0.84375 C 1.644531 -0.75 1.664062 -0.640625 1.71875 -0.515625 C 1.769531 -0.390625 1.8125 -0.304688 1.84375 -0.265625 C 1.882812 -0.234375 1.921875 -0.207031 1.953125 -0.1875 C 1.992188 -0.175781 2.015625 -0.140625 2.015625 -0.078125 C 2.015625 -0.0234375 1.992188 0 1.953125 0 L 0.625 0 C 0.582031 0 0.5625 -0.0234375 0.5625 -0.078125 C 0.5625 -0.128906 0.566406 -0.160156 0.578125 -0.171875 C 0.597656 -0.179688 0.617188 -0.191406 0.640625 -0.203125 C 0.773438 -0.265625 0.863281 -0.453125 0.90625 -0.765625 Z M 1.703125 -6.78125 "/></g></g></g><g fill="#000000" fill-opacity="1"><g transform="translate(10.703174, 10.557412)"><g><path d="M 1.421875 -3.5 C 1.234375 -3.382812 1.09375 -3.226562 1 -3.03125 C 0.914062 -2.832031 0.875 -2.582031 0.875 -2.28125 C 0.875 -1.988281 0.957031 -1.691406 1.125 -1.390625 C 1.289062 -1.085938 1.515625 -0.847656 1.796875 -0.671875 C 2.085938 -0.503906 2.375 -0.421875 2.65625 -0.421875 C 2.945312 -0.421875 3.179688 -0.484375 3.359375 -0.609375 C 3.546875 -0.742188 3.6875 -0.910156 3.78125 -1.109375 C 3.875 -1.316406 3.921875 -1.546875 3.921875 -1.796875 C 3.921875 -2.316406 3.753906 -2.757812 3.421875 -3.125 C 3.097656 -3.5 2.65625 -3.6875 2.09375 -3.6875 C 1.84375 -3.6875 1.617188 -3.625 1.421875 -3.5 Z M 0.890625 -0.53125 C 0.691406 -0.71875 0.53125 -0.941406 0.40625 -1.203125 C 0.289062 -1.472656 0.234375 -1.785156 0.234375 -2.140625 C 0.234375 -2.503906 0.328125 -2.851562 0.515625 -3.1875 C 0.703125 -3.53125 0.96875 -3.796875 1.3125 -3.984375 C 1.65625 -4.179688 2.015625 -4.28125 2.390625 -4.28125 C 3.066406 -4.28125 3.601562 -4.066406 4 -3.640625 C 4.40625 -3.210938 4.609375 -2.691406 4.609375 -2.078125 C 4.617188 -1.472656 4.410156 -0.960938 3.984375 -0.546875 C 3.554688 -0.128906 3.019531 0.078125 2.375 0.078125 C 2.09375 0.078125 1.820312 0.0234375 1.5625 -0.078125 C 1.3125 -0.191406 1.085938 -0.34375 0.890625 -0.53125 Z M 0.890625 -0.53125 "/></g></g></g><g fill="#000000" fill-opacity="1"><g transform="translate(15.870069, 10.557412)"><g><path d="M 3.1875 -6.46875 L 3.1875 -6.546875 C 3.1875 -6.554688 3.195312 -6.566406 3.21875 -6.578125 C 3.238281 -6.585938 3.25 -6.59375 3.25 -6.59375 L 4.03125 -7.1875 C 4.050781 -7.195312 4.082031 -7.203125 4.125 -7.203125 C 4.175781 -7.203125 4.210938 -7.191406 4.234375 -7.171875 C 4.265625 -7.160156 4.28125 -7.125 4.28125 -7.0625 C 4.28125 -4.425781 4.285156 -2.382812 4.296875 -0.9375 C 4.304688 -0.882812 4.300781 -0.863281 4.28125 -0.875 C 4.28125 -0.875 4.285156 -0.863281 4.296875 -0.84375 C 4.316406 -0.832031 4.351562 -0.820312 4.40625 -0.8125 C 4.457031 -0.8125 4.492188 -0.804688 4.515625 -0.796875 C 4.535156 -0.785156 4.546875 -0.75 4.546875 -0.6875 C 4.546875 -0.632812 4.535156 -0.601562 4.515625 -0.59375 L 3.796875 0 C 3.785156 0.0078125 3.75 0.015625 3.6875 0.015625 C 3.625 0.015625 3.582031 0.0078125 3.5625 0 C 3.550781 -0.0195312 3.546875 -0.0390625 3.546875 -0.0625 C 3.546875 -0.0820312 3.546875 -0.101562 3.546875 -0.125 C 3.554688 -0.15625 3.554688 -0.191406 3.546875 -0.234375 C 3.535156 -0.273438 3.523438 -0.296875 3.515625 -0.296875 C 3.503906 -0.296875 3.476562 -0.285156 3.4375 -0.265625 L 3.328125 -0.1875 C 3.023438 -0.0078125 2.71875 0.078125 2.40625 0.078125 C 2.101562 0.078125 1.820312 0.0234375 1.5625 -0.078125 C 1.3125 -0.191406 1.085938 -0.34375 0.890625 -0.53125 C 0.691406 -0.71875 0.53125 -0.941406 0.40625 -1.203125 C 0.289062 -1.472656 0.234375 -1.785156 0.234375 -2.140625 C 0.234375 -2.503906 0.328125 -2.851562 0.515625 -3.1875 C 0.703125 -3.53125 0.96875 -3.796875 1.3125 -3.984375 C 1.65625 -4.179688 2.054688 -4.28125 2.515625 -4.28125 C 2.691406 -4.28125 2.878906 -4.234375 3.078125 -4.140625 C 3.273438 -4.054688 3.425781 -3.96875 3.53125 -3.875 L 3.578125 -3.875 C 3.578125 -4.820312 3.570312 -5.566406 3.5625 -6.109375 C 3.5625 -6.203125 3.535156 -6.269531 3.484375 -6.3125 C 3.441406 -6.351562 3.390625 -6.375 3.328125 -6.375 C 3.273438 -6.375 3.242188 -6.382812 3.234375 -6.40625 C 3.203125 -6.414062 3.1875 -6.4375 3.1875 -6.46875 Z M 3.546875 -1 L 3.5625 -2.90625 C 3.425781 -3.15625 3.226562 -3.347656 2.96875 -3.484375 C 2.707031 -3.617188 2.414062 -3.6875 2.09375 -3.6875 C 1.675781 -3.6875 1.335938 -3.46875 1.078125 -3.03125 C 0.941406 -2.800781 0.875 -2.582031 0.875 -2.375 C 0.875 -1.832031 1.039062 -1.390625 1.375 -1.046875 C 1.71875 -0.710938 2.15625 -0.546875 2.6875 -0.546875 C 2.832031 -0.546875 2.984375 -0.585938 3.140625 -0.671875 C 3.304688 -0.765625 3.441406 -0.875 3.546875 -1 Z M 3.546875 -1 "/></g></g></g><g fill="#000000" fill-opacity="1"><g transform="translate(20.988621, 10.557412)"><g><path d="M 3.390625 -3.046875 C 3.210938 -3.546875 2.835938 -3.796875 2.265625 -3.796875 C 2.003906 -3.796875 1.765625 -3.722656 1.546875 -3.578125 C 1.328125 -3.441406 1.160156 -3.265625 1.046875 -3.046875 C 0.929688 -2.835938 0.875 -2.632812 0.875 -2.4375 C 0.875 -2.25 0.878906 -2.160156 0.890625 -2.171875 L 3.375 -3.03125 L 3.375 -3.0625 Z M 0.984375 -1.703125 C 1.109375 -1.359375 1.320312 -1.085938 1.625 -0.890625 C 1.925781 -0.691406 2.265625 -0.59375 2.640625 -0.59375 C 3.128906 -0.59375 3.570312 -0.820312 3.96875 -1.28125 C 4.03125 -1.332031 4.117188 -1.300781 4.234375 -1.1875 C 4.242188 -1.175781 4.242188 -1.160156 4.234375 -1.140625 C 3.898438 -0.679688 3.640625 -0.382812 3.453125 -0.25 C 3.140625 -0.03125 2.78125 0.078125 2.375 0.078125 C 2.09375 0.078125 1.820312 0.0195312 1.5625 -0.09375 C 1.03125 -0.320312 0.648438 -0.695312 0.421875 -1.21875 C 0.296875 -1.476562 0.234375 -1.785156 0.234375 -2.140625 C 0.234375 -2.503906 0.328125 -2.851562 0.515625 -3.1875 C 0.703125 -3.53125 0.96875 -3.796875 1.3125 -3.984375 C 1.65625 -4.179688 2.054688 -4.28125 2.515625 -4.28125 C 3.054688 -4.28125 3.546875 -4.023438 3.984375 -3.515625 C 4.191406 -3.253906 4.296875 -3.050781 4.296875 -2.90625 Z M 0.984375 -1.703125 "/></g></g></g><g fill="#000000" fill-opacity="1"><g transform="translate(25.896222, 10.557412)"><g><path d="M 0.375 -3.453125 L 0.390625 -3.53125 C 0.390625 -3.550781 0.394531 -3.566406 0.40625 -3.578125 C 0.425781 -3.585938 0.4375 -3.59375 0.4375 -3.59375 L 1.234375 -4.171875 C 1.242188 -4.179688 1.273438 -4.1875 1.328125 -4.1875 C 1.378906 -4.1875 1.414062 -4.179688 1.4375 -4.171875 C 1.457031 -4.160156 1.46875 -4.117188 1.46875 -4.046875 L 1.46875 -3.296875 C 1.488281 -3.328125 1.515625 -3.359375 1.546875 -3.390625 C 1.753906 -3.648438 1.972656 -3.851562 2.203125 -4 C 2.429688 -4.144531 2.691406 -4.21875 2.984375 -4.21875 C 3.078125 -4.21875 3.128906 -4.207031 3.140625 -4.1875 C 3.191406 -4.050781 3.234375 -3.921875 3.265625 -3.796875 L 3.390625 -3.28125 C 3.398438 -3.25 3.378906 -3.21875 3.328125 -3.1875 C 3.273438 -3.15625 3.234375 -3.140625 3.203125 -3.140625 C 3.171875 -3.148438 3.140625 -3.179688 3.109375 -3.234375 L 3.0625 -3.3125 C 2.90625 -3.457031 2.722656 -3.515625 2.515625 -3.484375 C 2.304688 -3.453125 2.109375 -3.375 1.921875 -3.25 C 1.734375 -3.125 1.59375 -2.992188 1.5 -2.859375 C 1.5 -2.847656 1.492188 -2.832031 1.484375 -2.8125 C 1.472656 -2.800781 1.46875 -2.789062 1.46875 -2.78125 L 1.46875 -0.765625 C 1.46875 -0.753906 1.46875 -0.722656 1.46875 -0.671875 C 1.46875 -0.628906 1.46875 -0.597656 1.46875 -0.578125 C 1.488281 -0.390625 1.550781 -0.273438 1.65625 -0.234375 C 1.757812 -0.191406 1.8125 -0.15625 1.8125 -0.125 C 1.8125 -0.0390625 1.796875 0 1.765625 0 L 0.453125 0 C 0.421875 0 0.40625 -0.0234375 0.40625 -0.078125 C 0.40625 -0.128906 0.414062 -0.160156 0.4375 -0.171875 C 0.457031 -0.191406 0.484375 -0.207031 0.515625 -0.21875 C 0.554688 -0.238281 0.585938 -0.257812 0.609375 -0.28125 C 0.648438 -0.320312 0.679688 -0.367188 0.703125 -0.421875 C 0.734375 -0.484375 0.75 -0.550781 0.75 -0.625 C 0.75 -0.707031 0.75 -0.753906 0.75 -0.765625 L 0.75 -3.09375 C 0.75 -3.1875 0.722656 -3.253906 0.671875 -3.296875 C 0.628906 -3.335938 0.582031 -3.359375 0.53125 -3.359375 C 0.476562 -3.359375 0.441406 -3.367188 0.421875 -3.390625 C 0.390625 -3.410156 0.375 -3.429688 0.375 -3.453125 Z M 0.375 -3.453125 "/></g></g></g><g fill="#000000" fill-opacity="1"><g transform="translate(29.683145, 10.557412)"><g><path d="M 0.453125 0 C 0.410156 0 0.390625 -0.0234375 0.390625 -0.078125 C 0.390625 -0.128906 0.398438 -0.160156 0.421875 -0.171875 C 0.453125 -0.191406 0.484375 -0.207031 0.515625 -0.21875 C 0.554688 -0.238281 0.585938 -0.257812 0.609375 -0.28125 C 0.703125 -0.363281 0.742188 -0.460938 0.734375 -0.578125 C 0.734375 -0.691406 0.734375 -0.753906 0.734375 -0.765625 L 0.734375 -3.09375 C 0.734375 -3.1875 0.707031 -3.253906 0.65625 -3.296875 C 0.613281 -3.335938 0.566406 -3.359375 0.515625 -3.359375 C 0.460938 -3.359375 0.425781 -3.363281 0.40625 -3.375 C 0.394531 -3.394531 0.382812 -3.410156 0.375 -3.421875 C 0.375 -3.429688 0.375 -3.441406 0.375 -3.453125 C 0.375 -3.460938 0.375 -3.472656 0.375 -3.484375 C 0.375 -3.503906 0.375 -3.519531 0.375 -3.53125 C 0.375 -3.539062 0.375 -3.546875 0.375 -3.546875 C 0.382812 -3.554688 0.394531 -3.566406 0.40625 -3.578125 C 0.414062 -3.585938 0.425781 -3.59375 0.4375 -3.59375 L 1.21875 -4.171875 C 1.226562 -4.179688 1.257812 -4.1875 1.3125 -4.1875 C 1.363281 -4.1875 1.398438 -4.179688 1.421875 -4.171875 C 1.453125 -4.160156 1.46875 -4.117188 1.46875 -4.046875 L 1.46875 -3.734375 L 1.6875 -3.859375 L 1.828125 -3.921875 C 2.234375 -4.128906 2.613281 -4.234375 2.96875 -4.234375 C 3.320312 -4.234375 3.671875 -4.109375 4.015625 -3.859375 C 4.171875 -3.742188 4.296875 -3.601562 4.390625 -3.4375 C 4.492188 -3.269531 4.546875 -3.101562 4.546875 -2.9375 L 4.546875 -0.578125 C 4.546875 -0.515625 4.5625 -0.445312 4.59375 -0.375 C 4.625 -0.300781 4.675781 -0.25 4.75 -0.21875 C 4.832031 -0.1875 4.875 -0.15625 4.875 -0.125 C 4.875 -0.0390625 4.859375 0 4.828125 0 L 3.53125 0 C 3.5 0 3.484375 -0.0234375 3.484375 -0.078125 C 3.484375 -0.128906 3.492188 -0.160156 3.515625 -0.171875 C 3.546875 -0.191406 3.578125 -0.207031 3.609375 -0.21875 C 3.648438 -0.238281 3.679688 -0.257812 3.703125 -0.28125 C 3.722656 -0.300781 3.742188 -0.328125 3.765625 -0.359375 C 3.785156 -0.390625 3.796875 -0.421875 3.796875 -0.453125 C 3.804688 -0.492188 3.8125 -0.523438 3.8125 -0.546875 C 3.8125 -0.566406 3.8125 -0.601562 3.8125 -0.65625 C 3.8125 -0.71875 3.8125 -0.753906 3.8125 -0.765625 L 3.8125 -2.828125 C 3.8125 -2.992188 3.753906 -3.144531 3.640625 -3.28125 C 3.410156 -3.53125 3.09375 -3.65625 2.6875 -3.65625 C 2.28125 -3.65625 1.875 -3.550781 1.46875 -3.34375 L 1.46875 -0.578125 C 1.46875 -0.515625 1.484375 -0.445312 1.515625 -0.375 C 1.546875 -0.300781 1.601562 -0.25 1.6875 -0.21875 C 1.769531 -0.1875 1.8125 -0.15625 1.8125 -0.125 C 1.8125 -0.0390625 1.789062 0 1.75 0 Z M 0.453125 0 "/></g></g></g><g fill="#000000" fill-opacity="1"><g transform="translate(35.162072, 10.557412)"><g/></g></g><g fill="#000000" fill-opacity="1"><g transform="translate(37.727236, 10.557412)"><g><path d="M 4.0625 -0.5 C 4.71875 -0.5 5.304688 -0.644531 5.828125 -0.9375 C 6.359375 -1.238281 6.789062 -1.644531 7.125 -2.15625 C 7.164062 -2.21875 7.191406 -2.234375 7.203125 -2.203125 C 7.222656 -2.179688 7.25 -2.148438 7.28125 -2.109375 L 7.421875 -1.921875 C 7.460938 -1.847656 7.476562 -1.800781 7.46875 -1.78125 C 7.289062 -1.425781 6.992188 -1.078125 6.578125 -0.734375 C 5.816406 -0.0859375 4.976562 0.234375 4.0625 0.234375 C 3.519531 0.234375 3.015625 0.128906 2.546875 -0.078125 C 2.085938 -0.285156 1.695312 -0.5625 1.375 -0.90625 C 1.0625 -1.25 0.8125 -1.65625 0.625 -2.125 C 0.445312 -2.59375 0.359375 -3.070312 0.359375 -3.5625 C 0.359375 -4.0625 0.453125 -4.539062 0.640625 -5 C 0.835938 -5.457031 1.101562 -5.851562 1.4375 -6.1875 C 1.769531 -6.519531 2.160156 -6.785156 2.609375 -6.984375 C 3.066406 -7.179688 3.53125 -7.28125 4 -7.28125 C 4.550781 -7.28125 5.101562 -7.175781 5.65625 -6.96875 L 5.859375 -6.890625 C 5.890625 -6.878906 5.929688 -6.890625 5.984375 -6.921875 C 6.035156 -6.953125 6.085938 -6.96875 6.140625 -6.96875 C 6.203125 -6.96875 6.25 -6.941406 6.28125 -6.890625 C 6.300781 -6.878906 6.304688 -6.847656 6.296875 -6.796875 C 6.296875 -6.710938 6.332031 -6.519531 6.40625 -6.21875 L 6.515625 -5.734375 C 6.546875 -5.609375 6.5625 -5.523438 6.5625 -5.484375 C 6.5625 -5.472656 6.523438 -5.445312 6.453125 -5.40625 C 6.378906 -5.375 6.332031 -5.367188 6.3125 -5.390625 C 6.070312 -5.804688 5.769531 -6.09375 5.40625 -6.25 C 5.039062 -6.414062 4.582031 -6.5 4.03125 -6.5 C 3.476562 -6.5 2.976562 -6.375 2.53125 -6.125 C 2.09375 -5.875 1.753906 -5.523438 1.515625 -5.078125 C 1.273438 -4.640625 1.15625 -4.140625 1.15625 -3.578125 C 1.15625 -3.210938 1.238281 -2.84375 1.40625 -2.46875 C 1.582031 -2.09375 1.800781 -1.757812 2.0625 -1.46875 C 2.332031 -1.1875 2.644531 -0.953125 3 -0.765625 C 3.351562 -0.585938 3.707031 -0.5 4.0625 -0.5 Z M 4.0625 -0.5 "/></g></g></g><g fill="#000000" fill-opacity="1"><g transform="translate(45.807894, 10.557412)"><g><path d="M 0.40625 -6.46875 L 0.421875 -6.546875 C 0.421875 -6.554688 0.425781 -6.566406 0.4375 -6.578125 C 0.457031 -6.585938 0.46875 -6.59375 0.46875 -6.59375 L 1.265625 -7.1875 C 1.273438 -7.195312 1.289062 -7.203125 1.3125 -7.203125 C 1.4375 -7.203125 1.5 -7.15625 1.5 -7.0625 L 1.5 -0.765625 C 1.5 -0.742188 1.5 -0.710938 1.5 -0.671875 C 1.5 -0.628906 1.5 -0.597656 1.5 -0.578125 C 1.507812 -0.390625 1.566406 -0.273438 1.671875 -0.234375 C 1.785156 -0.191406 1.84375 -0.15625 1.84375 -0.125 C 1.84375 -0.0390625 1.820312 0 1.78125 0 L 0.484375 0 C 0.453125 0 0.4375 -0.0234375 0.4375 -0.078125 C 0.4375 -0.128906 0.445312 -0.160156 0.46875 -0.171875 C 0.488281 -0.191406 0.515625 -0.207031 0.546875 -0.21875 C 0.585938 -0.238281 0.617188 -0.257812 0.640625 -0.28125 C 0.671875 -0.300781 0.691406 -0.320312 0.703125 -0.34375 C 0.722656 -0.375 0.738281 -0.398438 0.75 -0.421875 C 0.757812 -0.441406 0.765625 -0.46875 0.765625 -0.5 C 0.773438 -0.539062 0.78125 -0.566406 0.78125 -0.578125 L 0.78125 -6.109375 C 0.78125 -6.203125 0.753906 -6.269531 0.703125 -6.3125 C 0.660156 -6.351562 0.613281 -6.375 0.5625 -6.375 C 0.507812 -6.375 0.472656 -6.382812 0.453125 -6.40625 C 0.421875 -6.414062 0.40625 -6.4375 0.40625 -6.46875 Z M 0.40625 -6.46875 "/></g></g></g><g fill="#000000" fill-opacity="1"><g transform="translate(48.452165, 10.557412)"><g><path d="M 1.421875 -3.5 C 1.234375 -3.382812 1.09375 -3.226562 1 -3.03125 C 0.914062 -2.832031 0.875 -2.582031 0.875 -2.28125 C 0.875 -1.988281 0.957031 -1.691406 1.125 -1.390625 C 1.289062 -1.085938 1.515625 -0.847656 1.796875 -0.671875 C 2.085938 -0.503906 2.375 -0.421875 2.65625 -0.421875 C 2.945312 -0.421875 3.179688 -0.484375 3.359375 -0.609375 C 3.546875 -0.742188 3.6875 -0.910156 3.78125 -1.109375 C 3.875 -1.316406 3.921875 -1.546875 3.921875 -1.796875 C 3.921875 -2.316406 3.753906 -2.757812 3.421875 -3.125 C 3.097656 -3.5 2.65625 -3.6875 2.09375 -3.6875 C 1.84375 -3.6875 1.617188 -3.625 1.421875 -3.5 Z M 0.890625 -0.53125 C 0.691406 -0.71875 0.53125 -0.941406 0.40625 -1.203125 C 0.289062 -1.472656 0.234375 -1.785156 0.234375 -2.140625 C 0.234375 -2.503906 0.328125 -2.851562 0.515625 -3.1875 C 0.703125 -3.53125 0.96875 -3.796875 1.3125 -3.984375 C 1.65625 -4.179688 2.015625 -4.28125 2.390625 -4.28125 C 3.066406 -4.28125 3.601562 -4.066406 4 -3.640625 C 4.40625 -3.210938 4.609375 -2.691406 4.609375 -2.078125 C 4.617188 -1.472656 4.410156 -0.960938 3.984375 -0.546875 C 3.554688 -0.128906 3.019531 0.078125 2.375 0.078125 C 2.09375 0.078125 1.820312 0.0234375 1.5625 -0.078125 C 1.3125 -0.191406 1.085938 -0.34375 0.890625 -0.53125 Z M 0.890625 -0.53125 "/></g></g></g><g fill="#000000" fill-opacity="1"><g transform="translate(53.61906, 10.557412)"><g><path d="M 0.953125 -4.96875 C 0.960938 -5.03125 1.015625 -5.0625 1.109375 -5.0625 C 1.210938 -5.0625 1.265625 -5.03125 1.265625 -4.96875 L 1.265625 -4.1875 L 2.046875 -4.1875 C 2.191406 -4.1875 2.265625 -4.164062 2.265625 -4.125 L 2.265625 -3.75 C 2.265625 -3.707031 2.191406 -3.6875 2.046875 -3.6875 L 1.265625 -3.6875 L 1.265625 -0.953125 C 1.265625 -0.609375 1.367188 -0.414062 1.578125 -0.375 C 1.734375 -0.34375 1.894531 -0.398438 2.0625 -0.546875 C 2.125 -0.609375 2.164062 -0.625 2.1875 -0.59375 C 2.21875 -0.5625 2.238281 -0.535156 2.25 -0.515625 C 2.269531 -0.503906 2.28125 -0.488281 2.28125 -0.46875 C 2.28125 -0.445312 2.28125 -0.4375 2.28125 -0.4375 C 2.28125 -0.414062 2.265625 -0.390625 2.234375 -0.359375 L 2.140625 -0.28125 C 1.828125 -0.0078125 1.523438 0.109375 1.234375 0.078125 C 0.953125 0.0546875 0.753906 -0.109375 0.640625 -0.421875 C 0.578125 -0.585938 0.546875 -0.796875 0.546875 -1.046875 L 0.546875 -3.6875 L 0.34375 -3.6875 C 0.1875 -3.6875 0.109375 -3.707031 0.109375 -3.75 L 0.109375 -4.125 C 0.109375 -4.164062 0.171875 -4.1875 0.296875 -4.1875 C 0.515625 -4.1875 0.671875 -4.257812 0.765625 -4.40625 C 0.859375 -4.5625 0.921875 -4.75 0.953125 -4.96875 Z M 0.953125 -4.96875 "/></g></g></g><g fill="#000000" fill-opacity="1"><g transform="translate(56.272121, 10.557412)"><g><path d="M 0.40625 -6.46875 L 0.421875 -6.546875 C 0.421875 -6.554688 0.4375 -6.570312 0.46875 -6.59375 L 1.265625 -7.1875 C 1.273438 -7.195312 1.304688 -7.203125 1.359375 -7.203125 C 1.410156 -7.203125 1.445312 -7.191406 1.46875 -7.171875 C 1.488281 -7.160156 1.5 -7.125 1.5 -7.0625 L 1.5 -3.734375 C 1.59375 -3.785156 1.664062 -3.828125 1.71875 -3.859375 L 1.859375 -3.921875 C 2.273438 -4.128906 2.65625 -4.234375 3 -4.234375 C 3.351562 -4.234375 3.703125 -4.109375 4.046875 -3.859375 C 4.203125 -3.742188 4.328125 -3.601562 4.421875 -3.4375 C 4.523438 -3.269531 4.578125 -3.101562 4.578125 -2.9375 L 4.578125 -0.765625 C 4.578125 -0.753906 4.578125 -0.722656 4.578125 -0.671875 C 4.578125 -0.628906 4.578125 -0.597656 4.578125 -0.578125 C 4.597656 -0.390625 4.660156 -0.273438 4.765625 -0.234375 C 4.867188 -0.191406 4.921875 -0.15625 4.921875 -0.125 C 4.921875 -0.0390625 4.898438 0 4.859375 0 L 3.5625 0 C 3.53125 0 3.515625 -0.0234375 3.515625 -0.078125 C 3.515625 -0.128906 3.523438 -0.160156 3.546875 -0.171875 C 3.566406 -0.191406 3.597656 -0.207031 3.640625 -0.21875 C 3.679688 -0.238281 3.710938 -0.257812 3.734375 -0.28125 C 3.753906 -0.300781 3.773438 -0.328125 3.796875 -0.359375 C 3.816406 -0.390625 3.828125 -0.421875 3.828125 -0.453125 C 3.835938 -0.492188 3.84375 -0.523438 3.84375 -0.546875 C 3.84375 -0.566406 3.84375 -0.601562 3.84375 -0.65625 C 3.84375 -0.71875 3.84375 -0.753906 3.84375 -0.765625 L 3.84375 -2.828125 C 3.84375 -3.003906 3.785156 -3.15625 3.671875 -3.28125 C 3.441406 -3.53125 3.125 -3.65625 2.71875 -3.65625 C 2.3125 -3.65625 1.90625 -3.550781 1.5 -3.34375 L 1.5 -0.765625 C 1.5 -0.753906 1.5 -0.722656 1.5 -0.671875 C 1.5 -0.628906 1.5 -0.597656 1.5 -0.578125 C 1.519531 -0.390625 1.582031 -0.273438 1.6875 -0.234375 C 1.789062 -0.191406 1.84375 -0.15625 1.84375 -0.125 C 1.84375 -0.0390625 1.820312 0 1.78125 0 L 0.484375 0 C 0.453125 0 0.4375 -0.0234375 0.4375 -0.078125 C 0.4375 -0.128906 0.445312 -0.160156 0.46875 -0.171875 C 0.488281 -0.191406 0.515625 -0.207031 0.546875 -0.21875 C 0.585938 -0.238281 0.617188 -0.257812 0.640625 -0.28125 C 0.734375 -0.363281 0.78125 -0.460938 0.78125 -0.578125 C 0.78125 -0.691406 0.78125 -0.753906 0.78125 -0.765625 L 0.78125 -6.109375 C 0.78125 -6.203125 0.753906 -6.269531 0.703125 -6.3125 C 0.660156 -6.351562 0.613281 -6.375 0.5625 -6.375 C 0.507812 -6.375 0.472656 -6.382812 0.453125 -6.40625 C 0.421875 -6.414062 0.40625 -6.4375 0.40625 -6.46875 Z M 0.40625 -6.46875 "/></g></g></g><g fill="#000000" fill-opacity="1"><g transform="translate(61.852129, 10.557412)"><g><path d="M 1.46875 -6.375 L 1.46875 -6.015625 C 1.46875 -5.992188 1.457031 -5.972656 1.4375 -5.953125 C 1.425781 -5.941406 1.363281 -5.914062 1.25 -5.875 C 1.144531 -5.832031 1.066406 -5.796875 1.015625 -5.765625 C 0.960938 -5.742188 0.914062 -5.726562 0.875 -5.71875 C 0.84375 -5.707031 0.820312 -5.707031 0.8125 -5.71875 C 0.800781 -5.726562 0.796875 -5.785156 0.796875 -5.890625 L 0.796875 -6.3125 C 0.796875 -6.3125 0.796875 -6.320312 0.796875 -6.34375 C 0.796875 -6.363281 0.796875 -6.375 0.796875 -6.375 C 0.796875 -6.382812 0.796875 -6.394531 0.796875 -6.40625 C 0.796875 -6.414062 0.800781 -6.425781 0.8125 -6.4375 C 0.832031 -6.445312 0.894531 -6.472656 1 -6.515625 C 1.113281 -6.554688 1.195312 -6.59375 1.25 -6.625 C 1.363281 -6.675781 1.425781 -6.695312 1.4375 -6.6875 C 1.457031 -6.675781 1.46875 -6.570312 1.46875 -6.375 Z M 0.46875 0 C 0.425781 0 0.40625 -0.0234375 0.40625 -0.078125 C 0.40625 -0.128906 0.414062 -0.160156 0.4375 -0.171875 C 0.46875 -0.191406 0.5 -0.207031 0.53125 -0.21875 C 0.675781 -0.28125 0.75 -0.421875 0.75 -0.640625 L 0.75 -3.09375 C 0.75 -3.1875 0.722656 -3.253906 0.671875 -3.296875 C 0.628906 -3.335938 0.582031 -3.359375 0.53125 -3.359375 C 0.476562 -3.359375 0.441406 -3.363281 0.421875 -3.375 C 0.398438 -3.394531 0.390625 -3.425781 0.390625 -3.46875 C 0.390625 -3.519531 0.390625 -3.546875 0.390625 -3.546875 C 0.398438 -3.554688 0.410156 -3.566406 0.421875 -3.578125 C 0.429688 -3.585938 0.441406 -3.59375 0.453125 -3.59375 L 1.234375 -4.171875 C 1.253906 -4.191406 1.269531 -4.195312 1.28125 -4.1875 C 1.300781 -4.175781 1.335938 -4.160156 1.390625 -4.140625 C 1.453125 -4.128906 1.484375 -4.097656 1.484375 -4.046875 L 1.484375 -0.625 C 1.484375 -0.414062 1.554688 -0.28125 1.703125 -0.21875 C 1.785156 -0.1875 1.828125 -0.15625 1.828125 -0.125 C 1.828125 -0.0390625 1.804688 0 1.765625 0 Z M 0.46875 0 "/></g></g></g><g fill="#000000" fill-opacity="1"><g transform="translate(64.395319, 10.557412)"><g><path d="M 0.453125 0 C 0.410156 0 0.390625 -0.0234375 0.390625 -0.078125 C 0.390625 -0.128906 0.398438 -0.160156 0.421875 -0.171875 C 0.453125 -0.191406 0.484375 -0.207031 0.515625 -0.21875 C 0.554688 -0.238281 0.585938 -0.257812 0.609375 -0.28125 C 0.703125 -0.363281 0.742188 -0.460938 0.734375 -0.578125 C 0.734375 -0.691406 0.734375 -0.753906 0.734375 -0.765625 L 0.734375 -3.09375 C 0.734375 -3.1875 0.707031 -3.253906 0.65625 -3.296875 C 0.613281 -3.335938 0.566406 -3.359375 0.515625 -3.359375 C 0.460938 -3.359375 0.425781 -3.363281 0.40625 -3.375 C 0.394531 -3.394531 0.382812 -3.410156 0.375 -3.421875 C 0.375 -3.429688 0.375 -3.441406 0.375 -3.453125 C 0.375 -3.460938 0.375 -3.472656 0.375 -3.484375 C 0.375 -3.503906 0.375 -3.519531 0.375 -3.53125 C 0.375 -3.539062 0.375 -3.546875 0.375 -3.546875 C 0.382812 -3.554688 0.394531 -3.566406 0.40625 -3.578125 C 0.414062 -3.585938 0.425781 -3.59375 0.4375 -3.59375 L 1.21875 -4.171875 C 1.226562 -4.179688 1.257812 -4.1875 1.3125 -4.1875 C 1.363281 -4.1875 1.398438 -4.179688 1.421875 -4.171875 C 1.453125 -4.160156 1.46875 -4.117188 1.46875 -4.046875 L 1.46875 -3.734375 L 1.6875 -3.859375 L 1.828125 -3.921875 C 2.234375 -4.128906 2.613281 -4.234375 2.96875 -4.234375 C 3.320312 -4.234375 3.671875 -4.109375 4.015625 -3.859375 C 4.171875 -3.742188 4.296875 -3.601562 4.390625 -3.4375 C 4.492188 -3.269531 4.546875 -3.101562 4.546875 -2.9375 L 4.546875 -0.578125 C 4.546875 -0.515625 4.5625 -0.445312 4.59375 -0.375 C 4.625 -0.300781 4.675781 -0.25 4.75 -0.21875 C 4.832031 -0.1875 4.875 -0.15625 4.875 -0.125 C 4.875 -0.0390625 4.859375 0 4.828125 0 L 3.53125 0 C 3.5 0 3.484375 -0.0234375 3.484375 -0.078125 C 3.484375 -0.128906 3.492188 -0.160156 3.515625 -0.171875 C 3.546875 -0.191406 3.578125 -0.207031 3.609375 -0.21875 C 3.648438 -0.238281 3.679688 -0.257812 3.703125 -0.28125 C 3.722656 -0.300781 3.742188 -0.328125 3.765625 -0.359375 C 3.785156 -0.390625 3.796875 -0.421875 3.796875 -0.453125 C 3.804688 -0.492188 3.8125 -0.523438 3.8125 -0.546875 C 3.8125 -0.566406 3.8125 -0.601562 3.8125 -0.65625 C 3.8125 -0.71875 3.8125 -0.753906 3.8125 -0.765625 L 3.8125 -2.828125 C 3.8125 -2.992188 3.753906 -3.144531 3.640625 -3.28125 C 3.410156 -3.53125 3.09375 -3.65625 2.6875 -3.65625 C 2.28125 -3.65625 1.875 -3.550781 1.46875 -3.34375 L 1.46875 -0.578125 C 1.46875 -0.515625 1.484375 -0.445312 1.515625 -0.375 C 1.546875 -0.300781 1.601562 -0.25 1.6875 -0.21875 C 1.769531 -0.1875 1.8125 -0.15625 1.8125 -0.125 C 1.8125 -0.0390625 1.789062 0 1.75 0 Z M 0.453125 0 "/></g></g></g><g fill="#000000" fill-opacity="1"><g transform="translate(69.874246, 10.557412)"><g><path d="M 1.28125 -1.171875 C 1.1875 -1.140625 1.203125 -1.078125 1.328125 -0.984375 C 1.460938 -0.898438 1.664062 -0.828125 1.9375 -0.765625 C 2.21875 -0.703125 2.453125 -0.65625 2.640625 -0.625 C 2.835938 -0.59375 3.039062 -0.546875 3.25 -0.484375 C 3.46875 -0.421875 3.648438 -0.347656 3.796875 -0.265625 C 3.953125 -0.191406 4.082031 -0.0859375 4.1875 0.046875 C 4.289062 0.191406 4.34375 0.359375 4.34375 0.546875 C 4.34375 0.734375 4.296875 0.90625 4.203125 1.0625 C 3.921875 1.5625 3.242188 1.8125 2.171875 1.8125 C 1.679688 1.8125 1.238281 1.691406 0.84375 1.453125 C 0.457031 1.222656 0.222656 0.894531 0.140625 0.46875 L 0.140625 0.40625 C 0.140625 0.382812 0.140625 0.367188 0.140625 0.359375 L 0.890625 -0.296875 C 0.921875 -0.296875 0.953125 -0.273438 0.984375 -0.234375 C 1.023438 -0.191406 1.046875 -0.160156 1.046875 -0.140625 C 1.046875 -0.117188 1.019531 -0.0820312 0.96875 -0.03125 C 0.925781 0.0078125 0.90625 0.132812 0.90625 0.34375 C 0.90625 0.5625 0.992188 0.753906 1.171875 0.921875 C 1.347656 1.097656 1.554688 1.21875 1.796875 1.28125 C 2.316406 1.363281 2.765625 1.335938 3.140625 1.203125 C 3.265625 1.148438 3.367188 1.070312 3.453125 0.96875 C 3.535156 0.863281 3.578125 0.753906 3.578125 0.640625 C 3.578125 0.523438 3.519531 0.429688 3.40625 0.359375 C 3.238281 0.265625 2.832031 0.144531 2.1875 0 C 1.539062 -0.15625 1.0625 -0.300781 0.75 -0.4375 C 0.675781 -0.46875 0.640625 -0.488281 0.640625 -0.5 C 0.640625 -0.519531 0.679688 -0.613281 0.765625 -0.78125 C 0.859375 -0.945312 0.960938 -1.113281 1.078125 -1.28125 C 0.878906 -1.425781 0.71875 -1.609375 0.59375 -1.828125 C 0.46875 -2.054688 0.40625 -2.296875 0.40625 -2.546875 C 0.40625 -3.046875 0.5625 -3.445312 0.875 -3.75 C 1.1875 -4.0625 1.570312 -4.21875 2.03125 -4.21875 C 2.488281 -4.21875 2.867188 -4.070312 3.171875 -3.78125 L 3.1875 -3.796875 C 3.300781 -4.035156 3.359375 -4.160156 3.359375 -4.171875 C 3.367188 -4.179688 3.378906 -4.1875 3.390625 -4.1875 L 4.125 -4.1875 C 4.144531 -4.1875 4.164062 -4.164062 4.1875 -4.125 C 4.207031 -4.082031 4.210938 -4.054688 4.203125 -4.046875 C 4.128906 -4.015625 4.046875 -3.976562 3.953125 -3.9375 C 3.753906 -3.851562 3.585938 -3.675781 3.453125 -3.40625 C 3.585938 -3.15625 3.65625 -2.890625 3.65625 -2.609375 C 3.65625 -2.148438 3.5 -1.765625 3.1875 -1.453125 C 2.875 -1.140625 2.472656 -0.984375 1.984375 -0.984375 C 1.742188 -0.984375 1.507812 -1.046875 1.28125 -1.171875 Z M 1.78125 -3.6875 C 1.21875 -3.6875 0.9375 -3.378906 0.9375 -2.765625 C 0.9375 -2.410156 1.070312 -2.109375 1.34375 -1.859375 C 1.613281 -1.617188 1.90625 -1.5 2.21875 -1.5 C 2.539062 -1.5 2.765625 -1.566406 2.890625 -1.703125 C 3.023438 -1.847656 3.09375 -2.085938 3.09375 -2.421875 C 3.09375 -2.753906 2.96875 -3.046875 2.71875 -3.296875 C 2.46875 -3.554688 2.15625 -3.6875 1.78125 -3.6875 Z M 1.78125 -3.6875 "/></g></g></g><g fill="#000000" fill-opacity="1"><g transform="translate(74.623634, 10.557412)"><g/></g></g><g fill="#000000" fill-opacity="1"><g transform="translate(77.188798, 10.557412)"><g><path d="M 1.515625 -0.046875 C 1.429688 -0.0664062 1.335938 -0.09375 1.234375 -0.125 C 1.128906 -0.164062 1.0625 -0.1875 1.03125 -0.1875 L 0.96875 -0.1875 C 0.863281 -0.1875 0.785156 -0.128906 0.734375 -0.015625 C 0.734375 -0.00390625 0.734375 0 0.734375 0 L 0.59375 0 C 0.582031 0 0.570312 -0.00390625 0.5625 -0.015625 L 0.1875 -1.3125 C 0.175781 -1.375 0.222656 -1.40625 0.328125 -1.40625 C 0.367188 -1.40625 0.394531 -1.394531 0.40625 -1.375 C 0.414062 -1.363281 0.425781 -1.351562 0.4375 -1.34375 C 0.445312 -1.34375 0.460938 -1.328125 0.484375 -1.296875 C 0.867188 -0.816406 1.429688 -0.578125 2.171875 -0.578125 C 2.566406 -0.578125 2.894531 -0.679688 3.15625 -0.890625 C 3.414062 -1.097656 3.546875 -1.398438 3.546875 -1.796875 C 3.546875 -2.066406 3.5 -2.269531 3.40625 -2.40625 C 3.320312 -2.539062 3.253906 -2.640625 3.203125 -2.703125 C 3.085938 -2.847656 2.804688 -3.046875 2.359375 -3.296875 C 1.910156 -3.546875 1.550781 -3.769531 1.28125 -3.96875 C 0.582031 -4.476562 0.234375 -5 0.234375 -5.53125 C 0.234375 -6.070312 0.398438 -6.488281 0.734375 -6.78125 C 1.066406 -7.070312 1.507812 -7.21875 2.0625 -7.21875 C 2.375 -7.21875 2.703125 -7.132812 3.046875 -6.96875 C 3.210938 -6.882812 3.332031 -6.828125 3.40625 -6.796875 C 3.476562 -6.773438 3.53125 -6.789062 3.5625 -6.84375 C 3.59375 -6.90625 3.613281 -6.9375 3.625 -6.9375 C 3.75 -6.957031 3.8125 -6.9375 3.8125 -6.875 L 3.953125 -5.46875 C 3.953125 -5.445312 3.882812 -5.4375 3.75 -5.4375 C 3.726562 -5.4375 3.707031 -5.460938 3.6875 -5.515625 C 3.601562 -5.804688 3.394531 -6.050781 3.0625 -6.25 C 2.726562 -6.445312 2.394531 -6.546875 2.0625 -6.546875 C 1.34375 -6.546875 0.984375 -6.253906 0.984375 -5.671875 C 0.984375 -5.242188 1.367188 -4.820312 2.140625 -4.40625 L 2.984375 -3.953125 C 3.492188 -3.671875 3.847656 -3.363281 4.046875 -3.03125 C 4.253906 -2.707031 4.359375 -2.359375 4.359375 -1.984375 L 4.359375 -1.9375 C 4.285156 -1.425781 4.203125 -1.082031 4.109375 -0.90625 C 3.929688 -0.601562 3.6875 -0.363281 3.375 -0.1875 C 3.0625 -0.0078125 2.707031 0.078125 2.3125 0.078125 C 2.09375 0.078125 1.910156 0.0546875 1.765625 0.015625 Z M 1.515625 -0.046875 "/></g></g></g><g fill="#000000" fill-opacity="1"><g transform="translate(82.043661, 10.557412)"><g><path d="M 0.953125 -4.96875 C 0.960938 -5.03125 1.015625 -5.0625 1.109375 -5.0625 C 1.210938 -5.0625 1.265625 -5.03125 1.265625 -4.96875 L 1.265625 -4.1875 L 2.046875 -4.1875 C 2.191406 -4.1875 2.265625 -4.164062 2.265625 -4.125 L 2.265625 -3.75 C 2.265625 -3.707031 2.191406 -3.6875 2.046875 -3.6875 L 1.265625 -3.6875 L 1.265625 -0.953125 C 1.265625 -0.609375 1.367188 -0.414062 1.578125 -0.375 C 1.734375 -0.34375 1.894531 -0.398438 2.0625 -0.546875 C 2.125 -0.609375 2.164062 -0.625 2.1875 -0.59375 C 2.21875 -0.5625 2.238281 -0.535156 2.25 -0.515625 C 2.269531 -0.503906 2.28125 -0.488281 2.28125 -0.46875 C 2.28125 -0.445312 2.28125 -0.4375 2.28125 -0.4375 C 2.28125 -0.414062 2.265625 -0.390625 2.234375 -0.359375 L 2.140625 -0.28125 C 1.828125 -0.0078125 1.523438 0.109375 1.234375 0.078125 C 0.953125 0.0546875 0.753906 -0.109375 0.640625 -0.421875 C 0.578125 -0.585938 0.546875 -0.796875 0.546875 -1.046875 L 0.546875 -3.6875 L 0.34375 -3.6875 C 0.1875 -3.6875 0.109375 -3.707031 0.109375 -3.75 L 0.109375 -4.125 C 0.109375 -4.164062 0.171875 -4.1875 0.296875 -4.1875 C 0.515625 -4.1875 0.671875 -4.257812 0.765625 -4.40625 C 0.859375 -4.5625 0.921875 -4.75 0.953125 -4.96875 Z M 0.953125 -4.96875 "/></g></g></g><g fill="#000000" fill-opacity="1"><g transform="translate(84.696722, 10.557412)"><g><path d="M 1.421875 -3.5 C 1.234375 -3.382812 1.09375 -3.226562 1 -3.03125 C 0.914062 -2.832031 0.875 -2.582031 0.875 -2.28125 C 0.875 -1.988281 0.957031 -1.691406 1.125 -1.390625 C 1.289062 -1.085938 1.515625 -0.847656 1.796875 -0.671875 C 2.085938 -0.503906 2.375 -0.421875 2.65625 -0.421875 C 2.945312 -0.421875 3.179688 -0.484375 3.359375 -0.609375 C 3.546875 -0.742188 3.6875 -0.910156 3.78125 -1.109375 C 3.875 -1.316406 3.921875 -1.546875 3.921875 -1.796875 C 3.921875 -2.316406 3.753906 -2.757812 3.421875 -3.125 C 3.097656 -3.5 2.65625 -3.6875 2.09375 -3.6875 C 1.84375 -3.6875 1.617188 -3.625 1.421875 -3.5 Z M 0.890625 -0.53125 C 0.691406 -0.71875 0.53125 -0.941406 0.40625 -1.203125 C 0.289062 -1.472656 0.234375 -1.785156 0.234375 -2.140625 C 0.234375 -2.503906 0.328125 -2.851562 0.515625 -3.1875 C 0.703125 -3.53125 0.96875 -3.796875 1.3125 -3.984375 C 1.65625 -4.179688 2.015625 -4.28125 2.390625 -4.28125 C 3.066406 -4.28125 3.601562 -4.066406 4 -3.640625 C 4.40625 -3.210938 4.609375 -2.691406 4.609375 -2.078125 C 4.617188 -1.472656 4.410156 -0.960938 3.984375 -0.546875 C 3.554688 -0.128906 3.019531 0.078125 2.375 0.078125 C 2.09375 0.078125 1.820312 0.0234375 1.5625 -0.078125 C 1.3125 -0.191406 1.085938 -0.34375 0.890625 -0.53125 Z M 0.890625 -0.53125 "/></g></g></g><g fill="#000000" fill-opacity="1"><g transform="translate(89.863617, 10.557412)"><g><path d="M 0.375 -3.453125 L 0.390625 -3.53125 C 0.390625 -3.550781 0.394531 -3.566406 0.40625 -3.578125 C 0.425781 -3.585938 0.4375 -3.59375 0.4375 -3.59375 L 1.234375 -4.171875 C 1.242188 -4.179688 1.273438 -4.1875 1.328125 -4.1875 C 1.378906 -4.1875 1.414062 -4.179688 1.4375 -4.171875 C 1.457031 -4.160156 1.46875 -4.117188 1.46875 -4.046875 L 1.46875 -3.296875 C 1.488281 -3.328125 1.515625 -3.359375 1.546875 -3.390625 C 1.753906 -3.648438 1.972656 -3.851562 2.203125 -4 C 2.429688 -4.144531 2.691406 -4.21875 2.984375 -4.21875 C 3.078125 -4.21875 3.128906 -4.207031 3.140625 -4.1875 C 3.191406 -4.050781 3.234375 -3.921875 3.265625 -3.796875 L 3.390625 -3.28125 C 3.398438 -3.25 3.378906 -3.21875 3.328125 -3.1875 C 3.273438 -3.15625 3.234375 -3.140625 3.203125 -3.140625 C 3.171875 -3.148438 3.140625 -3.179688 3.109375 -3.234375 L 3.0625 -3.3125 C 2.90625 -3.457031 2.722656 -3.515625 2.515625 -3.484375 C 2.304688 -3.453125 2.109375 -3.375 1.921875 -3.25 C 1.734375 -3.125 1.59375 -2.992188 1.5 -2.859375 C 1.5 -2.847656 1.492188 -2.832031 1.484375 -2.8125 C 1.472656 -2.800781 1.46875 -2.789062 1.46875 -2.78125 L 1.46875 -0.765625 C 1.46875 -0.753906 1.46875 -0.722656 1.46875 -0.671875 C 1.46875 -0.628906 1.46875 -0.597656 1.46875 -0.578125 C 1.488281 -0.390625 1.550781 -0.273438 1.65625 -0.234375 C 1.757812 -0.191406 1.8125 -0.15625 1.8125 -0.125 C 1.8125 -0.0390625 1.796875 0 1.765625 0 L 0.453125 0 C 0.421875 0 0.40625 -0.0234375 0.40625 -0.078125 C 0.40625 -0.128906 0.414062 -0.160156 0.4375 -0.171875 C 0.457031 -0.191406 0.484375 -0.207031 0.515625 -0.21875 C 0.554688 -0.238281 0.585938 -0.257812 0.609375 -0.28125 C 0.648438 -0.320312 0.679688 -0.367188 0.703125 -0.421875 C 0.734375 -0.484375 0.75 -0.550781 0.75 -0.625 C 0.75 -0.707031 0.75 -0.753906 0.75 -0.765625 L 0.75 -3.09375 C 0.75 -3.1875 0.722656 -3.253906 0.671875 -3.296875 C 0.628906 -3.335938 0.582031 -3.359375 0.53125 -3.359375 C 0.476562 -3.359375 0.441406 -3.367188 0.421875 -3.390625 C 0.390625 -3.410156 0.375 -3.429688 0.375 -3.453125 Z M 0.375 -3.453125 "/></g></g></g><g fill="#000000" fill-opacity="1"><g transform="translate(93.65054, 10.557412)"><g><path d="M 3.390625 -3.046875 C 3.210938 -3.546875 2.835938 -3.796875 2.265625 -3.796875 C 2.003906 -3.796875 1.765625 -3.722656 1.546875 -3.578125 C 1.328125 -3.441406 1.160156 -3.265625 1.046875 -3.046875 C 0.929688 -2.835938 0.875 -2.632812 0.875 -2.4375 C 0.875 -2.25 0.878906 -2.160156 0.890625 -2.171875 L 3.375 -3.03125 L 3.375 -3.0625 Z M 0.984375 -1.703125 C 1.109375 -1.359375 1.320312 -1.085938 1.625 -0.890625 C 1.925781 -0.691406 2.265625 -0.59375 2.640625 -0.59375 C 3.128906 -0.59375 3.570312 -0.820312 3.96875 -1.28125 C 4.03125 -1.332031 4.117188 -1.300781 4.234375 -1.1875 C 4.242188 -1.175781 4.242188 -1.160156 4.234375 -1.140625 C 3.898438 -0.679688 3.640625 -0.382812 3.453125 -0.25 C 3.140625 -0.03125 2.78125 0.078125 2.375 0.078125 C 2.09375 0.078125 1.820312 0.0195312 1.5625 -0.09375 C 1.03125 -0.320312 0.648438 -0.695312 0.421875 -1.21875 C 0.296875 -1.476562 0.234375 -1.785156 0.234375 -2.140625 C 0.234375 -2.503906 0.328125 -2.851562 0.515625 -3.1875 C 0.703125 -3.53125 0.96875 -3.796875 1.3125 -3.984375 C 1.65625 -4.179688 2.054688 -4.28125 2.515625 -4.28125 C 3.054688 -4.28125 3.546875 -4.023438 3.984375 -3.515625 C 4.191406 -3.253906 4.296875 -3.050781 4.296875 -2.90625 Z M 0.984375 -1.703125 "/></g></g></g></g></g></svg>