<svg xmlns="http://www.w3.org/2000/svg" xmlns:xlink="http://www.w3.org/1999/xlink" width="500" zoomAndPan="magnify" viewBox="0 0 375 374.999991" height="500" preserveAspectRatio="xMidYMid meet" version="1.0"><defs><g/><clipPath id="361f5eccd5"><rect x="0" width="111" y="0" height="11"/></clipPath></defs><g fill="#1e1e1e" fill-opacity="1"><g transform="translate(103.98251, 219.962299)"><g><path d="M -1.203125 -92.4375 C -1.203125 -95.3125 -0.125 -97.828125 2.03125 -99.984375 C 4.195312 -102.148438 6.722656 -103.234375 9.609375 -103.234375 L 34.8125 -103.234375 C 37.21875 -103.234375 39.539062 -102.273438 41.78125 -100.359375 C 43.851562 -101.160156 45.96875 -101.835938 48.125 -102.390625 C 50.289062 -102.953125 52.578125 -103.234375 54.984375 -103.234375 L 63.859375 -103.234375 C 66.898438 -103.234375 69.984375 -102.789062 73.109375 -101.90625 C 76.234375 -101.03125 79.070312 -99.953125 81.625 -98.671875 C 86.75 -101.710938 92.675781 -103.234375 99.40625 -103.234375 L 119.09375 -103.234375 C 125.65625 -103.234375 131.65625 -101.671875 137.09375 -98.546875 C 142.53125 -95.429688 146.851562 -91.3125 150.0625 -86.1875 L 156.546875 -79.953125 C 159.898438 -76.585938 162.535156 -72.703125 164.453125 -68.296875 C 166.378906 -63.898438 167.34375 -59.140625 167.34375 -54.015625 L 167.34375 8.40625 C 167.34375 10.96875 166.34375 13.285156 164.34375 15.359375 C 162.34375 17.441406 159.984375 18.484375 157.265625 18.484375 L 132.046875 18.484375 C 129.484375 18.484375 127.164062 17.441406 125.09375 15.359375 L 115.96875 6.484375 C 114.207031 5.679688 112.925781 4.71875 112.125 3.59375 L 112.125 8.40625 C 112.125 10.96875 111.125 13.285156 109.125 15.359375 C 107.125 17.441406 104.765625 18.484375 102.046875 18.484375 L 76.828125 18.484375 C 74.265625 18.484375 71.945312 17.441406 69.875 15.359375 L 60.75 6.484375 C 58.988281 5.679688 57.707031 4.71875 56.90625 3.59375 L 56.90625 8.40625 C 56.90625 10.96875 55.90625 13.285156 53.90625 15.359375 C 51.90625 17.441406 49.539062 18.484375 46.8125 18.484375 L 21.609375 18.484375 C 19.046875 18.484375 16.722656 17.441406 14.640625 15.359375 L 5.515625 6.25 C 3.597656 5.445312 2 4.125 0.71875 2.28125 C -0.5625 0.4375 -1.203125 -1.519531 -1.203125 -3.59375 Z M -1.203125 -92.4375 "/></g></g></g><g fill="#e4e2dd" fill-opacity="1"><g transform="translate(122.731645, 168.25934)"><g><path d="M 15.265625 0 L 1.953125 0 L 1.953125 -19.59375 L 6.4375 -19.59375 L 6.4375 -4.34375 L 15.265625 -4.34375 Z M 15.265625 0 "/></g></g></g><g fill="#e4e2dd" fill-opacity="1"><g transform="translate(138.409512, 168.25934)"><g><path d="M 8.484375 0.28125 C 7.066406 0.28125 5.785156 -0.0390625 4.640625 -0.6875 C 3.503906 -1.332031 2.609375 -2.21875 1.953125 -3.34375 C 1.304688 -4.476562 0.984375 -5.742188 0.984375 -7.140625 C 0.984375 -8.535156 1.304688 -9.796875 1.953125 -10.921875 C 2.609375 -12.054688 3.503906 -12.945312 4.640625 -13.59375 C 5.785156 -14.238281 7.066406 -14.5625 8.484375 -14.5625 C 9.828125 -14.5625 11.050781 -14.242188 12.15625 -13.609375 C 13.269531 -12.972656 14.144531 -12.097656 14.78125 -10.984375 C 15.414062 -9.878906 15.734375 -8.65625 15.734375 -7.3125 C 15.734375 -6.800781 15.6875 -6.332031 15.59375 -5.90625 L 5.1875 -5.90625 C 5.289062 -5.125 5.648438 -4.46875 6.265625 -3.9375 C 6.890625 -3.40625 7.628906 -3.140625 8.484375 -3.140625 C 9.117188 -3.140625 9.660156 -3.257812 10.109375 -3.5 C 10.554688 -3.738281 10.890625 -3.988281 11.109375 -4.25 L 15.375 -4.25 C 15.1875 -3.613281 14.8125 -2.953125 14.25 -2.265625 C 13.6875 -1.578125 12.914062 -0.976562 11.9375 -0.46875 C 10.957031 0.03125 9.804688 0.28125 8.484375 0.28125 Z M 11.5625 -8.453125 C 11.445312 -9.234375 11.109375 -9.882812 10.546875 -10.40625 C 9.992188 -10.9375 9.304688 -11.203125 8.484375 -11.203125 C 7.609375 -11.203125 6.878906 -10.9375 6.296875 -10.40625 C 5.722656 -9.882812 5.351562 -9.234375 5.1875 -8.453125 Z M 11.5625 -8.453125 "/></g></g></g><g fill="#e4e2dd" fill-opacity="1"><g transform="translate(155.12323, 168.25934)"><g><path d="M 1.6875 0 L 1.6875 -14.28125 L 5.3125 -14.28125 L 5.59375 -13.015625 L 5.734375 -13.015625 C 6.078125 -13.410156 6.585938 -13.765625 7.265625 -14.078125 C 7.941406 -14.398438 8.769531 -14.5625 9.75 -14.5625 C 10.832031 -14.5625 11.796875 -14.3125 12.640625 -13.8125 C 13.492188 -13.320312 14.15625 -12.625 14.625 -11.71875 C 15.101562 -10.8125 15.34375 -9.757812 15.34375 -8.5625 L 15.34375 0 L 11.109375 0 L 11.109375 -7.875 C 11.109375 -8.65625 10.867188 -9.289062 10.390625 -9.78125 C 9.921875 -10.28125 9.296875 -10.53125 8.515625 -10.53125 C 7.734375 -10.53125 7.101562 -10.28125 6.625 -9.78125 C 6.144531 -9.289062 5.90625 -8.65625 5.90625 -7.875 L 5.90625 0 Z M 1.6875 0 "/></g></g></g><g fill="#e4e2dd" fill-opacity="1"><g transform="translate(172.004923, 168.25934)"><g><path d="M 7.203125 0.28125 C 5.648438 0.28125 4.382812 0.015625 3.40625 -0.515625 C 2.4375 -1.046875 1.742188 -1.675781 1.328125 -2.40625 C 0.910156 -3.132812 0.703125 -3.816406 0.703125 -4.453125 L 4.8125 -4.453125 C 4.8125 -4.054688 5.007812 -3.703125 5.40625 -3.390625 C 5.8125 -3.085938 6.410156 -2.9375 7.203125 -2.9375 C 7.960938 -2.9375 8.523438 -3.050781 8.890625 -3.28125 C 9.253906 -3.519531 9.4375 -3.804688 9.4375 -4.140625 C 9.4375 -4.492188 9.3125 -4.773438 9.0625 -4.984375 C 8.820312 -5.191406 8.394531 -5.34375 7.78125 -5.4375 L 5.65625 -5.765625 C 2.382812 -6.273438 0.75 -7.695312 0.75 -10.03125 C 0.75 -10.84375 0.992188 -11.59375 1.484375 -12.28125 C 1.972656 -12.976562 2.691406 -13.53125 3.640625 -13.9375 C 4.585938 -14.351562 5.726562 -14.5625 7.0625 -14.5625 C 8.40625 -14.5625 9.550781 -14.320312 10.5 -13.84375 C 11.445312 -13.363281 12.164062 -12.765625 12.65625 -12.046875 C 13.144531 -11.328125 13.390625 -10.625 13.390625 -9.9375 L 9.296875 -9.9375 C 9.296875 -10.3125 9.09375 -10.640625 8.6875 -10.921875 C 8.289062 -11.203125 7.75 -11.34375 7.0625 -11.34375 C 6.382812 -11.34375 5.863281 -11.210938 5.5 -10.953125 C 5.132812 -10.703125 4.953125 -10.410156 4.953125 -10.078125 C 4.953125 -9.535156 5.492188 -9.179688 6.578125 -9.015625 L 8.8125 -8.6875 C 12.007812 -8.21875 13.609375 -6.722656 13.609375 -4.203125 C 13.609375 -3.378906 13.367188 -2.625 12.890625 -1.9375 C 12.421875 -1.257812 11.703125 -0.71875 10.734375 -0.3125 C 9.773438 0.0820312 8.597656 0.28125 7.203125 0.28125 Z M 7.203125 0.28125 "/></g></g></g><g fill="#e4e2dd" fill-opacity="1"><g transform="translate(186.450948, 168.25934)"><g><path d="M 8.453125 0.28125 C 7.035156 0.28125 5.753906 -0.0390625 4.609375 -0.6875 C 3.472656 -1.332031 2.582031 -2.21875 1.9375 -3.34375 C 1.300781 -4.476562 0.984375 -5.742188 0.984375 -7.140625 C 0.984375 -8.535156 1.300781 -9.796875 1.9375 -10.921875 C 2.582031 -12.054688 3.472656 -12.945312 4.609375 -13.59375 C 5.753906 -14.238281 7.035156 -14.5625 8.453125 -14.5625 C 9.867188 -14.5625 11.144531 -14.238281 12.28125 -13.59375 C 13.425781 -12.945312 14.320312 -12.054688 14.96875 -10.921875 C 15.613281 -9.796875 15.9375 -8.535156 15.9375 -7.140625 C 15.9375 -5.742188 15.613281 -4.476562 14.96875 -3.34375 C 14.320312 -2.21875 13.425781 -1.332031 12.28125 -0.6875 C 11.144531 -0.0390625 9.867188 0.28125 8.453125 0.28125 Z M 8.453125 -3.640625 C 9.367188 -3.640625 10.140625 -3.960938 10.765625 -4.609375 C 11.390625 -5.265625 11.703125 -6.109375 11.703125 -7.140625 C 11.703125 -8.171875 11.390625 -9.007812 10.765625 -9.65625 C 10.140625 -10.3125 9.367188 -10.640625 8.453125 -10.640625 C 7.535156 -10.640625 6.765625 -10.3125 6.140625 -9.65625 C 5.515625 -9.007812 5.203125 -8.171875 5.203125 -7.140625 C 5.203125 -6.109375 5.515625 -5.265625 6.140625 -4.609375 C 6.765625 -3.960938 7.535156 -3.640625 8.453125 -3.640625 Z M 8.453125 -3.640625 "/></g></g></g><g fill="#e4e2dd" fill-opacity="1"><g transform="translate(203.360646, 168.25934)"><g><path d="M 1.6875 0 L 1.6875 -14.28125 L 5.3125 -14.28125 L 5.59375 -13.15625 L 5.734375 -13.15625 C 5.941406 -13.457031 6.269531 -13.71875 6.71875 -13.9375 C 7.164062 -14.164062 7.679688 -14.28125 8.265625 -14.28125 L 10.96875 -14.28125 L 10.96875 -10.28125 L 8.453125 -10.28125 C 6.753906 -10.28125 5.90625 -9.410156 5.90625 -7.671875 L 5.90625 0 Z M 1.6875 0 "/></g></g></g><g fill="#e4e2dd" fill-opacity="1"><g transform="translate(214.7271, 168.25934)"><g><path d="M 11.109375 -14.28125 L 15.59375 -14.28125 L 9.515625 2.6875 C 9.140625 3.71875 8.648438 4.457031 8.046875 4.90625 C 7.441406 5.363281 6.515625 5.59375 5.265625 5.59375 L 1.65625 5.59375 L 1.65625 1.703125 L 4.53125 1.703125 C 5 1.703125 5.304688 1.507812 5.453125 1.125 L 5.625 0.671875 L -0.140625 -14.28125 L 4.34375 -14.28125 L 7.609375 -5.515625 L 8.171875 -5.515625 Z M 11.109375 -14.28125 "/></g></g></g><g fill="#e4e2dd" fill-opacity="1"><g transform="translate(230.192576, 168.25934)"><g/></g></g><g transform="matrix(1, 0, 0, 1, 122, 176)"><g clip-path="url(#361f5eccd5)"><g fill="#e4e2dd" fill-opacity="1"><g transform="translate(0.731644, 8.72138)"><g><path d="M 3.328125 -5.21875 C 3.597656 -5.1875 3.835938 -5.101562 4.046875 -4.96875 C 4.265625 -4.84375 4.4375 -4.664062 4.5625 -4.4375 C 4.695312 -4.207031 4.765625 -3.925781 4.765625 -3.59375 C 4.765625 -3.257812 4.695312 -2.972656 4.5625 -2.734375 C 4.4375 -2.503906 4.265625 -2.320312 4.046875 -2.1875 C 3.828125 -2.0625 3.585938 -1.984375 3.328125 -1.953125 C 3.203125 -1.941406 3.078125 -1.929688 2.953125 -1.921875 C 2.835938 -1.921875 2.703125 -1.921875 2.546875 -1.921875 L 1.84375 -1.921875 L 1.84375 0 L 0.640625 0 L 0.640625 -5.265625 L 2.546875 -5.265625 C 2.703125 -5.265625 2.835938 -5.257812 2.953125 -5.25 C 3.078125 -5.25 3.203125 -5.238281 3.328125 -5.21875 Z M 2.921875 -2.875 C 3.097656 -2.894531 3.238281 -2.960938 3.34375 -3.078125 C 3.457031 -3.191406 3.515625 -3.363281 3.515625 -3.59375 C 3.515625 -3.8125 3.457031 -3.976562 3.34375 -4.09375 C 3.238281 -4.21875 3.097656 -4.289062 2.921875 -4.3125 C 2.867188 -4.320312 2.804688 -4.328125 2.734375 -4.328125 C 2.660156 -4.328125 2.582031 -4.328125 2.5 -4.328125 L 1.84375 -4.328125 L 1.84375 -2.859375 L 2.5 -2.859375 C 2.582031 -2.859375 2.660156 -2.859375 2.734375 -2.859375 C 2.804688 -2.859375 2.867188 -2.863281 2.921875 -2.875 Z M 2.921875 -2.875 "/></g></g></g><g fill="#e4e2dd" fill-opacity="1"><g transform="translate(5.556522, 8.72138)"><g><path d="M 5.34375 -5.265625 L 5.34375 0 L 4.140625 0 L 4.140625 -2.109375 L 1.84375 -2.109375 L 1.84375 0 L 0.640625 0 L 0.640625 -5.265625 L 1.84375 -5.265625 L 1.84375 -3.046875 L 4.140625 -3.046875 L 4.140625 -5.265625 Z M 5.34375 -5.265625 "/></g></g></g><g fill="#e4e2dd" fill-opacity="1"><g transform="translate(11.349429, 8.72138)"><g><path d="M 3.046875 -5.375 C 3.585938 -5.375 4.054688 -5.257812 4.453125 -5.03125 C 4.847656 -4.8125 5.148438 -4.492188 5.359375 -4.078125 C 5.578125 -3.671875 5.6875 -3.1875 5.6875 -2.625 C 5.6875 -2.070312 5.578125 -1.59375 5.359375 -1.1875 C 5.148438 -0.78125 4.847656 -0.460938 4.453125 -0.234375 C 4.054688 -0.00390625 3.585938 0.109375 3.046875 0.109375 C 2.492188 0.109375 2.019531 -0.00390625 1.625 -0.234375 C 1.226562 -0.460938 0.921875 -0.78125 0.703125 -1.1875 C 0.492188 -1.59375 0.390625 -2.070312 0.390625 -2.625 C 0.390625 -3.1875 0.492188 -3.671875 0.703125 -4.078125 C 0.921875 -4.492188 1.226562 -4.8125 1.625 -5.03125 C 2.019531 -5.257812 2.492188 -5.375 3.046875 -5.375 Z M 3.046875 -0.78125 C 3.484375 -0.78125 3.828125 -0.941406 4.078125 -1.265625 C 4.328125 -1.585938 4.453125 -2.039062 4.453125 -2.625 C 4.453125 -3.21875 4.328125 -3.675781 4.078125 -4 C 3.828125 -4.320312 3.484375 -4.484375 3.046875 -4.484375 C 2.609375 -4.484375 2.257812 -4.320312 2 -4 C 1.75 -3.675781 1.625 -3.21875 1.625 -2.625 C 1.625 -2.039062 1.75 -1.585938 2 -1.265625 C 2.257812 -0.941406 2.609375 -0.78125 3.046875 -0.78125 Z M 3.046875 -0.78125 "/></g></g></g><g fill="#e4e2dd" fill-opacity="1"><g transform="translate(17.256663, 8.72138)"><g><path d="M 4.84375 -4.328125 L 3.09375 -4.328125 L 3.09375 0 L 1.90625 0 L 1.90625 -4.328125 L 0.140625 -4.328125 L 0.140625 -5.265625 L 4.84375 -5.265625 Z M 4.84375 -4.328125 "/></g></g></g><g fill="#e4e2dd" fill-opacity="1"><g transform="translate(22.035804, 8.72138)"><g><path d="M 3.046875 -5.375 C 3.585938 -5.375 4.054688 -5.257812 4.453125 -5.03125 C 4.847656 -4.8125 5.148438 -4.492188 5.359375 -4.078125 C 5.578125 -3.671875 5.6875 -3.1875 5.6875 -2.625 C 5.6875 -2.070312 5.578125 -1.59375 5.359375 -1.1875 C 5.148438 -0.78125 4.847656 -0.460938 4.453125 -0.234375 C 4.054688 -0.00390625 3.585938 0.109375 3.046875 0.109375 C 2.492188 0.109375 2.019531 -0.00390625 1.625 -0.234375 C 1.226562 -0.460938 0.921875 -0.78125 0.703125 -1.1875 C 0.492188 -1.59375 0.390625 -2.070312 0.390625 -2.625 C 0.390625 -3.1875 0.492188 -3.671875 0.703125 -4.078125 C 0.921875 -4.492188 1.226562 -4.8125 1.625 -5.03125 C 2.019531 -5.257812 2.492188 -5.375 3.046875 -5.375 Z M 3.046875 -0.78125 C 3.484375 -0.78125 3.828125 -0.941406 4.078125 -1.265625 C 4.328125 -1.585938 4.453125 -2.039062 4.453125 -2.625 C 4.453125 -3.21875 4.328125 -3.675781 4.078125 -4 C 3.828125 -4.320312 3.484375 -4.484375 3.046875 -4.484375 C 2.609375 -4.484375 2.257812 -4.320312 2 -4 C 1.75 -3.675781 1.625 -3.21875 1.625 -2.625 C 1.625 -2.039062 1.75 -1.585938 2 -1.265625 C 2.257812 -0.941406 2.609375 -0.78125 3.046875 -0.78125 Z M 3.046875 -0.78125 "/></g></g></g><g fill="#e4e2dd" fill-opacity="1"><g transform="translate(27.943039, 8.72138)"><g><path d="M 3.109375 -2.734375 L 5.3125 -2.734375 L 5.3125 0 L 4.359375 0 L 4.265625 -0.828125 L 4.03125 -0.28125 C 3.882812 -0.144531 3.707031 -0.046875 3.5 0.015625 C 3.300781 0.078125 3.0625 0.109375 2.78125 0.109375 C 2.300781 0.109375 1.878906 0.00390625 1.515625 -0.203125 C 1.160156 -0.421875 0.882812 -0.734375 0.6875 -1.140625 C 0.488281 -1.546875 0.390625 -2.03125 0.390625 -2.59375 C 0.390625 -3.1875 0.507812 -3.6875 0.75 -4.09375 C 0.988281 -4.507812 1.304688 -4.828125 1.703125 -5.046875 C 2.097656 -5.265625 2.539062 -5.375 3.03125 -5.375 C 3.519531 -5.375 3.925781 -5.289062 4.25 -5.125 C 4.582031 -4.96875 4.835938 -4.75 5.015625 -4.46875 C 5.203125 -4.195312 5.3125 -3.890625 5.34375 -3.546875 L 5.359375 -3.46875 L 4.15625 -3.46875 L 4.140625 -3.546875 C 4.015625 -4.171875 3.640625 -4.484375 3.015625 -4.484375 C 2.753906 -4.484375 2.519531 -4.410156 2.3125 -4.265625 C 2.113281 -4.128906 1.953125 -3.925781 1.828125 -3.65625 C 1.710938 -3.382812 1.65625 -3.054688 1.65625 -2.671875 C 1.65625 -2.234375 1.710938 -1.875 1.828125 -1.59375 C 1.953125 -1.3125 2.113281 -1.101562 2.3125 -0.96875 C 2.519531 -0.84375 2.75 -0.78125 3 -0.78125 C 3.300781 -0.78125 3.554688 -0.863281 3.765625 -1.03125 C 3.972656 -1.207031 4.109375 -1.46875 4.171875 -1.8125 L 3.109375 -1.8125 Z M 3.109375 -2.734375 "/></g></g></g><g fill="#e4e2dd" fill-opacity="1"><g transform="translate(33.636853, 8.72138)"><g><path d="M 4.59375 -1.296875 C 4.625 -0.992188 4.664062 -0.738281 4.71875 -0.53125 C 4.78125 -0.332031 4.867188 -0.15625 4.984375 0 L 3.671875 0 C 3.609375 -0.1875 3.554688 -0.363281 3.515625 -0.53125 C 3.484375 -0.707031 3.453125 -0.90625 3.421875 -1.125 C 3.390625 -1.40625 3.316406 -1.625 3.203125 -1.78125 C 3.085938 -1.945312 2.929688 -2.039062 2.734375 -2.0625 C 2.660156 -2.0625 2.585938 -2.0625 2.515625 -2.0625 C 2.453125 -2.0625 2.382812 -2.0625 2.3125 -2.0625 L 1.84375 -2.0625 L 1.84375 0 L 0.640625 0 L 0.640625 -5.265625 L 2.640625 -5.265625 C 2.796875 -5.265625 2.929688 -5.257812 3.046875 -5.25 C 3.171875 -5.25 3.300781 -5.238281 3.4375 -5.21875 C 3.6875 -5.1875 3.914062 -5.117188 4.125 -5.015625 C 4.34375 -4.921875 4.515625 -4.773438 4.640625 -4.578125 C 4.765625 -4.390625 4.828125 -4.140625 4.828125 -3.828125 C 4.828125 -3.492188 4.734375 -3.21875 4.546875 -3 C 4.367188 -2.78125 4.117188 -2.625 3.796875 -2.53125 C 4.054688 -2.4375 4.242188 -2.285156 4.359375 -2.078125 C 4.484375 -1.867188 4.5625 -1.609375 4.59375 -1.296875 Z M 1.84375 -2.9375 L 2.46875 -2.9375 C 2.550781 -2.9375 2.625 -2.9375 2.6875 -2.9375 C 2.757812 -2.9375 2.816406 -2.941406 2.859375 -2.953125 C 3.054688 -2.972656 3.222656 -3.03125 3.359375 -3.125 C 3.503906 -3.226562 3.578125 -3.398438 3.578125 -3.640625 C 3.578125 -3.878906 3.515625 -4.046875 3.390625 -4.140625 C 3.265625 -4.234375 3.101562 -4.289062 2.90625 -4.3125 C 2.863281 -4.320312 2.804688 -4.328125 2.734375 -4.328125 C 2.671875 -4.328125 2.597656 -4.328125 2.515625 -4.328125 L 1.84375 -4.328125 Z M 1.84375 -2.9375 "/></g></g></g><g fill="#e4e2dd" fill-opacity="1"><g transform="translate(38.71326, 8.72138)"><g><path d="M 3.546875 -1.484375 L 1.84375 -1.484375 L 1.34375 0 L 0.078125 0 L 1.96875 -5.265625 L 3.453125 -5.265625 L 5.328125 0 L 4.03125 0 Z M 2.703125 -4.21875 L 2.140625 -2.421875 L 3.25 -2.421875 Z M 2.703125 -4.21875 "/></g></g></g><g fill="#e4e2dd" fill-opacity="1"><g transform="translate(43.972606, 8.72138)"><g><path d="M 3.328125 -5.21875 C 3.597656 -5.1875 3.835938 -5.101562 4.046875 -4.96875 C 4.265625 -4.84375 4.4375 -4.664062 4.5625 -4.4375 C 4.695312 -4.207031 4.765625 -3.925781 4.765625 -3.59375 C 4.765625 -3.257812 4.695312 -2.972656 4.5625 -2.734375 C 4.4375 -2.503906 4.265625 -2.320312 4.046875 -2.1875 C 3.828125 -2.0625 3.585938 -1.984375 3.328125 -1.953125 C 3.203125 -1.941406 3.078125 -1.929688 2.953125 -1.921875 C 2.835938 -1.921875 2.703125 -1.921875 2.546875 -1.921875 L 1.84375 -1.921875 L 1.84375 0 L 0.640625 0 L 0.640625 -5.265625 L 2.546875 -5.265625 C 2.703125 -5.265625 2.835938 -5.257812 2.953125 -5.25 C 3.078125 -5.25 3.203125 -5.238281 3.328125 -5.21875 Z M 2.921875 -2.875 C 3.097656 -2.894531 3.238281 -2.960938 3.34375 -3.078125 C 3.457031 -3.191406 3.515625 -3.363281 3.515625 -3.59375 C 3.515625 -3.8125 3.457031 -3.976562 3.34375 -4.09375 C 3.238281 -4.21875 3.097656 -4.289062 2.921875 -4.3125 C 2.867188 -4.320312 2.804688 -4.328125 2.734375 -4.328125 C 2.660156 -4.328125 2.582031 -4.328125 2.5 -4.328125 L 1.84375 -4.328125 L 1.84375 -2.859375 L 2.5 -2.859375 C 2.582031 -2.859375 2.660156 -2.859375 2.734375 -2.859375 C 2.804688 -2.859375 2.867188 -2.863281 2.921875 -2.875 Z M 2.921875 -2.875 "/></g></g></g><g fill="#e4e2dd" fill-opacity="1"><g transform="translate(48.797484, 8.72138)"><g><path d="M 5.34375 -5.265625 L 5.34375 0 L 4.140625 0 L 4.140625 -2.109375 L 1.84375 -2.109375 L 1.84375 0 L 0.640625 0 L 0.640625 -5.265625 L 1.84375 -5.265625 L 1.84375 -3.046875 L 4.140625 -3.046875 L 4.140625 -5.265625 Z M 5.34375 -5.265625 "/></g></g></g><g fill="#e4e2dd" fill-opacity="1"><g transform="translate(54.590391, 8.72138)"><g><path d="M 3.171875 -2.03125 L 3.171875 0 L 1.96875 0 L 1.96875 -2.015625 L 0.109375 -5.265625 L 1.46875 -5.265625 L 2.609375 -3.0625 L 3.703125 -5.265625 L 5.015625 -5.265625 Z M 3.171875 -2.03125 "/></g></g></g><g fill="#e4e2dd" fill-opacity="1"><g transform="translate(59.491487, 8.72138)"><g/></g></g><g fill="#e4e2dd" fill-opacity="1"><g transform="translate(60.90922, 8.72138)"><g><path d="M 2.96875 -5.375 C 3.457031 -5.375 3.867188 -5.289062 4.203125 -5.125 C 4.535156 -4.96875 4.789062 -4.75 4.96875 -4.46875 C 5.144531 -4.195312 5.253906 -3.890625 5.296875 -3.546875 L 5.296875 -3.46875 L 4.109375 -3.46875 L 4.09375 -3.546875 C 3.957031 -4.171875 3.578125 -4.484375 2.953125 -4.484375 C 2.578125 -4.484375 2.265625 -4.328125 2.015625 -4.015625 C 1.773438 -3.703125 1.65625 -3.253906 1.65625 -2.671875 C 1.65625 -2.234375 1.710938 -1.875 1.828125 -1.59375 C 1.941406 -1.3125 2.097656 -1.101562 2.296875 -0.96875 C 2.492188 -0.84375 2.710938 -0.78125 2.953125 -0.78125 C 3.265625 -0.78125 3.507812 -0.867188 3.6875 -1.046875 C 3.875 -1.222656 4 -1.46875 4.0625 -1.78125 L 4.078125 -1.859375 L 5.28125 -1.859375 L 5.265625 -1.78125 C 5.203125 -1.1875 4.957031 -0.722656 4.53125 -0.390625 C 4.113281 -0.0546875 3.570312 0.109375 2.90625 0.109375 C 2.425781 0.109375 1.992188 0.00390625 1.609375 -0.203125 C 1.234375 -0.421875 0.9375 -0.726562 0.71875 -1.125 C 0.5 -1.53125 0.390625 -2.019531 0.390625 -2.59375 C 0.390625 -3.1875 0.503906 -3.6875 0.734375 -4.09375 C 0.960938 -4.507812 1.269531 -4.828125 1.65625 -5.046875 C 2.050781 -5.265625 2.488281 -5.375 2.96875 -5.375 Z M 2.96875 -5.375 "/></g></g></g><g fill="#e4e2dd" fill-opacity="1"><g transform="translate(66.435342, 8.72138)"><g><path d="M 3.046875 -5.375 C 3.585938 -5.375 4.054688 -5.257812 4.453125 -5.03125 C 4.847656 -4.8125 5.148438 -4.492188 5.359375 -4.078125 C 5.578125 -3.671875 5.6875 -3.1875 5.6875 -2.625 C 5.6875 -2.070312 5.578125 -1.59375 5.359375 -1.1875 C 5.148438 -0.78125 4.847656 -0.460938 4.453125 -0.234375 C 4.054688 -0.00390625 3.585938 0.109375 3.046875 0.109375 C 2.492188 0.109375 2.019531 -0.00390625 1.625 -0.234375 C 1.226562 -0.460938 0.921875 -0.78125 0.703125 -1.1875 C 0.492188 -1.59375 0.390625 -2.070312 0.390625 -2.625 C 0.390625 -3.1875 0.492188 -3.671875 0.703125 -4.078125 C 0.921875 -4.492188 1.226562 -4.8125 1.625 -5.03125 C 2.019531 -5.257812 2.492188 -5.375 3.046875 -5.375 Z M 3.046875 -0.78125 C 3.484375 -0.78125 3.828125 -0.941406 4.078125 -1.265625 C 4.328125 -1.585938 4.453125 -2.039062 4.453125 -2.625 C 4.453125 -3.21875 4.328125 -3.675781 4.078125 -4 C 3.828125 -4.320312 3.484375 -4.484375 3.046875 -4.484375 C 2.609375 -4.484375 2.257812 -4.320312 2 -4 C 1.75 -3.675781 1.625 -3.21875 1.625 -2.625 C 1.625 -2.039062 1.75 -1.585938 2 -1.265625 C 2.257812 -0.941406 2.609375 -0.78125 3.046875 -0.78125 Z M 3.046875 -0.78125 "/></g></g></g><g fill="#e4e2dd" fill-opacity="1"><g transform="translate(72.342576, 8.72138)"><g><path d="M 4.546875 -1 L 4.546875 0 L 0.640625 0 L 0.640625 -5.265625 L 1.84375 -5.265625 L 1.84375 -1 Z M 4.546875 -1 "/></g></g></g><g fill="#e4e2dd" fill-opacity="1"><g transform="translate(77.030252, 8.72138)"><g><path d="M 4.546875 -1 L 4.546875 0 L 0.640625 0 L 0.640625 -5.265625 L 1.84375 -5.265625 L 1.84375 -1 Z M 4.546875 -1 "/></g></g></g><g fill="#e4e2dd" fill-opacity="1"><g transform="translate(81.717929, 8.72138)"><g><path d="M 4.546875 -0.9375 L 4.546875 0 L 0.640625 0 L 0.640625 -5.265625 L 4.46875 -5.265625 L 4.46875 -4.328125 L 1.84375 -4.328125 L 1.84375 -3.109375 L 4.296875 -3.109375 L 4.296875 -2.171875 L 1.84375 -2.171875 L 1.84375 -0.9375 Z M 4.546875 -0.9375 "/></g></g></g><g fill="#e4e2dd" fill-opacity="1"><g transform="translate(86.489452, 8.72138)"><g><path d="M 2.96875 -5.375 C 3.457031 -5.375 3.867188 -5.289062 4.203125 -5.125 C 4.535156 -4.96875 4.789062 -4.75 4.96875 -4.46875 C 5.144531 -4.195312 5.253906 -3.890625 5.296875 -3.546875 L 5.296875 -3.46875 L 4.109375 -3.46875 L 4.09375 -3.546875 C 3.957031 -4.171875 3.578125 -4.484375 2.953125 -4.484375 C 2.578125 -4.484375 2.265625 -4.328125 2.015625 -4.015625 C 1.773438 -3.703125 1.65625 -3.253906 1.65625 -2.671875 C 1.65625 -2.234375 1.710938 -1.875 1.828125 -1.59375 C 1.941406 -1.3125 2.097656 -1.101562 2.296875 -0.96875 C 2.492188 -0.84375 2.710938 -0.78125 2.953125 -0.78125 C 3.265625 -0.78125 3.507812 -0.867188 3.6875 -1.046875 C 3.875 -1.222656 4 -1.46875 4.0625 -1.78125 L 4.078125 -1.859375 L 5.28125 -1.859375 L 5.265625 -1.78125 C 5.203125 -1.1875 4.957031 -0.722656 4.53125 -0.390625 C 4.113281 -0.0546875 3.570312 0.109375 2.90625 0.109375 C 2.425781 0.109375 1.992188 0.00390625 1.609375 -0.203125 C 1.234375 -0.421875 0.9375 -0.726562 0.71875 -1.125 C 0.5 -1.53125 0.390625 -2.019531 0.390625 -2.59375 C 0.390625 -3.1875 0.503906 -3.6875 0.734375 -4.09375 C 0.960938 -4.507812 1.269531 -4.828125 1.65625 -5.046875 C 2.050781 -5.265625 2.488281 -5.375 2.96875 -5.375 Z M 2.96875 -5.375 "/></g></g></g><g fill="#e4e2dd" fill-opacity="1"><g transform="translate(92.015573, 8.72138)"><g><path d="M 4.84375 -4.328125 L 3.09375 -4.328125 L 3.09375 0 L 1.90625 0 L 1.90625 -4.328125 L 0.140625 -4.328125 L 0.140625 -5.265625 L 4.84375 -5.265625 Z M 4.84375 -4.328125 "/></g></g></g><g fill="#e4e2dd" fill-opacity="1"><g transform="translate(96.794714, 8.72138)"><g><path d="M 1.84375 0 L 0.640625 0 L 0.640625 -5.265625 L 1.84375 -5.265625 Z M 1.84375 0 "/></g></g></g><g fill="#e4e2dd" fill-opacity="1"><g transform="translate(99.096629, 8.72138)"><g><path d="M 3.59375 0 L 2.125 0 L 0.25 -5.265625 L 1.546875 -5.265625 L 2.875 -0.921875 L 4.234375 -5.265625 L 5.5 -5.265625 Z M 3.59375 0 "/></g></g></g><g fill="#e4e2dd" fill-opacity="1"><g transform="translate(104.523668, 8.72138)"><g><path d="M 4.546875 -0.9375 L 4.546875 0 L 0.640625 0 L 0.640625 -5.265625 L 4.46875 -5.265625 L 4.46875 -4.328125 L 1.84375 -4.328125 L 1.84375 -3.109375 L 4.296875 -3.109375 L 4.296875 -2.171875 L 1.84375 -2.171875 L 1.84375 -0.9375 Z M 4.546875 -0.9375 "/></g></g></g></g></g></svg>