<svg xmlns="http://www.w3.org/2000/svg" xmlns:xlink="http://www.w3.org/1999/xlink" width="500" zoomAndPan="magnify" viewBox="0 0 375 374.999991" height="500" preserveAspectRatio="xMidYMid meet" version="1.0"><defs><g/><clipPath id="9db5e28221"><path d="M 0.0390625 4 L 48 4 L 48 65 L 0.0390625 65 Z M 0.0390625 4 " clip-rule="nonzero"/></clipPath><clipPath id="13a4a446f7"><rect x="0" width="314" y="0" height="82"/></clipPath><clipPath id="dbf1009f35"><path d="M 329.667969 159.433594 L 344.816406 159.433594 L 344.816406 174.585938 L 329.667969 174.585938 Z M 329.667969 159.433594 " clip-rule="nonzero"/></clipPath><clipPath id="7040c91e96"><path d="M 337.242188 159.433594 C 333.058594 159.433594 329.667969 162.828125 329.667969 167.011719 C 329.667969 171.195312 333.058594 174.585938 337.242188 174.585938 C 341.425781 174.585938 344.816406 171.195312 344.816406 167.011719 C 344.816406 162.828125 341.425781 159.433594 337.242188 159.433594 Z M 337.242188 159.433594 " clip-rule="nonzero"/></clipPath><clipPath id="afda0a68bc"><path d="M 0.667969 0.433594 L 15.816406 0.433594 L 15.816406 15.585938 L 0.667969 15.585938 Z M 0.667969 0.433594 " clip-rule="nonzero"/></clipPath><clipPath id="5432bcb042"><path d="M 8.242188 0.433594 C 4.058594 0.433594 0.667969 3.828125 0.667969 8.011719 C 0.667969 12.195312 4.058594 15.585938 8.242188 15.585938 C 12.425781 15.585938 15.816406 12.195312 15.816406 8.011719 C 15.816406 3.828125 12.425781 0.433594 8.242188 0.433594 Z M 8.242188 0.433594 " clip-rule="nonzero"/></clipPath><clipPath id="3c19880f1a"><rect x="0" width="16" y="0" height="16"/></clipPath></defs><rect x="-37.5" width="450" fill="#ffffff" y="-37.499999" height="449.999989" fill-opacity="1"/><rect x="-37.5" width="450" fill="#ffffff" y="-37.499999" height="449.999989" fill-opacity="1"/><g transform="matrix(1, 0, 0, 1, 47, 104)"><g clip-path="url(#13a4a446f7)"><g clip-path="url(#9db5e28221)"><g fill="#1b1b1b" fill-opacity="1"><g transform="translate(0.127746, 64.208907)"><g><path d="M 30.53125 -0.640625 C 29.675781 -0.585938 28.835938 -0.546875 28.015625 -0.515625 C 27.191406 -0.492188 26.378906 -0.457031 25.578125 -0.40625 C 22.273438 -0.34375 18.941406 -0.351562 15.578125 -0.4375 C 12.222656 -0.519531 8.894531 -0.425781 5.59375 -0.15625 C 5.0625 -0.101562 4.34375 -0.0625 3.4375 -0.03125 C 2.53125 -0.0078125 1.742188 -0.144531 1.078125 -0.4375 C 0.410156 -0.726562 0.078125 -1.300781 0.078125 -2.15625 C 0.179688 -7.59375 0.234375 -13.015625 0.234375 -18.421875 C 0.234375 -23.835938 0.257812 -29.257812 0.3125 -34.6875 C 0.3125 -36.925781 0.3125 -39.164062 0.3125 -41.40625 C 0.3125 -43.644531 0.3125 -45.882812 0.3125 -48.125 C 0.3125 -49.238281 0.328125 -50.351562 0.359375 -51.46875 C 0.390625 -52.59375 0.40625 -53.71875 0.40625 -54.84375 C 0.40625 -55.582031 0.46875 -56.429688 0.59375 -57.390625 C 0.726562 -58.347656 1.222656 -58.960938 2.078125 -59.234375 C 2.234375 -59.285156 2.390625 -59.3125 2.546875 -59.3125 C 2.710938 -59.3125 2.875 -59.3125 3.03125 -59.3125 C 7.988281 -59.257812 12.957031 -59.175781 17.9375 -59.0625 C 22.925781 -58.957031 27.84375 -58.507812 32.6875 -57.71875 C 35.09375 -57.34375 37.171875 -56.445312 38.921875 -55.03125 C 40.679688 -53.625 41.972656 -51.894531 42.796875 -49.84375 C 43.628906 -47.789062 43.832031 -45.566406 43.40625 -43.171875 C 43.03125 -41.035156 42.3125 -39.128906 41.25 -37.453125 C 40.1875 -35.773438 39.203125 -34.003906 38.296875 -32.140625 C 38.234375 -31.921875 38.160156 -31.71875 38.078125 -31.53125 C 38.003906 -31.34375 37.96875 -31.144531 37.96875 -30.9375 C 38.019531 -30.457031 38.328125 -29.960938 38.890625 -29.453125 C 39.453125 -28.953125 40.078125 -28.472656 40.765625 -28.015625 C 41.460938 -27.566406 41.96875 -27.179688 42.28125 -26.859375 C 43.351562 -25.796875 44.328125 -24.609375 45.203125 -23.296875 C 46.085938 -21.992188 46.6875 -20.570312 47 -19.03125 C 47.476562 -16.738281 47.273438 -14.285156 46.390625 -11.671875 C 45.515625 -9.054688 44.253906 -6.898438 42.609375 -5.203125 C 41.054688 -3.546875 39.203125 -2.410156 37.046875 -1.796875 C 34.890625 -1.179688 32.71875 -0.796875 30.53125 -0.640625 Z M 12.46875 -41.890625 C 12.46875 -41.835938 12.46875 -41.769531 12.46875 -41.6875 C 12.46875 -41.601562 12.46875 -41.535156 12.46875 -41.484375 C 12.414062 -40.953125 12.363281 -40.285156 12.3125 -39.484375 C 12.257812 -38.691406 12.328125 -37.945312 12.515625 -37.25 C 12.703125 -36.5625 13.085938 -36.054688 13.671875 -35.734375 C 13.992188 -35.578125 14.3125 -35.484375 14.625 -35.453125 C 14.945312 -35.421875 15.296875 -35.40625 15.671875 -35.40625 C 17.265625 -35.351562 18.875 -35.300781 20.5 -35.25 C 22.125 -35.195312 23.738281 -35.332031 25.34375 -35.65625 C 26.5625 -35.863281 27.691406 -36.488281 28.734375 -37.53125 C 29.773438 -38.570312 30.398438 -39.703125 30.609375 -40.921875 C 30.929688 -42.472656 30.757812 -43.804688 30.09375 -44.921875 C 29.425781 -46.046875 28.492188 -46.910156 27.296875 -47.515625 C 26.097656 -48.128906 24.804688 -48.492188 23.421875 -48.609375 C 22.617188 -48.710938 21.671875 -48.800781 20.578125 -48.875 C 19.484375 -48.957031 18.40625 -48.945312 17.34375 -48.84375 C 16.28125 -48.738281 15.347656 -48.429688 14.546875 -47.921875 C 13.742188 -47.410156 13.238281 -46.597656 13.03125 -45.484375 C 12.925781 -44.898438 12.832031 -44.300781 12.75 -43.6875 C 12.664062 -43.070312 12.570312 -42.472656 12.46875 -41.890625 Z M 13.109375 -13.109375 C 13.804688 -11.878906 14.804688 -11.066406 16.109375 -10.671875 C 17.410156 -10.273438 18.832031 -10.113281 20.375 -10.1875 C 21.925781 -10.269531 23.34375 -10.390625 24.625 -10.546875 C 26.164062 -10.710938 27.734375 -11.164062 29.328125 -11.90625 C 30.929688 -12.65625 32.160156 -13.695312 33.015625 -15.03125 C 33.816406 -16.144531 34.125 -17.273438 33.9375 -18.421875 C 33.75 -19.566406 33.265625 -20.632812 32.484375 -21.625 C 31.710938 -22.613281 30.820312 -23.398438 29.8125 -23.984375 C 28.644531 -24.722656 27.367188 -25.1875 25.984375 -25.375 C 24.597656 -25.5625 23.238281 -25.679688 21.90625 -25.734375 C 20.351562 -25.847656 18.84375 -25.71875 17.375 -25.34375 C 15.914062 -24.96875 14.707031 -24.300781 13.75 -23.34375 C 12.789062 -22.382812 12.234375 -21 12.078125 -19.1875 C 12.015625 -18.4375 12.023438 -17.6875 12.109375 -16.9375 C 12.191406 -16.195312 12.3125 -15.453125 12.46875 -14.703125 C 12.570312 -14.441406 12.664062 -14.175781 12.75 -13.90625 C 12.832031 -13.644531 12.953125 -13.378906 13.109375 -13.109375 Z M 13.109375 -13.109375 "/></g></g></g></g><g fill="#1b1b1b" fill-opacity="1"><g transform="translate(47.519533, 64.208907)"><g><path d="M 39.09375 -2 C 38.664062 -1.46875 38 -1.175781 37.09375 -1.125 C 36.238281 -1.125 35.410156 -1.296875 34.609375 -1.640625 C 33.804688 -1.984375 33.019531 -2.328125 32.25 -2.671875 C 31.476562 -3.023438 30.640625 -3.203125 29.734375 -3.203125 C 29.148438 -3.203125 28.5625 -3.160156 27.96875 -3.078125 C 27.382812 -2.992188 26.851562 -2.898438 26.375 -2.796875 L 25.984375 -2.71875 C 24.429688 -2.445312 22.921875 -2.097656 21.453125 -1.671875 C 19.992188 -1.253906 18.625 -0.832031 17.34375 -0.40625 C 16.757812 -0.238281 16.160156 -0.101562 15.546875 0 C 14.929688 0.101562 14.304688 0.15625 13.671875 0.15625 C 9.773438 0.15625 6.5 -1.382812 3.84375 -4.46875 C 0.800781 -7.9375 -0.398438 -12.203125 0.234375 -17.265625 C 0.503906 -19.285156 1.210938 -21.09375 2.359375 -22.6875 C 3.503906 -24.289062 4.957031 -25.519531 6.71875 -26.375 C 7.625 -26.800781 8.582031 -27.109375 9.59375 -27.296875 C 10.601562 -27.484375 11.640625 -27.65625 12.703125 -27.8125 C 12.972656 -27.8125 13.210938 -27.820312 13.421875 -27.84375 C 13.640625 -27.875 13.851562 -27.921875 14.0625 -27.984375 L 24.546875 -29.421875 C 25.929688 -29.628906 26.796875 -30.039062 27.140625 -30.65625 C 27.484375 -31.269531 27.679688 -31.765625 27.734375 -32.140625 C 27.835938 -33.046875 27.554688 -33.867188 26.890625 -34.609375 C 26.234375 -35.359375 25.453125 -35.863281 24.546875 -36.125 C 22.890625 -36.769531 21.179688 -37.09375 19.421875 -37.09375 L 19.1875 -37.09375 C 17.53125 -37.039062 15.957031 -36.800781 14.46875 -36.375 C 12.976562 -35.945312 11.539062 -35.441406 10.15625 -34.859375 C 9.726562 -34.640625 9.222656 -34.53125 8.640625 -34.53125 C 7.460938 -34.53125 6.300781 -34.914062 5.15625 -35.6875 C 4.007812 -36.457031 3.195312 -37.378906 2.71875 -38.453125 C 2.5 -38.878906 2.40625 -39.238281 2.4375 -39.53125 C 2.46875 -39.820312 2.507812 -40.046875 2.5625 -40.203125 C 2.875 -40.898438 3.492188 -41.523438 4.421875 -42.078125 C 5.359375 -42.640625 6.347656 -43.117188 7.390625 -43.515625 C 8.429688 -43.921875 9.296875 -44.226562 9.984375 -44.4375 C 13.828125 -45.664062 17.691406 -46.28125 21.578125 -46.28125 C 21.953125 -46.28125 22.328125 -46.28125 22.703125 -46.28125 C 23.078125 -46.28125 23.453125 -46.253906 23.828125 -46.203125 C 25.691406 -46.097656 27.753906 -45.738281 30.015625 -45.125 C 32.273438 -44.507812 34.207031 -43.347656 35.8125 -41.640625 C 37.675781 -39.617188 38.796875 -37.597656 39.171875 -35.578125 C 39.597656 -33.285156 39.742188 -30.898438 39.609375 -28.421875 C 39.472656 -25.941406 39.429688 -23.53125 39.484375 -21.1875 C 39.484375 -18.789062 39.484375 -16.378906 39.484375 -13.953125 C 39.484375 -11.523438 39.507812 -9.140625 39.5625 -6.796875 C 39.5625 -5.992188 39.601562 -5.140625 39.6875 -4.234375 C 39.769531 -3.328125 39.570312 -2.582031 39.09375 -2 Z M 27.5 -15.75 C 27.925781 -16.601562 28.054688 -17.320312 27.890625 -17.90625 C 27.734375 -18.488281 27.578125 -18.890625 27.421875 -19.109375 C 27.203125 -19.421875 26.863281 -19.722656 26.40625 -20.015625 C 25.957031 -20.316406 25.335938 -20.492188 24.546875 -20.546875 L 23.90625 -20.625 C 23.425781 -20.675781 22.929688 -20.703125 22.421875 -20.703125 C 21.910156 -20.703125 21.363281 -20.703125 20.78125 -20.703125 C 19.875 -20.703125 18.78125 -20.609375 17.5 -20.421875 C 16.226562 -20.234375 15.003906 -19.738281 13.828125 -18.9375 C 13.023438 -18.300781 12.519531 -17.640625 12.3125 -16.953125 C 12.09375 -16.359375 12.066406 -15.609375 12.234375 -14.703125 C 12.609375 -13.054688 13.328125 -11.78125 14.390625 -10.875 C 15.453125 -9.96875 16.726562 -9.515625 18.21875 -9.515625 C 20.09375 -9.515625 21.929688 -10.125 23.734375 -11.34375 C 25.546875 -12.570312 26.800781 -14.039062 27.5 -15.75 Z M 27.5 -15.75 "/></g></g></g><g fill="#1b1b1b" fill-opacity="1"><g transform="translate(87.398785, 64.208907)"><g><path d="M 27.5 -2.078125 C 24.570312 -0.691406 21.613281 0 18.625 0 C 16.914062 0 15.035156 -0.238281 12.984375 -0.71875 C 10.929688 -1.195312 8.929688 -1.804688 6.984375 -2.546875 C 5.046875 -3.296875 3.332031 -4.097656 1.84375 -4.953125 C 0.71875 -5.597656 0.128906 -6.25 0.078125 -6.90625 C 0.0234375 -7.570312 0.265625 -8.265625 0.796875 -8.984375 C 1.328125 -9.710938 1.832031 -10.5 2.3125 -11.34375 C 2.476562 -11.613281 2.65625 -11.867188 2.84375 -12.109375 C 3.03125 -12.347656 3.226562 -12.546875 3.4375 -12.703125 C 4.019531 -13.128906 4.628906 -13.265625 5.265625 -13.109375 C 5.910156 -12.953125 6.539062 -12.6875 7.15625 -12.3125 C 7.769531 -11.9375 8.316406 -11.613281 8.796875 -11.34375 C 10.441406 -10.4375 12.25 -9.769531 14.21875 -9.34375 C 16.195312 -8.925781 18.117188 -8.769531 19.984375 -8.875 C 21.367188 -8.976562 22.644531 -9.28125 23.8125 -9.78125 C 24.988281 -10.289062 25.679688 -11 25.890625 -11.90625 C 26.109375 -12.8125 25.472656 -13.878906 23.984375 -15.109375 C 22.015625 -16.648438 19.921875 -17.925781 17.703125 -18.9375 C 15.492188 -19.957031 13.21875 -20.835938 10.875 -21.578125 C 8.6875 -22.273438 6.925781 -23.316406 5.59375 -24.703125 C 4.257812 -26.085938 3.3125 -27.628906 2.75 -29.328125 C 2.195312 -31.035156 2.023438 -32.691406 2.234375 -34.296875 C 2.503906 -35.992188 3.171875 -37.613281 4.234375 -39.15625 C 5.296875 -40.707031 6.625 -42.066406 8.21875 -43.234375 C 9.820312 -44.410156 11.554688 -45.210938 13.421875 -45.640625 C 14.492188 -45.910156 15.535156 -46.109375 16.546875 -46.234375 C 17.554688 -46.367188 18.566406 -46.4375 19.578125 -46.4375 C 21.503906 -46.4375 23.398438 -46.207031 25.265625 -45.75 C 27.128906 -45.300781 28.910156 -44.679688 30.609375 -43.890625 C 32.160156 -43.191406 33.269531 -42.535156 33.9375 -41.921875 C 34.601562 -41.316406 34.84375 -40.585938 34.65625 -39.734375 C 34.46875 -38.878906 33.84375 -37.675781 32.78125 -36.125 C 31.976562 -34.957031 31.066406 -34.304688 30.046875 -34.171875 C 29.035156 -34.035156 27.941406 -34.179688 26.765625 -34.609375 C 25.597656 -35.035156 24.414062 -35.554688 23.21875 -36.171875 C 22.019531 -36.785156 20.847656 -37.304688 19.703125 -37.734375 C 18.554688 -38.160156 17.503906 -38.289062 16.546875 -38.125 C 15.585938 -37.96875 14.734375 -37.300781 13.984375 -36.125 C 13.296875 -34.957031 13.097656 -33.929688 13.390625 -33.046875 C 13.679688 -32.171875 14.28125 -31.410156 15.1875 -30.765625 C 16.09375 -30.128906 17.144531 -29.597656 18.34375 -29.171875 C 19.539062 -28.742188 20.695312 -28.367188 21.8125 -28.046875 C 22.9375 -27.734375 23.847656 -27.441406 24.546875 -27.171875 C 26.566406 -26.429688 28.535156 -25.523438 30.453125 -24.453125 C 32.367188 -23.390625 33.914062 -21.898438 35.09375 -19.984375 C 36.6875 -17.316406 37.253906 -14.820312 36.796875 -12.5 C 36.347656 -10.1875 35.269531 -8.132812 33.5625 -6.34375 C 31.863281 -4.5625 29.84375 -3.140625 27.5 -2.078125 Z M 27.5 -2.078125 "/></g></g></g><g fill="#1b1b1b" fill-opacity="1"><g transform="translate(124.480826, 64.208907)"><g><path d="M 23.578125 -7.90625 C 22.722656 -9.351562 21.773438 -10.703125 20.734375 -11.953125 C 19.703125 -13.203125 18.492188 -14.304688 17.109375 -15.265625 C 16.734375 -15.535156 16.359375 -15.671875 15.984375 -15.671875 C 15.929688 -15.671875 15.863281 -15.65625 15.78125 -15.625 C 15.707031 -15.601562 15.617188 -15.59375 15.515625 -15.59375 C 14.921875 -15.476562 14.492188 -15.15625 14.234375 -14.625 C 13.535156 -13.457031 13 -12.421875 12.625 -11.515625 C 12.257812 -10.609375 12.046875 -9.4375 11.984375 -8 C 11.929688 -7.144531 11.929688 -6.300781 11.984375 -5.46875 C 12.046875 -4.644531 12.101562 -3.804688 12.15625 -2.953125 C 12.257812 -2.046875 12.046875 -1.378906 11.515625 -0.953125 C 11.347656 -0.796875 11.15625 -0.691406 10.9375 -0.640625 C 10.726562 -0.585938 10.492188 -0.535156 10.234375 -0.484375 C 9.535156 -0.316406 8.519531 -0.15625 7.1875 0 C 5.863281 0.15625 4.597656 0.144531 3.390625 -0.03125 C 2.191406 -0.21875 1.410156 -0.765625 1.046875 -1.671875 C 0.554688 -2.953125 0.257812 -4.351562 0.15625 -5.875 C 0.0507812 -7.394531 0.0234375 -8.941406 0.078125 -10.515625 C 0.128906 -12.085938 0.128906 -13.539062 0.078125 -14.875 C 0.0234375 -17.375 0 -19.875 0 -22.375 C 0 -24.882812 0 -27.390625 0 -29.890625 C 0.0507812 -34.847656 0.101562 -39.816406 0.15625 -44.796875 C 0.207031 -49.785156 0.207031 -54.785156 0.15625 -59.796875 C 0.15625 -61.710938 1.035156 -62.644531 2.796875 -62.59375 C 3.429688 -62.59375 4.242188 -62.644531 5.234375 -62.75 C 6.222656 -62.851562 7.207031 -62.890625 8.1875 -62.859375 C 9.175781 -62.835938 10.03125 -62.65625 10.75 -62.3125 C 11.46875 -61.96875 11.851562 -61.34375 11.90625 -60.4375 C 12.019531 -59.050781 12.0625 -57.632812 12.03125 -56.1875 C 12 -54.75 11.984375 -53.335938 11.984375 -51.953125 C 11.984375 -49.554688 11.984375 -47.171875 11.984375 -44.796875 C 11.984375 -42.429688 11.957031 -40.050781 11.90625 -37.65625 C 11.90625 -36.695312 12.035156 -35.910156 12.296875 -35.296875 C 12.566406 -34.679688 13.050781 -34.050781 13.75 -33.40625 C 14.125 -33.039062 14.578125 -32.859375 15.109375 -32.859375 C 15.691406 -32.859375 16.195312 -33.070312 16.625 -33.5 C 18.8125 -35.84375 20.992188 -38.195312 23.171875 -40.5625 C 25.359375 -42.9375 27.707031 -45.109375 30.21875 -47.078125 C 32.082031 -48.628906 34.132812 -49.242188 36.375 -48.921875 C 37.175781 -48.867188 38.066406 -48.664062 39.046875 -48.3125 C 40.035156 -47.96875 40.796875 -47.476562 41.328125 -46.84375 C 41.859375 -46.207031 41.804688 -45.378906 41.171875 -44.359375 C 40.953125 -43.992188 40.679688 -43.648438 40.359375 -43.328125 C 40.046875 -43.003906 39.726562 -42.710938 39.40625 -42.453125 C 38.394531 -41.546875 37.195312 -40.476562 35.8125 -39.25 C 34.425781 -38.019531 33.078125 -36.6875 31.765625 -35.25 C 30.460938 -33.8125 29.367188 -32.316406 28.484375 -30.765625 C 27.609375 -29.222656 27.128906 -27.664062 27.046875 -26.09375 C 26.972656 -24.519531 27.523438 -22.960938 28.703125 -21.421875 C 30.992188 -18.328125 33.375 -15.128906 35.84375 -11.828125 C 38.320312 -8.523438 40.3125 -5.085938 41.8125 -1.515625 C 40.789062 -0.828125 39.570312 -0.46875 38.15625 -0.4375 C 36.75 -0.414062 35.3125 -0.523438 33.84375 -0.765625 C 32.382812 -1.003906 31.066406 -1.148438 29.890625 -1.203125 C 28.722656 -1.304688 27.789062 -1.753906 27.09375 -2.546875 C 26.40625 -3.347656 25.769531 -4.234375 25.1875 -5.203125 C 24.96875 -5.679688 24.710938 -6.144531 24.421875 -6.59375 C 24.128906 -7.050781 23.847656 -7.488281 23.578125 -7.90625 Z M 23.578125 -7.90625 "/></g></g></g><g fill="#1b1b1b" fill-opacity="1"><g transform="translate(166.438027, 64.208907)"><g><path d="M 0.078125 -23.1875 C 0.0234375 -26.164062 0.609375 -29.132812 1.828125 -32.09375 C 3.054688 -35.050781 4.765625 -37.648438 6.953125 -39.890625 C 9.035156 -42.023438 11.40625 -43.648438 14.0625 -44.765625 C 16.726562 -45.878906 19.472656 -46.4375 22.296875 -46.4375 C 22.566406 -46.4375 22.847656 -46.4375 23.140625 -46.4375 C 23.429688 -46.4375 23.710938 -46.4375 23.984375 -46.4375 C 23.984375 -46.4375 23.992188 -46.4375 24.015625 -46.4375 C 24.046875 -46.4375 24.0625 -46.4375 24.0625 -46.4375 C 28.695312 -46.4375 32.785156 -45.476562 36.328125 -43.5625 C 39.867188 -41.644531 42.648438 -38.976562 44.671875 -35.5625 C 46.703125 -32.15625 47.71875 -28.210938 47.71875 -23.734375 C 47.71875 -16.753906 45.535156 -11.082031 41.171875 -6.71875 C 39.035156 -4.582031 36.488281 -2.941406 33.53125 -1.796875 C 30.570312 -0.648438 27.363281 -0.078125 23.90625 -0.078125 C 20.59375 -0.078125 17.507812 -0.675781 14.65625 -1.875 C 11.8125 -3.070312 9.3125 -4.722656 7.15625 -6.828125 C 5 -8.929688 3.289062 -11.382812 2.03125 -14.1875 C 0.78125 -16.988281 0.128906 -19.988281 0.078125 -23.1875 Z M 23.65625 -36.9375 C 21.789062 -36.9375 19.976562 -36.332031 18.21875 -35.125 C 16.46875 -33.925781 15.019531 -32.378906 13.875 -30.484375 C 12.726562 -28.597656 12.128906 -26.617188 12.078125 -24.546875 C 12.015625 -22.253906 12.382812 -20.039062 13.1875 -17.90625 C 13.988281 -15.769531 15.210938 -13.984375 16.859375 -12.546875 C 18.515625 -11.109375 20.566406 -10.253906 23.015625 -9.984375 C 25.734375 -9.722656 28.023438 -10.148438 29.890625 -11.265625 C 31.753906 -12.390625 33.191406 -13.921875 34.203125 -15.859375 C 35.222656 -17.804688 35.785156 -19.9375 35.890625 -22.25 C 35.992188 -24.570312 35.644531 -26.800781 34.84375 -28.9375 C 34.050781 -31.070312 32.773438 -32.867188 31.015625 -34.328125 C 29.253906 -35.796875 27.015625 -36.664062 24.296875 -36.9375 C 24.191406 -36.9375 24.085938 -36.9375 23.984375 -36.9375 C 23.878906 -36.9375 23.769531 -36.9375 23.65625 -36.9375 Z M 23.65625 -36.9375 "/></g></g></g><g fill="#1b1b1b" fill-opacity="1"><g transform="translate(214.309347, 64.208907)"><g><path d="M 24.859375 -35.40625 C 24.585938 -35.25 24.28125 -35.128906 23.9375 -35.046875 C 23.59375 -34.972656 23.257812 -34.878906 22.9375 -34.765625 C 22.351562 -34.710938 21.738281 -34.671875 21.09375 -34.640625 C 20.457031 -34.617188 19.847656 -34.53125 19.265625 -34.375 C 17.984375 -34 16.890625 -33.316406 15.984375 -32.328125 C 15.078125 -31.347656 14.382812 -30.242188 13.90625 -29.015625 C 13 -26.566406 12.425781 -23.898438 12.1875 -21.015625 C 11.945312 -18.140625 11.867188 -15.234375 11.953125 -12.296875 C 12.035156 -9.367188 12.046875 -6.601562 11.984375 -4 L 11.984375 -2.796875 C 11.984375 -1.785156 11.597656 -1.078125 10.828125 -0.671875 C 10.054688 -0.273438 9.125 -0.0625 8.03125 -0.03125 C 6.9375 -0.0078125 5.867188 -0.0507812 4.828125 -0.15625 C 3.796875 -0.257812 2.984375 -0.34375 2.390625 -0.40625 C 1.859375 -0.40625 1.460938 -0.507812 1.203125 -0.71875 C 0.722656 -1.039062 0.414062 -1.65625 0.28125 -2.5625 C 0.144531 -3.46875 0.078125 -4.476562 0.078125 -5.59375 C 0.078125 -6.71875 0.113281 -7.785156 0.1875 -8.796875 C 0.269531 -9.804688 0.3125 -10.550781 0.3125 -11.03125 C 0.425781 -12.894531 0.535156 -14.757812 0.640625 -16.625 C 0.742188 -18.488281 0.796875 -20.351562 0.796875 -22.21875 C 0.796875 -25.84375 0.796875 -29.476562 0.796875 -33.125 C 0.796875 -36.78125 0.796875 -40.445312 0.796875 -44.125 C 0.796875 -45.03125 1.007812 -45.601562 1.4375 -45.84375 C 1.863281 -46.082031 2.394531 -46.175781 3.03125 -46.125 C 3.675781 -46.070312 4.316406 -46.070312 4.953125 -46.125 C 6.078125 -46.28125 7.171875 -46.359375 8.234375 -46.359375 C 10.421875 -46.359375 12.097656 -45.664062 13.265625 -44.28125 C 13.691406 -43.800781 14.226562 -43.5625 14.875 -43.5625 C 15.082031 -43.5625 15.265625 -43.585938 15.421875 -43.640625 C 16.117188 -43.691406 16.945312 -43.929688 17.90625 -44.359375 C 18.863281 -44.785156 19.863281 -45.195312 20.90625 -45.59375 C 21.945312 -46 22.921875 -46.269531 23.828125 -46.40625 C 24.734375 -46.539062 25.476562 -46.378906 26.0625 -45.921875 C 26.644531 -45.472656 26.9375 -44.554688 26.9375 -43.171875 C 26.9375 -42.472656 26.921875 -41.765625 26.890625 -41.046875 C 26.867188 -40.328125 26.832031 -39.617188 26.78125 -38.921875 C 26.726562 -38.554688 26.675781 -38.160156 26.625 -37.734375 C 26.570312 -37.304688 26.410156 -36.929688 26.140625 -36.609375 C 25.816406 -36.023438 25.390625 -35.625 24.859375 -35.40625 Z M 24.859375 -35.40625 "/></g></g></g><g fill="#1b1b1b" fill-opacity="1"><g transform="translate(241.401311, 64.208907)"><g><path d="M 39.09375 -2 C 38.664062 -1.46875 38 -1.175781 37.09375 -1.125 C 36.238281 -1.125 35.410156 -1.296875 34.609375 -1.640625 C 33.804688 -1.984375 33.019531 -2.328125 32.25 -2.671875 C 31.476562 -3.023438 30.640625 -3.203125 29.734375 -3.203125 C 29.148438 -3.203125 28.5625 -3.160156 27.96875 -3.078125 C 27.382812 -2.992188 26.851562 -2.898438 26.375 -2.796875 L 25.984375 -2.71875 C 24.429688 -2.445312 22.921875 -2.097656 21.453125 -1.671875 C 19.992188 -1.253906 18.625 -0.832031 17.34375 -0.40625 C 16.757812 -0.238281 16.160156 -0.101562 15.546875 0 C 14.929688 0.101562 14.304688 0.15625 13.671875 0.15625 C 9.773438 0.15625 6.5 -1.382812 3.84375 -4.46875 C 0.800781 -7.9375 -0.398438 -12.203125 0.234375 -17.265625 C 0.503906 -19.285156 1.210938 -21.09375 2.359375 -22.6875 C 3.503906 -24.289062 4.957031 -25.519531 6.71875 -26.375 C 7.625 -26.800781 8.582031 -27.109375 9.59375 -27.296875 C 10.601562 -27.484375 11.640625 -27.65625 12.703125 -27.8125 C 12.972656 -27.8125 13.210938 -27.820312 13.421875 -27.84375 C 13.640625 -27.875 13.851562 -27.921875 14.0625 -27.984375 L 24.546875 -29.421875 C 25.929688 -29.628906 26.796875 -30.039062 27.140625 -30.65625 C 27.484375 -31.269531 27.679688 -31.765625 27.734375 -32.140625 C 27.835938 -33.046875 27.554688 -33.867188 26.890625 -34.609375 C 26.234375 -35.359375 25.453125 -35.863281 24.546875 -36.125 C 22.890625 -36.769531 21.179688 -37.09375 19.421875 -37.09375 L 19.1875 -37.09375 C 17.53125 -37.039062 15.957031 -36.800781 14.46875 -36.375 C 12.976562 -35.945312 11.539062 -35.441406 10.15625 -34.859375 C 9.726562 -34.640625 9.222656 -34.53125 8.640625 -34.53125 C 7.460938 -34.53125 6.300781 -34.914062 5.15625 -35.6875 C 4.007812 -36.457031 3.195312 -37.378906 2.71875 -38.453125 C 2.5 -38.878906 2.40625 -39.238281 2.4375 -39.53125 C 2.46875 -39.820312 2.507812 -40.046875 2.5625 -40.203125 C 2.875 -40.898438 3.492188 -41.523438 4.421875 -42.078125 C 5.359375 -42.640625 6.347656 -43.117188 7.390625 -43.515625 C 8.429688 -43.921875 9.296875 -44.226562 9.984375 -44.4375 C 13.828125 -45.664062 17.691406 -46.28125 21.578125 -46.28125 C 21.953125 -46.28125 22.328125 -46.28125 22.703125 -46.28125 C 23.078125 -46.28125 23.453125 -46.253906 23.828125 -46.203125 C 25.691406 -46.097656 27.753906 -45.738281 30.015625 -45.125 C 32.273438 -44.507812 34.207031 -43.347656 35.8125 -41.640625 C 37.675781 -39.617188 38.796875 -37.597656 39.171875 -35.578125 C 39.597656 -33.285156 39.742188 -30.898438 39.609375 -28.421875 C 39.472656 -25.941406 39.429688 -23.53125 39.484375 -21.1875 C 39.484375 -18.789062 39.484375 -16.378906 39.484375 -13.953125 C 39.484375 -11.523438 39.507812 -9.140625 39.5625 -6.796875 C 39.5625 -5.992188 39.601562 -5.140625 39.6875 -4.234375 C 39.769531 -3.328125 39.570312 -2.582031 39.09375 -2 Z M 27.5 -15.75 C 27.925781 -16.601562 28.054688 -17.320312 27.890625 -17.90625 C 27.734375 -18.488281 27.578125 -18.890625 27.421875 -19.109375 C 27.203125 -19.421875 26.863281 -19.722656 26.40625 -20.015625 C 25.957031 -20.316406 25.335938 -20.492188 24.546875 -20.546875 L 23.90625 -20.625 C 23.425781 -20.675781 22.929688 -20.703125 22.421875 -20.703125 C 21.910156 -20.703125 21.363281 -20.703125 20.78125 -20.703125 C 19.875 -20.703125 18.78125 -20.609375 17.5 -20.421875 C 16.226562 -20.234375 15.003906 -19.738281 13.828125 -18.9375 C 13.023438 -18.300781 12.519531 -17.640625 12.3125 -16.953125 C 12.09375 -16.359375 12.066406 -15.609375 12.234375 -14.703125 C 12.609375 -13.054688 13.328125 -11.78125 14.390625 -10.875 C 15.453125 -9.96875 16.726562 -9.515625 18.21875 -9.515625 C 20.09375 -9.515625 21.929688 -10.125 23.734375 -11.34375 C 25.546875 -12.570312 26.800781 -14.039062 27.5 -15.75 Z M 27.5 -15.75 "/></g></g></g><g fill="#1b1b1b" fill-opacity="1"><g transform="translate(281.291503, 64.208907)"><g/></g></g></g></g><g clip-path="url(#dbf1009f35)"><g clip-path="url(#7040c91e96)"><g transform="matrix(1, 0, 0, 1, 329, 159)"><g clip-path="url(#3c19880f1a)"><g clip-path="url(#afda0a68bc)"><g clip-path="url(#5432bcb042)"><path fill="#1b1b1b" d="M 0.667969 0.433594 L 15.816406 0.433594 L 15.816406 15.585938 L 0.667969 15.585938 Z M 0.667969 0.433594 " fill-opacity="1" fill-rule="nonzero"/></g></g></g></g></g></g><g fill="#000000" fill-opacity="1"><g transform="translate(47.930044, 185.513558)"><g><path d="M 3.234375 -0.015625 L 2.421875 -0.015625 L 1.15625 -6.0625 L 1.15625 0 L 0.421875 0 L 0.421875 -7.609375 L 1.609375 -7.609375 L 2.859375 -1.53125 L 4.0625 -7.609375 L 5.25 -7.609375 L 5.25 0 L 4.4375 0 L 4.4375 -6.109375 Z M 3.234375 -0.015625 "/></g></g></g><g fill="#000000" fill-opacity="1"><g transform="translate(53.605375, 185.513558)"><g><path d="M 1.234375 -1.796875 C 1.234375 -1.441406 1.300781 -1.164062 1.4375 -0.96875 C 1.582031 -0.78125 1.8125 -0.6875 2.125 -0.6875 C 2.425781 -0.6875 2.648438 -0.78125 2.796875 -0.96875 C 2.941406 -1.164062 3.015625 -1.441406 3.015625 -1.796875 L 3.015625 -7.609375 L 3.796875 -7.609375 L 3.796875 -1.828125 C 3.796875 -1.253906 3.65625 -0.789062 3.375 -0.4375 C 3.101562 -0.0820312 2.675781 0.09375 2.09375 0.09375 C 1.519531 0.09375 1.09375 -0.0820312 0.8125 -0.4375 C 0.539062 -0.789062 0.40625 -1.253906 0.40625 -1.828125 L 0.40625 -7.609375 L 1.234375 -7.609375 Z M 1.234375 -1.796875 "/></g></g></g><g fill="#000000" fill-opacity="1"><g transform="translate(57.80491, 185.513558)"><g><path d="M 2.03125 -7.671875 C 2.613281 -7.671875 3.039062 -7.5 3.3125 -7.15625 C 3.582031 -6.8125 3.71875 -6.351562 3.71875 -5.78125 L 3.71875 -5.578125 L 2.921875 -5.578125 L 2.921875 -5.828125 C 2.921875 -6.171875 2.851562 -6.4375 2.71875 -6.625 C 2.582031 -6.8125 2.359375 -6.90625 2.046875 -6.90625 C 1.742188 -6.90625 1.523438 -6.8125 1.390625 -6.625 C 1.253906 -6.4375 1.1875 -6.171875 1.1875 -5.828125 C 1.1875 -5.546875 1.25 -5.300781 1.375 -5.09375 C 1.5 -4.882812 1.65625 -4.691406 1.84375 -4.515625 C 2.03125 -4.335938 2.234375 -4.160156 2.453125 -3.984375 C 2.679688 -3.816406 2.890625 -3.628906 3.078125 -3.421875 C 3.265625 -3.222656 3.421875 -2.992188 3.546875 -2.734375 C 3.671875 -2.484375 3.734375 -2.179688 3.734375 -1.828125 C 3.734375 -1.242188 3.59375 -0.78125 3.3125 -0.4375 C 3.039062 -0.09375 2.609375 0.078125 2.015625 0.078125 C 1.429688 0.078125 1 -0.09375 0.71875 -0.4375 C 0.445312 -0.78125 0.3125 -1.242188 0.3125 -1.828125 L 0.3125 -2.265625 L 1.109375 -2.265625 L 1.109375 -1.78125 C 1.109375 -1.4375 1.179688 -1.164062 1.328125 -0.96875 C 1.472656 -0.78125 1.695312 -0.6875 2 -0.6875 C 2.300781 -0.6875 2.523438 -0.78125 2.671875 -0.96875 C 2.816406 -1.164062 2.890625 -1.4375 2.890625 -1.78125 C 2.890625 -2.0625 2.828125 -2.304688 2.703125 -2.515625 C 2.578125 -2.722656 2.414062 -2.914062 2.21875 -3.09375 C 2.03125 -3.269531 1.828125 -3.441406 1.609375 -3.609375 C 1.398438 -3.773438 1.203125 -3.957031 1.015625 -4.15625 C 0.828125 -4.363281 0.664062 -4.597656 0.53125 -4.859375 C 0.40625 -5.117188 0.34375 -5.425781 0.34375 -5.78125 C 0.34375 -6.363281 0.476562 -6.820312 0.75 -7.15625 C 1.03125 -7.5 1.457031 -7.671875 2.03125 -7.671875 Z M 2.03125 -7.671875 "/></g></g></g><g fill="#000000" fill-opacity="1"><g transform="translate(61.841664, 185.513558)"><g><path d="M 1.28125 -7.609375 L 1.28125 0 L 0.4375 0 L 0.4375 -7.609375 Z M 1.28125 -7.609375 "/></g></g></g><g fill="#000000" fill-opacity="1"><g transform="translate(63.556206, 185.513558)"><g><path d="M 2.078125 -7.671875 C 2.660156 -7.671875 3.09375 -7.5 3.375 -7.15625 C 3.65625 -6.8125 3.796875 -6.347656 3.796875 -5.765625 L 3.796875 -5.078125 L 2.984375 -5.078125 L 2.984375 -5.8125 C 2.984375 -6.15625 2.910156 -6.421875 2.765625 -6.609375 C 2.628906 -6.804688 2.40625 -6.90625 2.09375 -6.90625 C 1.789062 -6.90625 1.566406 -6.804688 1.421875 -6.609375 C 1.273438 -6.421875 1.203125 -6.15625 1.203125 -5.8125 L 1.203125 -1.796875 C 1.203125 -1.441406 1.273438 -1.164062 1.421875 -0.96875 C 1.566406 -0.78125 1.789062 -0.6875 2.09375 -0.6875 C 2.40625 -0.6875 2.628906 -0.78125 2.765625 -0.96875 C 2.910156 -1.164062 2.984375 -1.441406 2.984375 -1.796875 L 2.984375 -2.78125 L 3.796875 -2.78125 L 3.796875 -1.828125 C 3.796875 -1.253906 3.65625 -0.789062 3.375 -0.4375 C 3.09375 -0.09375 2.660156 0.078125 2.078125 0.078125 C 1.492188 0.078125 1.0625 -0.09375 0.78125 -0.4375 C 0.507812 -0.789062 0.375 -1.253906 0.375 -1.828125 L 0.375 -5.765625 C 0.375 -6.054688 0.40625 -6.316406 0.46875 -6.546875 C 0.539062 -6.785156 0.644531 -6.988281 0.78125 -7.15625 C 0.925781 -7.320312 1.101562 -7.445312 1.3125 -7.53125 C 1.53125 -7.625 1.785156 -7.671875 2.078125 -7.671875 Z M 2.078125 -7.671875 "/></g></g></g><g fill="#000000" fill-opacity="1"><g transform="translate(67.679776, 185.513558)"><g/></g></g><g fill="#000000" fill-opacity="1"><g transform="translate(69.361759, 185.513558)"><g><path d="M 2.03125 -7.671875 C 2.613281 -7.671875 3.039062 -7.5 3.3125 -7.15625 C 3.582031 -6.8125 3.71875 -6.351562 3.71875 -5.78125 L 3.71875 -5.578125 L 2.921875 -5.578125 L 2.921875 -5.828125 C 2.921875 -6.171875 2.851562 -6.4375 2.71875 -6.625 C 2.582031 -6.8125 2.359375 -6.90625 2.046875 -6.90625 C 1.742188 -6.90625 1.523438 -6.8125 1.390625 -6.625 C 1.253906 -6.4375 1.1875 -6.171875 1.1875 -5.828125 C 1.1875 -5.546875 1.25 -5.300781 1.375 -5.09375 C 1.5 -4.882812 1.65625 -4.691406 1.84375 -4.515625 C 2.03125 -4.335938 2.234375 -4.160156 2.453125 -3.984375 C 2.679688 -3.816406 2.890625 -3.628906 3.078125 -3.421875 C 3.265625 -3.222656 3.421875 -2.992188 3.546875 -2.734375 C 3.671875 -2.484375 3.734375 -2.179688 3.734375 -1.828125 C 3.734375 -1.242188 3.59375 -0.78125 3.3125 -0.4375 C 3.039062 -0.09375 2.609375 0.078125 2.015625 0.078125 C 1.429688 0.078125 1 -0.09375 0.71875 -0.4375 C 0.445312 -0.78125 0.3125 -1.242188 0.3125 -1.828125 L 0.3125 -2.265625 L 1.109375 -2.265625 L 1.109375 -1.78125 C 1.109375 -1.4375 1.179688 -1.164062 1.328125 -0.96875 C 1.472656 -0.78125 1.695312 -0.6875 2 -0.6875 C 2.300781 -0.6875 2.523438 -0.78125 2.671875 -0.96875 C 2.816406 -1.164062 2.890625 -1.4375 2.890625 -1.78125 C 2.890625 -2.0625 2.828125 -2.304688 2.703125 -2.515625 C 2.578125 -2.722656 2.414062 -2.914062 2.21875 -3.09375 C 2.03125 -3.269531 1.828125 -3.441406 1.609375 -3.609375 C 1.398438 -3.773438 1.203125 -3.957031 1.015625 -4.15625 C 0.828125 -4.363281 0.664062 -4.597656 0.53125 -4.859375 C 0.40625 -5.117188 0.34375 -5.425781 0.34375 -5.78125 C 0.34375 -6.363281 0.476562 -6.820312 0.75 -7.15625 C 1.03125 -7.5 1.457031 -7.671875 2.03125 -7.671875 Z M 2.03125 -7.671875 "/></g></g></g><g fill="#000000" fill-opacity="1"><g transform="translate(73.398514, 185.513558)"><g><path d="M 1.546875 0 L 1.546875 -6.828125 L 0.140625 -6.828125 L 0.140625 -7.609375 L 3.796875 -7.609375 L 3.796875 -6.828125 L 2.390625 -6.828125 L 2.390625 0 Z M 1.546875 0 "/></g></g></g><g fill="#000000" fill-opacity="1"><g transform="translate(77.337604, 185.513558)"><g><path d="M 1.234375 -1.796875 C 1.234375 -1.441406 1.300781 -1.164062 1.4375 -0.96875 C 1.582031 -0.78125 1.8125 -0.6875 2.125 -0.6875 C 2.425781 -0.6875 2.648438 -0.78125 2.796875 -0.96875 C 2.941406 -1.164062 3.015625 -1.441406 3.015625 -1.796875 L 3.015625 -7.609375 L 3.796875 -7.609375 L 3.796875 -1.828125 C 3.796875 -1.253906 3.65625 -0.789062 3.375 -0.4375 C 3.101562 -0.0820312 2.675781 0.09375 2.09375 0.09375 C 1.519531 0.09375 1.09375 -0.0820312 0.8125 -0.4375 C 0.539062 -0.789062 0.40625 -1.253906 0.40625 -1.828125 L 0.40625 -7.609375 L 1.234375 -7.609375 Z M 1.234375 -1.796875 "/></g></g></g><g fill="#000000" fill-opacity="1"><g transform="translate(81.537139, 185.513558)"><g><path d="M 2.21875 -7.609375 C 2.8125 -7.609375 3.242188 -7.4375 3.515625 -7.09375 C 3.796875 -6.757812 3.9375 -6.300781 3.9375 -5.71875 L 3.9375 -1.875 C 3.9375 -1.289062 3.796875 -0.832031 3.515625 -0.5 C 3.242188 -0.164062 2.8125 0 2.21875 0 L 0.4375 0 L 0.4375 -7.609375 Z M 2.203125 -0.765625 C 2.503906 -0.765625 2.726562 -0.859375 2.875 -1.046875 C 3.03125 -1.234375 3.109375 -1.5 3.109375 -1.84375 L 3.109375 -5.75 C 3.109375 -6.101562 3.03125 -6.367188 2.875 -6.546875 C 2.726562 -6.734375 2.5 -6.828125 2.1875 -6.828125 L 1.28125 -6.828125 L 1.28125 -0.765625 Z M 2.203125 -0.765625 "/></g></g></g><g fill="#000000" fill-opacity="1"><g transform="translate(85.834338, 185.513558)"><g><path d="M 1.28125 -7.609375 L 1.28125 0 L 0.4375 0 L 0.4375 -7.609375 Z M 1.28125 -7.609375 "/></g></g></g><g fill="#000000" fill-opacity="1"><g transform="translate(87.548881, 185.513558)"><g><path d="M 0.375 -5.765625 C 0.375 -6.347656 0.515625 -6.8125 0.796875 -7.15625 C 1.085938 -7.5 1.523438 -7.671875 2.109375 -7.671875 C 2.691406 -7.671875 3.128906 -7.5 3.421875 -7.15625 C 3.710938 -6.8125 3.859375 -6.347656 3.859375 -5.765625 L 3.859375 -1.828125 C 3.859375 -1.253906 3.710938 -0.789062 3.421875 -0.4375 C 3.128906 -0.09375 2.691406 0.078125 2.109375 0.078125 C 1.523438 0.078125 1.085938 -0.09375 0.796875 -0.4375 C 0.515625 -0.789062 0.375 -1.253906 0.375 -1.828125 Z M 1.203125 -1.796875 C 1.203125 -1.441406 1.273438 -1.164062 1.421875 -0.96875 C 1.578125 -0.78125 1.804688 -0.6875 2.109375 -0.6875 C 2.421875 -0.6875 2.648438 -0.78125 2.796875 -0.96875 C 2.941406 -1.164062 3.015625 -1.441406 3.015625 -1.796875 L 3.015625 -5.8125 C 3.015625 -6.15625 2.941406 -6.421875 2.796875 -6.609375 C 2.648438 -6.804688 2.421875 -6.90625 2.109375 -6.90625 C 1.804688 -6.90625 1.578125 -6.804688 1.421875 -6.609375 C 1.273438 -6.421875 1.203125 -6.15625 1.203125 -5.8125 Z M 1.203125 -1.796875 "/></g></g></g><g fill="#000000" fill-opacity="1"><g transform="translate(306.098833, 183.063019)"><g><path d="M 2.03125 -7.671875 C 2.613281 -7.671875 3.039062 -7.5 3.3125 -7.15625 C 3.582031 -6.8125 3.71875 -6.351562 3.71875 -5.78125 L 3.71875 -5.578125 L 2.921875 -5.578125 L 2.921875 -5.828125 C 2.921875 -6.171875 2.851562 -6.4375 2.71875 -6.625 C 2.582031 -6.8125 2.359375 -6.90625 2.046875 -6.90625 C 1.742188 -6.90625 1.523438 -6.8125 1.390625 -6.625 C 1.253906 -6.4375 1.1875 -6.171875 1.1875 -5.828125 C 1.1875 -5.546875 1.25 -5.300781 1.375 -5.09375 C 1.5 -4.882812 1.65625 -4.691406 1.84375 -4.515625 C 2.03125 -4.335938 2.234375 -4.160156 2.453125 -3.984375 C 2.679688 -3.816406 2.890625 -3.628906 3.078125 -3.421875 C 3.265625 -3.222656 3.421875 -2.992188 3.546875 -2.734375 C 3.671875 -2.484375 3.734375 -2.179688 3.734375 -1.828125 C 3.734375 -1.242188 3.59375 -0.78125 3.3125 -0.4375 C 3.039062 -0.09375 2.609375 0.078125 2.015625 0.078125 C 1.429688 0.078125 1 -0.09375 0.71875 -0.4375 C 0.445312 -0.78125 0.3125 -1.242188 0.3125 -1.828125 L 0.3125 -2.265625 L 1.109375 -2.265625 L 1.109375 -1.78125 C 1.109375 -1.4375 1.179688 -1.164062 1.328125 -0.96875 C 1.472656 -0.78125 1.695312 -0.6875 2 -0.6875 C 2.300781 -0.6875 2.523438 -0.78125 2.671875 -0.96875 C 2.816406 -1.164062 2.890625 -1.4375 2.890625 -1.78125 C 2.890625 -2.0625 2.828125 -2.304688 2.703125 -2.515625 C 2.578125 -2.722656 2.414062 -2.914062 2.21875 -3.09375 C 2.03125 -3.269531 1.828125 -3.441406 1.609375 -3.609375 C 1.398438 -3.773438 1.203125 -3.957031 1.015625 -4.15625 C 0.828125 -4.363281 0.664062 -4.597656 0.53125 -4.859375 C 0.40625 -5.117188 0.34375 -5.425781 0.34375 -5.78125 C 0.34375 -6.363281 0.476562 -6.820312 0.75 -7.15625 C 1.03125 -7.5 1.457031 -7.671875 2.03125 -7.671875 Z M 2.03125 -7.671875 "/></g></g></g><g fill="#000000" fill-opacity="1"><g transform="translate(310.135587, 183.063019)"><g><path d="M 1.28125 -7.609375 L 1.28125 0 L 0.4375 0 L 0.4375 -7.609375 Z M 1.28125 -7.609375 "/></g></g></g><g fill="#000000" fill-opacity="1"><g transform="translate(311.850129, 183.063019)"><g><path d="M 1.1875 0 L 0.421875 0 L 0.421875 -7.609375 L 1.5 -7.609375 L 3.265625 -2.109375 L 3.265625 -7.609375 L 4 -7.609375 L 4 0 L 3.125 0 L 1.1875 -6.140625 Z M 1.1875 0 "/></g></g></g><g fill="#000000" fill-opacity="1"><g transform="translate(316.288388, 183.063019)"><g><path d="M 2.078125 -7.671875 C 2.660156 -7.671875 3.09375 -7.5 3.375 -7.15625 C 3.65625 -6.8125 3.796875 -6.347656 3.796875 -5.765625 L 3.796875 -5.078125 L 2.984375 -5.078125 L 2.984375 -5.8125 C 2.984375 -6.15625 2.910156 -6.421875 2.765625 -6.609375 C 2.628906 -6.804688 2.40625 -6.90625 2.09375 -6.90625 C 1.789062 -6.90625 1.566406 -6.804688 1.421875 -6.609375 C 1.273438 -6.421875 1.203125 -6.15625 1.203125 -5.8125 L 1.203125 -1.796875 C 1.203125 -1.441406 1.273438 -1.164062 1.421875 -0.96875 C 1.566406 -0.78125 1.789062 -0.6875 2.09375 -0.6875 C 2.40625 -0.6875 2.628906 -0.78125 2.765625 -0.96875 C 2.910156 -1.164062 2.984375 -1.441406 2.984375 -1.796875 L 2.984375 -2.78125 L 3.796875 -2.78125 L 3.796875 -1.828125 C 3.796875 -1.253906 3.65625 -0.789062 3.375 -0.4375 C 3.09375 -0.09375 2.660156 0.078125 2.078125 0.078125 C 1.492188 0.078125 1.0625 -0.09375 0.78125 -0.4375 C 0.507812 -0.789062 0.375 -1.253906 0.375 -1.828125 L 0.375 -5.765625 C 0.375 -6.054688 0.40625 -6.316406 0.46875 -6.546875 C 0.539062 -6.785156 0.644531 -6.988281 0.78125 -7.15625 C 0.925781 -7.320312 1.101562 -7.445312 1.3125 -7.53125 C 1.53125 -7.625 1.785156 -7.671875 2.078125 -7.671875 Z M 2.078125 -7.671875 "/></g></g></g><g fill="#000000" fill-opacity="1"><g transform="translate(320.411957, 183.063019)"><g><path d="M 3.140625 -4.234375 L 3.140625 -3.46875 L 1.28125 -3.46875 L 1.28125 -0.765625 L 3.5625 -0.765625 L 3.5625 0 L 0.4375 0 L 0.4375 -7.609375 L 3.5625 -7.609375 L 3.5625 -6.828125 L 1.28125 -6.828125 L 1.28125 -4.234375 Z M 3.140625 -4.234375 "/></g></g></g><g fill="#000000" fill-opacity="1"><g transform="translate(47.930044, 194.129063)"><g><path d="M 1.796875 -6.5 C 2.304688 -6.5 2.675781 -6.359375 2.90625 -6.078125 C 3.132812 -5.796875 3.25 -5.40625 3.25 -4.90625 L 3.25 -4.125 C 3.25 -3.601562 3.125 -3.210938 2.875 -2.953125 C 2.632812 -2.691406 2.253906 -2.5625 1.734375 -2.5625 L 1.09375 -2.5625 L 1.09375 0 L 0.375 0 L 0.375 -6.5 Z M 1.734375 -3.21875 C 2.003906 -3.21875 2.203125 -3.28125 2.328125 -3.40625 C 2.460938 -3.539062 2.53125 -3.765625 2.53125 -4.078125 L 2.53125 -4.953125 C 2.53125 -5.242188 2.472656 -5.460938 2.359375 -5.609375 C 2.242188 -5.765625 2.054688 -5.84375 1.796875 -5.84375 L 1.09375 -5.84375 L 1.09375 -3.21875 Z M 1.734375 -3.21875 "/></g></g></g><g fill="#000000" fill-opacity="1"><g transform="translate(51.396848, 194.129063)"><g><path d="M 1.109375 -1.3125 L 0.859375 0 L 0.1875 0 L 1.421875 -6.5 L 2.484375 -6.5 L 3.71875 0 L 3 0 L 2.75 -1.3125 Z M 1.203125 -1.9375 L 2.640625 -1.9375 L 1.90625 -5.6875 Z M 1.203125 -1.9375 "/></g></g></g><g fill="#000000" fill-opacity="1"><g transform="translate(55.308587, 194.129063)"><g><path d="M 1.8125 -6.5 C 2.332031 -6.5 2.703125 -6.367188 2.921875 -6.109375 C 3.148438 -5.859375 3.265625 -5.492188 3.265625 -5.015625 L 3.265625 -4.484375 C 3.265625 -4.117188 3.195312 -3.828125 3.0625 -3.609375 C 2.9375 -3.390625 2.734375 -3.234375 2.453125 -3.140625 C 2.753906 -3.054688 2.96875 -2.894531 3.09375 -2.65625 C 3.21875 -2.425781 3.28125 -2.140625 3.28125 -1.796875 L 3.28125 -0.78125 C 3.28125 -0.632812 3.285156 -0.492188 3.296875 -0.359375 C 3.304688 -0.234375 3.34375 -0.113281 3.40625 0 L 2.671875 0 C 2.628906 -0.09375 2.597656 -0.191406 2.578125 -0.296875 C 2.554688 -0.410156 2.546875 -0.570312 2.546875 -0.78125 L 2.546875 -1.8125 C 2.546875 -2.175781 2.460938 -2.425781 2.296875 -2.5625 C 2.140625 -2.707031 1.910156 -2.78125 1.609375 -2.78125 L 1.09375 -2.78125 L 1.09375 0 L 0.375 0 L 0.375 -6.5 Z M 1.640625 -3.4375 C 1.921875 -3.4375 2.140625 -3.492188 2.296875 -3.609375 C 2.460938 -3.734375 2.546875 -3.972656 2.546875 -4.328125 L 2.546875 -4.953125 C 2.546875 -5.242188 2.488281 -5.460938 2.375 -5.609375 C 2.257812 -5.765625 2.066406 -5.84375 1.796875 -5.84375 L 1.09375 -5.84375 L 1.09375 -3.4375 Z M 1.640625 -3.4375 "/></g></g></g><g fill="#000000" fill-opacity="1"><g transform="translate(58.960786, 194.129063)"><g><path d="M 1.09375 -6.5 L 1.09375 0 L 0.375 0 L 0.375 -6.5 Z M 1.09375 -6.5 "/></g></g></g><g fill="#000000" fill-opacity="1"><g transform="translate(60.425378, 194.129063)"><g><path d="M 1.734375 -6.5625 C 2.234375 -6.5625 2.597656 -6.414062 2.828125 -6.125 C 3.066406 -5.832031 3.1875 -5.4375 3.1875 -4.9375 L 3.1875 -4.765625 L 2.5 -4.765625 L 2.5 -4.96875 C 2.5 -5.269531 2.4375 -5.5 2.3125 -5.65625 C 2.195312 -5.820312 2.007812 -5.90625 1.75 -5.90625 C 1.488281 -5.90625 1.300781 -5.820312 1.1875 -5.65625 C 1.070312 -5.5 1.015625 -5.273438 1.015625 -4.984375 C 1.015625 -4.742188 1.066406 -4.53125 1.171875 -4.34375 C 1.285156 -4.164062 1.421875 -4 1.578125 -3.84375 C 1.734375 -3.695312 1.90625 -3.550781 2.09375 -3.40625 C 2.289062 -3.257812 2.46875 -3.097656 2.625 -2.921875 C 2.789062 -2.753906 2.925781 -2.5625 3.03125 -2.34375 C 3.132812 -2.125 3.1875 -1.863281 3.1875 -1.5625 C 3.1875 -1.0625 3.066406 -0.664062 2.828125 -0.375 C 2.597656 -0.0820312 2.226562 0.0625 1.71875 0.0625 C 1.21875 0.0625 0.847656 -0.0820312 0.609375 -0.375 C 0.378906 -0.664062 0.265625 -1.0625 0.265625 -1.5625 L 0.265625 -1.9375 L 0.953125 -1.9375 L 0.953125 -1.515625 C 0.953125 -1.222656 1.007812 -0.992188 1.125 -0.828125 C 1.25 -0.671875 1.441406 -0.59375 1.703125 -0.59375 C 1.960938 -0.59375 2.15625 -0.671875 2.28125 -0.828125 C 2.40625 -0.992188 2.46875 -1.222656 2.46875 -1.515625 C 2.46875 -1.765625 2.410156 -1.972656 2.296875 -2.140625 C 2.191406 -2.316406 2.054688 -2.484375 1.890625 -2.640625 C 1.734375 -2.796875 1.5625 -2.941406 1.375 -3.078125 C 1.195312 -3.222656 1.023438 -3.382812 0.859375 -3.5625 C 0.703125 -3.738281 0.566406 -3.9375 0.453125 -4.15625 C 0.347656 -4.375 0.296875 -4.632812 0.296875 -4.9375 C 0.296875 -5.4375 0.410156 -5.832031 0.640625 -6.125 C 0.878906 -6.414062 1.242188 -6.5625 1.734375 -6.5625 Z M 1.734375 -6.5625 "/></g></g></g><g fill="#000000" fill-opacity="1"><g transform="translate(309.82686, 190.501058)"><g><path d="M 1.828125 -6.5625 C 2.335938 -6.5625 2.707031 -6.410156 2.9375 -6.109375 C 3.175781 -5.816406 3.296875 -5.421875 3.296875 -4.921875 C 3.296875 -4.585938 3.238281 -4.289062 3.125 -4.03125 C 3.019531 -3.769531 2.882812 -3.523438 2.71875 -3.296875 C 2.5625 -3.066406 2.382812 -2.851562 2.1875 -2.65625 C 2 -2.457031 1.820312 -2.257812 1.65625 -2.0625 C 1.5 -1.863281 1.363281 -1.65625 1.25 -1.4375 C 1.132812 -1.226562 1.078125 -1.003906 1.078125 -0.765625 L 1.078125 -0.65625 L 3.21875 -0.65625 L 3.21875 0 L 0.375 0 L 0.375 -0.5625 C 0.375 -0.90625 0.425781 -1.207031 0.53125 -1.46875 C 0.644531 -1.738281 0.78125 -1.984375 0.9375 -2.203125 C 1.101562 -2.421875 1.28125 -2.628906 1.46875 -2.828125 C 1.65625 -3.023438 1.832031 -3.222656 2 -3.421875 C 2.164062 -3.628906 2.300781 -3.847656 2.40625 -4.078125 C 2.519531 -4.316406 2.578125 -4.585938 2.578125 -4.890625 C 2.578125 -5.222656 2.515625 -5.472656 2.390625 -5.640625 C 2.273438 -5.816406 2.082031 -5.90625 1.8125 -5.90625 C 1.539062 -5.90625 1.34375 -5.816406 1.21875 -5.640625 C 1.101562 -5.472656 1.046875 -5.242188 1.046875 -4.953125 L 1.046875 -4.375 L 0.375 -4.375 L 0.375 -4.90625 C 0.375 -5.40625 0.488281 -5.804688 0.71875 -6.109375 C 0.957031 -6.410156 1.328125 -6.5625 1.828125 -6.5625 Z M 1.828125 -6.5625 "/></g></g></g><g fill="#000000" fill-opacity="1"><g transform="translate(313.41417, 190.501058)"><g><path d="M 0.3125 -4.921875 C 0.3125 -5.429688 0.429688 -5.832031 0.671875 -6.125 C 0.921875 -6.414062 1.296875 -6.5625 1.796875 -6.5625 C 2.296875 -6.5625 2.671875 -6.414062 2.921875 -6.125 C 3.171875 -5.832031 3.296875 -5.429688 3.296875 -4.921875 L 3.296875 -1.578125 C 3.296875 -1.078125 3.171875 -0.675781 2.921875 -0.375 C 2.671875 -0.0820312 2.296875 0.0625 1.796875 0.0625 C 1.296875 0.0625 0.921875 -0.0820312 0.671875 -0.375 C 0.429688 -0.675781 0.3125 -1.078125 0.3125 -1.578125 Z M 1.03125 -1.53125 C 1.03125 -1.226562 1.09375 -0.992188 1.21875 -0.828125 C 1.34375 -0.671875 1.535156 -0.59375 1.796875 -0.59375 C 2.066406 -0.59375 2.265625 -0.671875 2.390625 -0.828125 C 2.515625 -0.992188 2.578125 -1.226562 2.578125 -1.53125 L 2.578125 -4.96875 C 2.578125 -5.257812 2.515625 -5.488281 2.390625 -5.65625 C 2.265625 -5.820312 2.066406 -5.90625 1.796875 -5.90625 C 1.535156 -5.90625 1.34375 -5.820312 1.21875 -5.65625 C 1.09375 -5.488281 1.03125 -5.257812 1.03125 -4.96875 Z M 1.03125 -1.53125 "/></g></g></g><g fill="#000000" fill-opacity="1"><g transform="translate(317.02002, 190.501058)"><g><path d="M 1.828125 -6.5625 C 2.335938 -6.5625 2.707031 -6.410156 2.9375 -6.109375 C 3.175781 -5.816406 3.296875 -5.421875 3.296875 -4.921875 C 3.296875 -4.585938 3.238281 -4.289062 3.125 -4.03125 C 3.019531 -3.769531 2.882812 -3.523438 2.71875 -3.296875 C 2.5625 -3.066406 2.382812 -2.851562 2.1875 -2.65625 C 2 -2.457031 1.820312 -2.257812 1.65625 -2.0625 C 1.5 -1.863281 1.363281 -1.65625 1.25 -1.4375 C 1.132812 -1.226562 1.078125 -1.003906 1.078125 -0.765625 L 1.078125 -0.65625 L 3.21875 -0.65625 L 3.21875 0 L 0.375 0 L 0.375 -0.5625 C 0.375 -0.90625 0.425781 -1.207031 0.53125 -1.46875 C 0.644531 -1.738281 0.78125 -1.984375 0.9375 -2.203125 C 1.101562 -2.421875 1.28125 -2.628906 1.46875 -2.828125 C 1.65625 -3.023438 1.832031 -3.222656 2 -3.421875 C 2.164062 -3.628906 2.300781 -3.847656 2.40625 -4.078125 C 2.519531 -4.316406 2.578125 -4.585938 2.578125 -4.890625 C 2.578125 -5.222656 2.515625 -5.472656 2.390625 -5.640625 C 2.273438 -5.816406 2.082031 -5.90625 1.8125 -5.90625 C 1.539062 -5.90625 1.34375 -5.816406 1.21875 -5.640625 C 1.101562 -5.472656 1.046875 -5.242188 1.046875 -4.953125 L 1.046875 -4.375 L 0.375 -4.375 L 0.375 -4.90625 C 0.375 -5.40625 0.488281 -5.804688 0.71875 -6.109375 C 0.957031 -6.410156 1.328125 -6.5625 1.828125 -6.5625 Z M 1.828125 -6.5625 "/></g></g></g><g fill="#000000" fill-opacity="1"><g transform="translate(320.607331, 190.501058)"><g><path d="M 3 -1.3125 L 3 0 L 2.296875 0 L 2.296875 -1.3125 L 0.203125 -1.3125 L 0.203125 -1.96875 L 2.21875 -6.5 L 3 -6.5 L 3 -1.96875 L 3.53125 -1.96875 L 3.53125 -1.3125 Z M 0.875 -1.96875 L 2.296875 -1.96875 L 2.296875 -5.140625 Z M 0.875 -1.96875 "/></g></g></g></svg>