<svg xmlns="http://www.w3.org/2000/svg" xmlns:xlink="http://www.w3.org/1999/xlink" width="500" zoomAndPan="magnify" viewBox="0 0 375 374.999991" height="500" preserveAspectRatio="xMidYMid meet" version="1.0"><defs><g/><clipPath id="0b4ceec5fb"><rect x="0" width="117" y="0" height="74"/></clipPath><clipPath id="be74bb9dbd"><path d="M 28 0.0390625 L 55 0.0390625 L 55 57 L 28 57 Z M 28 0.0390625 " clip-rule="nonzero"/></clipPath><clipPath id="463898c049"><rect x="0" width="178" y="0" height="83"/></clipPath></defs><g transform="matrix(1, 0, 0, 1, 169, 172)"><g clip-path="url(#0b4ceec5fb)"><g fill="#000000" fill-opacity="1"><g transform="translate(1.00463, 43.309451)"><g><path d="M 8.953125 -16.96875 C 8.492188 -15.75 8.226562 -14.425781 8.15625 -13 C 8.09375 -11.570312 8.203125 -10.1875 8.484375 -8.84375 C 8.765625 -7.5 9.207031 -6.320312 9.8125 -5.3125 C 10.425781 -4.3125 11.171875 -3.628906 12.046875 -3.265625 C 13.035156 -4.003906 13.789062 -5.070312 14.3125 -6.46875 C 14.832031 -7.863281 15.140625 -9.46875 15.234375 -11.28125 C 15.335938 -13.09375 15.238281 -14.957031 14.9375 -16.875 C 14.644531 -18.800781 14.148438 -20.65625 13.453125 -22.4375 C 12.765625 -24.21875 11.898438 -25.785156 10.859375 -27.140625 C 12.441406 -27.648438 14.191406 -28.34375 16.109375 -29.21875 C 18.035156 -30.09375 20.351562 -31.148438 23.0625 -32.390625 L 24.515625 -24.171875 L 20.3125 -23.109375 C 21.050781 -21.046875 21.546875 -18.867188 21.796875 -16.578125 C 22.046875 -14.285156 22.050781 -12.03125 21.8125 -9.8125 C 21.570312 -7.59375 21.078125 -5.550781 20.328125 -3.6875 C 19.578125 -1.820312 18.570312 -0.269531 17.3125 0.96875 C 16.0625 2.21875 14.5625 3 12.8125 3.3125 C 10.632812 2.832031 8.695312 1.960938 7 0.703125 C 5.300781 -0.554688 3.921875 -2.113281 2.859375 -3.96875 C 1.796875 -5.820312 1.140625 -7.859375 0.890625 -10.078125 C 0.640625 -12.296875 0.851562 -14.59375 1.53125 -16.96875 Z M 8.953125 -16.96875 "/></g></g></g><g fill="#000000" fill-opacity="1"><g transform="translate(24.283689, 43.309451)"><g><path d="M 7.796875 -22.390625 C 6.921875 -22.390625 6.125 -22.609375 5.40625 -23.046875 C 4.6875 -23.484375 4.109375 -24.066406 3.671875 -24.796875 C 3.234375 -25.535156 3.015625 -26.34375 3.015625 -27.21875 C 3.015625 -28.125 3.234375 -28.9375 3.671875 -29.65625 C 4.109375 -30.382812 4.6875 -30.96875 5.40625 -31.40625 C 6.125 -31.84375 6.921875 -32.0625 7.796875 -32.0625 C 8.703125 -32.0625 9.515625 -31.84375 10.234375 -31.40625 C 10.960938 -30.96875 11.546875 -30.382812 11.984375 -29.65625 C 12.421875 -28.9375 12.640625 -28.125 12.640625 -27.21875 C 12.640625 -26.34375 12.421875 -25.535156 11.984375 -24.796875 C 11.546875 -24.066406 10.960938 -23.484375 10.234375 -23.046875 C 9.515625 -22.609375 8.703125 -22.390625 7.796875 -22.390625 Z M 2.078125 -2.625 C 1.679688 -5.226562 1.503906 -7.847656 1.546875 -10.484375 C 1.585938 -13.128906 1.78125 -16.050781 2.125 -19.25 L 8.6875 -19.25 C 8.382812 -16 8.382812 -13.023438 8.6875 -10.328125 C 9 -7.628906 9.539062 -5.0625 10.3125 -2.625 Z M 2.078125 -2.625 "/></g></g></g><g fill="#000000" fill-opacity="1"><g transform="translate(35.011561, 43.309451)"><g><path d="M 23.15625 0.125 C 24.28125 0.125 25.238281 -0.148438 26.03125 -0.703125 C 26.820312 -1.253906 27.21875 -2.050781 27.21875 -3.09375 C 27.21875 -4.082031 26.800781 -4.898438 25.96875 -5.546875 C 25.132812 -6.203125 24.054688 -6.53125 22.734375 -6.53125 C 21.910156 -6.53125 21.0625 -6.394531 20.1875 -6.125 C 19.3125 -5.851562 18.445312 -5.476562 17.59375 -5 C 17.175781 -5.875 16.820312 -6.84375 16.53125 -7.90625 C 16.25 -8.96875 16.066406 -10.050781 15.984375 -11.15625 C 17.140625 -11.601562 18.332031 -11.945312 19.5625 -12.1875 C 20.800781 -12.425781 21.925781 -12.546875 22.9375 -12.546875 C 25.113281 -12.546875 27.054688 -12.1875 28.765625 -11.46875 C 30.484375 -10.75 31.835938 -9.703125 32.828125 -8.328125 C 33.816406 -6.960938 34.3125 -5.289062 34.3125 -3.3125 C 34.3125 -1.550781 33.816406 0.0664062 32.828125 1.546875 C 31.835938 3.035156 30.484375 4.21875 28.765625 5.09375 C 27.054688 5.96875 25.113281 6.40625 22.9375 6.40625 C 20.394531 6.40625 18.175781 5.859375 16.28125 4.765625 C 14.382812 3.679688 12.816406 2.21875 11.578125 0.375 C 10.816406 1.5625 10.171875 2.90625 9.640625 4.40625 C 9.117188 5.90625 8.859375 7.332031 8.859375 8.6875 L 0.046875 8.6875 C 0.046875 6.34375 0.429688 4.1875 1.203125 2.21875 C 1.984375 0.257812 3.03125 -1.507812 4.34375 -3.09375 C 5.65625 -4.675781 7.101562 -6.0625 8.6875 -7.25 C 8.550781 -8.039062 8.445312 -8.835938 8.375 -9.640625 C 8.300781 -10.453125 8.265625 -11.28125 8.265625 -12.125 C 8.265625 -15.351562 8.601562 -18.425781 9.28125 -21.34375 C 9.96875 -24.269531 11 -26.867188 12.375 -29.140625 C 13.757812 -31.421875 15.546875 -33.21875 17.734375 -34.53125 C 19.929688 -35.851562 22.53125 -36.515625 25.53125 -36.515625 C 28.78125 -36.515625 31.363281 -36.0625 33.28125 -35.15625 C 35.207031 -34.25 36.601562 -33.039062 37.46875 -31.53125 C 38.332031 -30.019531 38.765625 -28.359375 38.765625 -26.546875 C 38.765625 -24.253906 38.140625 -22.253906 36.890625 -20.546875 C 35.648438 -18.835938 33.941406 -17.507812 31.765625 -16.5625 C 29.585938 -15.613281 27.082031 -15.140625 24.25 -15.140625 C 21.3125 -15.140625 18.21875 -15.460938 14.96875 -16.109375 C 14.9375 -15.710938 14.914062 -15.316406 14.90625 -14.921875 C 14.894531 -14.523438 14.890625 -14.128906 14.890625 -13.734375 C 14.890625 -11.078125 15.171875 -8.703125 15.734375 -6.609375 C 16.296875 -4.523438 17.1875 -2.878906 18.40625 -1.671875 C 19.625 -0.472656 21.207031 0.125 23.15625 0.125 Z M 9.125 -25.109375 C 8.613281 -23.835938 8.226562 -22.640625 7.96875 -21.515625 C 7.71875 -20.398438 7.519531 -19.304688 7.375 -18.234375 C 5.0625 -19.078125 2.769531 -20.085938 0.5 -21.265625 C -1.757812 -22.441406 -3.90625 -23.765625 -5.9375 -25.234375 L -5.9375 -34.9375 C -3.757812 -33.070312 -1.382812 -31.285156 1.1875 -29.578125 C 3.757812 -27.867188 6.40625 -26.378906 9.125 -25.109375 Z M 25.484375 -29.765625 C 23.867188 -29.765625 22.46875 -29.429688 21.28125 -28.765625 C 20.09375 -28.109375 19.097656 -27.210938 18.296875 -26.078125 C 17.492188 -24.953125 16.835938 -23.707031 16.328125 -22.34375 C 19.265625 -21.4375 22.101562 -20.984375 24.84375 -20.984375 C 26.769531 -20.984375 28.347656 -21.394531 29.578125 -22.21875 C 30.804688 -23.039062 31.421875 -24.085938 31.421875 -25.359375 C 31.421875 -26.628906 30.910156 -27.679688 29.890625 -28.515625 C 28.878906 -29.347656 27.410156 -29.765625 25.484375 -29.765625 Z M 25.484375 -29.765625 "/></g></g></g><g fill="#000000" fill-opacity="1"><g transform="translate(68.636865, 43.309451)"><g><path d="M 14.328125 -25.953125 C 16.703125 -25.953125 18.640625 -25.546875 20.140625 -24.734375 C 21.640625 -23.929688 22.75 -22.863281 23.46875 -21.53125 C 24.1875 -20.207031 24.546875 -18.726562 24.546875 -17.09375 C 24.546875 -15.226562 24.109375 -13.664062 23.234375 -12.40625 C 22.359375 -11.144531 21.164062 -10.140625 19.65625 -9.390625 C 18.144531 -8.640625 16.429688 -8.09375 14.515625 -7.75 C 12.609375 -7.414062 10.640625 -7.25 8.609375 -7.25 C 7.273438 -7.25 5.914062 -7.304688 4.53125 -7.421875 C 3.144531 -7.535156 1.773438 -7.691406 0.421875 -7.890625 L 0.421875 -15.140625 C 0.816406 -15.023438 1.203125 -14.914062 1.578125 -14.8125 C 1.960938 -14.71875 2.367188 -14.628906 2.796875 -14.546875 C 2.941406 -16.753906 3.53125 -18.710938 4.5625 -20.421875 C 5.59375 -22.128906 6.945312 -23.476562 8.625 -24.46875 C 10.3125 -25.457031 12.210938 -25.953125 14.328125 -25.953125 Z M 11.359375 -13.359375 C 12.492188 -13.359375 13.523438 -13.46875 14.453125 -13.6875 C 15.390625 -13.914062 16.144531 -14.289062 16.71875 -14.8125 C 17.300781 -15.34375 17.59375 -16.046875 17.59375 -16.921875 C 17.59375 -17.796875 17.222656 -18.507812 16.484375 -19.0625 C 15.753906 -19.613281 14.910156 -19.890625 13.953125 -19.890625 C 12.992188 -19.890625 12.148438 -19.597656 11.421875 -19.015625 C 10.703125 -18.441406 10.148438 -17.710938 9.765625 -16.828125 C 9.390625 -15.953125 9.203125 -15.0625 9.203125 -14.15625 C 9.203125 -14.050781 9.203125 -13.941406 9.203125 -13.828125 C 9.203125 -13.710938 9.21875 -13.582031 9.25 -13.4375 C 9.613281 -13.414062 9.972656 -13.394531 10.328125 -13.375 C 10.679688 -13.363281 11.023438 -13.359375 11.359375 -13.359375 Z M 10.171875 -6.3125 C 11.222656 -4.789062 12.53125 -3.535156 14.09375 -2.546875 C 15.664062 -1.554688 17.34375 -0.945312 19.125 -0.71875 L 19.125 7.546875 C 16.5 7.265625 14.085938 6.453125 11.890625 5.109375 C 9.703125 3.765625 7.859375 2.066406 6.359375 0.015625 C 4.859375 -2.023438 3.785156 -4.25 3.140625 -6.65625 C 4.265625 -6.519531 5.203125 -6.414062 5.953125 -6.34375 C 6.703125 -6.269531 7.40625 -6.234375 8.0625 -6.234375 C 8.394531 -6.234375 8.738281 -6.238281 9.09375 -6.25 C 9.445312 -6.269531 9.804688 -6.289062 10.171875 -6.3125 Z M 10.171875 -6.3125 "/></g></g></g><g fill="#000000" fill-opacity="1"><g transform="translate(94.07846, 43.309451)"><g><path d="M -3.6875 -2 L 3.78125 -2 C 3.71875 -1.601562 3.664062 -1.21875 3.625 -0.84375 C 3.582031 -0.476562 3.5625 -0.113281 3.5625 0.25 C 3.5625 1.914062 3.898438 3.066406 4.578125 3.703125 C 5.253906 4.347656 5.988281 4.671875 6.78125 4.671875 C 7.519531 4.671875 8.175781 4.414062 8.75 3.90625 C 9.332031 3.394531 9.625 2.40625 9.625 0.9375 C 9.625 0.03125 9.492188 -0.851562 9.234375 -1.71875 C 8.984375 -2.582031 8.566406 -3.609375 7.984375 -4.796875 C 7.410156 -5.984375 6.601562 -7.492188 5.5625 -9.328125 C 4.789062 -10.679688 4.101562 -12.066406 3.5 -13.484375 C 2.894531 -14.898438 2.40625 -16.25 2.03125 -17.53125 C 1.664062 -18.820312 1.484375 -19.921875 1.484375 -20.828125 C 1.484375 -22.941406 1.960938 -24.691406 2.921875 -26.078125 C 3.890625 -27.460938 5.128906 -28.492188 6.640625 -29.171875 C 8.148438 -29.847656 9.710938 -30.1875 11.328125 -30.1875 C 13.242188 -30.1875 14.972656 -29.765625 16.515625 -28.921875 C 18.054688 -28.078125 19.269531 -26.828125 20.15625 -25.171875 C 21.050781 -23.515625 21.5 -21.472656 21.5 -19.046875 C 21.5 -18.421875 21.457031 -17.769531 21.375 -17.09375 L 13.90625 -17.125 C 14.070312 -18.0625 14.15625 -18.882812 14.15625 -19.59375 C 14.15625 -20.914062 13.921875 -21.875 13.453125 -22.46875 C 12.992188 -23.0625 12.4375 -23.359375 11.78125 -23.359375 C 11.25 -23.359375 10.691406 -23.117188 10.109375 -22.640625 C 9.535156 -22.160156 9.25 -21.257812 9.25 -19.9375 C 9.25 -19.050781 9.414062 -17.976562 9.75 -16.71875 C 10.09375 -15.46875 10.671875 -14.109375 11.484375 -12.640625 C 13.066406 -9.804688 14.332031 -7.257812 15.28125 -5 C 16.226562 -2.738281 16.703125 -0.601562 16.703125 1.40625 C 16.703125 3.488281 16.203125 5.265625 15.203125 6.734375 C 14.203125 8.210938 12.921875 9.320312 11.359375 10.0625 C 9.804688 10.8125 8.195312 11.1875 6.53125 11.1875 C 4.832031 11.1875 3.191406 10.773438 1.609375 9.953125 C 0.0234375 9.140625 -1.269531 7.910156 -2.28125 6.265625 C -3.300781 4.628906 -3.8125 2.566406 -3.8125 0.078125 C -3.8125 -0.597656 -3.769531 -1.289062 -3.6875 -2 Z M -3.6875 -2 "/></g></g></g></g></g><g transform="matrix(1, 0, 0, 1, 56, 125)"><g clip-path="url(#463898c049)"><g fill="#000000" fill-opacity="1"><g transform="translate(5.594595, 48.487527)"><g><path d="M -4.1875 -2.265625 L 4.28125 -2.265625 C 4.21875 -1.816406 4.160156 -1.382812 4.109375 -0.96875 C 4.066406 -0.550781 4.046875 -0.132812 4.046875 0.28125 C 4.046875 2.175781 4.429688 3.484375 5.203125 4.203125 C 5.972656 4.929688 6.804688 5.296875 7.703125 5.296875 C 8.535156 5.296875 9.28125 5.003906 9.9375 4.421875 C 10.601562 3.847656 10.9375 2.726562 10.9375 1.0625 C 10.9375 0.03125 10.789062 -0.972656 10.5 -1.953125 C 10.207031 -2.929688 9.734375 -4.09375 9.078125 -5.4375 C 8.421875 -6.789062 7.5 -8.507812 6.3125 -10.59375 C 5.445312 -12.132812 4.664062 -13.707031 3.96875 -15.3125 C 3.28125 -16.925781 2.726562 -18.460938 2.3125 -19.921875 C 1.894531 -21.378906 1.6875 -22.625 1.6875 -23.65625 C 1.6875 -26.0625 2.234375 -28.050781 3.328125 -29.625 C 4.421875 -31.195312 5.820312 -32.367188 7.53125 -33.140625 C 9.25 -33.910156 11.023438 -34.296875 12.859375 -34.296875 C 15.046875 -34.296875 17.015625 -33.8125 18.765625 -32.84375 C 20.515625 -31.882812 21.894531 -30.460938 22.90625 -28.578125 C 23.914062 -26.703125 24.421875 -24.382812 24.421875 -21.625 C 24.421875 -20.914062 24.375 -20.175781 24.28125 -19.40625 L 15.796875 -19.46875 C 15.992188 -20.519531 16.09375 -21.445312 16.09375 -22.25 C 16.09375 -23.757812 15.828125 -24.851562 15.296875 -25.53125 C 14.765625 -26.207031 14.128906 -26.546875 13.390625 -26.546875 C 12.773438 -26.546875 12.140625 -26.269531 11.484375 -25.71875 C 10.828125 -25.175781 10.5 -24.148438 10.5 -22.640625 C 10.5 -21.640625 10.691406 -20.425781 11.078125 -19 C 11.460938 -17.570312 12.117188 -16.023438 13.046875 -14.359375 C 14.847656 -11.140625 16.285156 -8.242188 17.359375 -5.671875 C 18.441406 -3.109375 18.984375 -0.6875 18.984375 1.59375 C 18.984375 3.96875 18.410156 5.988281 17.265625 7.65625 C 16.128906 9.332031 14.675781 10.59375 12.90625 11.4375 C 11.144531 12.289062 9.316406 12.71875 7.421875 12.71875 C 5.492188 12.71875 3.628906 12.25 1.828125 11.3125 C 0.0351562 10.382812 -1.4375 8.988281 -2.59375 7.125 C -3.75 5.257812 -4.328125 2.914062 -4.328125 0.09375 C -4.328125 -0.675781 -4.28125 -1.460938 -4.1875 -2.265625 Z M -4.1875 -2.265625 "/></g></g></g><g clip-path="url(#be74bb9dbd)"><g fill="#000000" fill-opacity="1"><g transform="translate(26.791042, 48.487527)"><g><path d="M 20.515625 -22.40625 C 22.640625 -22.40625 24.28125 -21.785156 25.4375 -20.546875 C 26.59375 -19.304688 27.3125 -17.632812 27.59375 -15.53125 C 27.882812 -13.425781 27.78125 -11.054688 27.28125 -8.421875 C 26.789062 -5.796875 25.941406 -3.078125 24.734375 -0.265625 C 23.535156 2.546875 22.035156 5.269531 20.234375 7.90625 L 10.359375 8 C 11.285156 6.675781 12.207031 5.203125 13.125 3.578125 C 14.039062 1.960938 14.890625 0.320312 15.671875 -1.34375 C 16.460938 -3.019531 17.113281 -4.632812 17.625 -6.1875 C 18.144531 -7.75 18.46875 -9.15625 18.59375 -10.40625 C 18.71875 -11.65625 18.585938 -12.640625 18.203125 -13.359375 C 17.816406 -14.085938 17.097656 -14.453125 16.046875 -14.453125 C 14.367188 -14.453125 12.984375 -13.894531 11.890625 -12.78125 C 10.804688 -11.675781 10.117188 -10.273438 9.828125 -8.578125 C 9.953125 -7.097656 10.109375 -5.722656 10.296875 -4.453125 C 10.492188 -3.179688 10.738281 -2.066406 11.03125 -1.109375 L 3.5625 -1.109375 C 3.019531 -2.835938 2.578125 -5.066406 2.234375 -7.796875 C 1.898438 -10.523438 1.675781 -13.550781 1.5625 -16.875 C 1.445312 -20.207031 1.4375 -23.675781 1.53125 -27.28125 C 1.632812 -30.894531 1.851562 -34.46875 2.1875 -38 C 2.53125 -41.539062 2.972656 -44.851562 3.515625 -47.9375 L 13.296875 -47.9375 C 12.585938 -45.007812 11.96875 -41.8125 11.4375 -38.34375 C 10.90625 -34.875 10.488281 -31.34375 10.1875 -27.75 C 9.882812 -24.15625 9.703125 -20.6875 9.640625 -17.34375 C 10.691406 -18.851562 12.097656 -20.085938 13.859375 -21.046875 C 15.628906 -22.015625 17.847656 -22.46875 20.515625 -22.40625 Z M 20.515625 -22.40625 "/></g></g></g></g><g fill="#000000" fill-opacity="1"><g transform="translate(55.695288, 48.487527)"><g><path d="M 29.1875 -21.34375 C 27.84375 -18.476562 27.128906 -15.367188 27.046875 -12.015625 C 26.960938 -8.660156 27.597656 -5.007812 28.953125 -1.0625 L 21.484375 -1.0625 C 21.160156 -1.988281 20.863281 -2.894531 20.59375 -3.78125 C 20.320312 -4.664062 20.070312 -5.523438 19.84375 -6.359375 C 18.820312 -4.753906 17.367188 -3.421875 15.484375 -2.359375 C 13.609375 -1.296875 11.175781 -0.796875 8.1875 -0.859375 C 5.90625 -0.859375 4.175781 -1.484375 3 -2.734375 C 1.832031 -3.992188 1.164062 -5.679688 1 -7.796875 C 0.84375 -9.921875 1.125 -12.273438 1.84375 -14.859375 C 2.570312 -17.441406 3.675781 -20.050781 5.15625 -22.6875 L 14.84375 -22.6875 C 13.8125 -20.988281 12.882812 -19.265625 12.0625 -17.515625 C 11.25 -15.765625 10.671875 -14.164062 10.328125 -12.71875 C 9.992188 -11.269531 9.988281 -10.101562 10.3125 -9.21875 C 10.632812 -8.34375 11.421875 -7.90625 12.671875 -7.90625 C 14.210938 -7.90625 15.492188 -8.320312 16.515625 -9.15625 C 17.546875 -9.988281 18.269531 -11.046875 18.6875 -12.328125 C 18.5625 -13.835938 18.546875 -15.335938 18.640625 -16.828125 C 18.734375 -18.328125 18.988281 -19.832031 19.40625 -21.34375 Z M 29.1875 -21.34375 "/></g></g></g><g fill="#000000" fill-opacity="1"><g transform="translate(84.888582, 48.487527)"><g><path d="M 9.640625 -14.15625 C 9.503906 -11.394531 9.660156 -8.960938 10.109375 -6.859375 C 10.566406 -4.753906 11.5 -3.003906 12.90625 -1.609375 C 14.320312 -0.210938 16.378906 0.835938 19.078125 1.546875 L 19.078125 12.28125 C 15.441406 11.800781 12.425781 10.722656 10.03125 9.046875 C 7.644531 7.378906 5.800781 5.210938 4.5 2.546875 C 3.195312 -0.109375 2.351562 -3.15625 1.96875 -6.59375 C 1.582031 -10.03125 1.566406 -13.773438 1.921875 -17.828125 C 2.023438 -18.953125 2.1875 -20.21875 2.40625 -21.625 C 2.632812 -23.039062 2.90625 -24.492188 3.21875 -25.984375 C 3.539062 -27.484375 3.910156 -28.90625 4.328125 -30.25 C 4.753906 -31.601562 5.191406 -32.757812 5.640625 -33.71875 L 14.203125 -33.71875 C 13.398438 -32.082031 12.644531 -30.128906 11.9375 -27.859375 C 11.238281 -25.597656 10.710938 -23.394531 10.359375 -21.25 C 11.453125 -21.25 12.488281 -21.238281 13.46875 -21.21875 C 14.445312 -21.207031 15.265625 -21.191406 15.921875 -21.171875 C 16.578125 -21.148438 16.953125 -21.109375 17.046875 -21.046875 L 17.046875 -14.15625 C 17.015625 -14.15625 16.953125 -14.160156 16.859375 -14.171875 C 16.765625 -14.191406 16.488281 -14.203125 16.03125 -14.203125 C 15.582031 -14.203125 14.859375 -14.191406 13.859375 -14.171875 C 12.867188 -14.160156 11.460938 -14.15625 9.640625 -14.15625 Z M 9.640625 -14.15625 "/></g></g></g><g fill="#000000" fill-opacity="1"><g transform="translate(102.038436, 48.487527)"><g><path d="M 9.640625 -14.15625 C 9.503906 -11.394531 9.660156 -8.960938 10.109375 -6.859375 C 10.566406 -4.753906 11.5 -3.003906 12.90625 -1.609375 C 14.320312 -0.210938 16.378906 0.835938 19.078125 1.546875 L 19.078125 12.28125 C 15.441406 11.800781 12.425781 10.722656 10.03125 9.046875 C 7.644531 7.378906 5.800781 5.210938 4.5 2.546875 C 3.195312 -0.109375 2.351562 -3.15625 1.96875 -6.59375 C 1.582031 -10.03125 1.566406 -13.773438 1.921875 -17.828125 C 2.023438 -18.953125 2.1875 -20.21875 2.40625 -21.625 C 2.632812 -23.039062 2.90625 -24.492188 3.21875 -25.984375 C 3.539062 -27.484375 3.910156 -28.90625 4.328125 -30.25 C 4.753906 -31.601562 5.191406 -32.757812 5.640625 -33.71875 L 14.203125 -33.71875 C 13.398438 -32.082031 12.644531 -30.128906 11.9375 -27.859375 C 11.238281 -25.597656 10.710938 -23.394531 10.359375 -21.25 C 11.453125 -21.25 12.488281 -21.238281 13.46875 -21.21875 C 14.445312 -21.207031 15.265625 -21.191406 15.921875 -21.171875 C 16.578125 -21.148438 16.953125 -21.109375 17.046875 -21.046875 L 17.046875 -14.15625 C 17.015625 -14.15625 16.953125 -14.160156 16.859375 -14.171875 C 16.765625 -14.191406 16.488281 -14.203125 16.03125 -14.203125 C 15.582031 -14.203125 14.859375 -14.191406 13.859375 -14.171875 C 12.867188 -14.160156 11.460938 -14.15625 9.640625 -14.15625 Z M 9.640625 -14.15625 "/></g></g></g><g fill="#000000" fill-opacity="1"><g transform="translate(119.188284, 48.487527)"><g><path d="M 16.28125 -29.484375 C 18.976562 -29.484375 21.175781 -29.023438 22.875 -28.109375 C 24.582031 -27.191406 25.84375 -25.976562 26.65625 -24.46875 C 27.476562 -22.957031 27.890625 -21.269531 27.890625 -19.40625 C 27.890625 -17.289062 27.390625 -15.519531 26.390625 -14.09375 C 25.398438 -12.664062 24.046875 -11.523438 22.328125 -10.671875 C 20.609375 -9.816406 18.664062 -9.195312 16.5 -8.8125 C 14.332031 -8.425781 12.09375 -8.234375 9.78125 -8.234375 C 8.269531 -8.234375 6.726562 -8.296875 5.15625 -8.421875 C 3.582031 -8.554688 2.023438 -8.734375 0.484375 -8.953125 L 0.484375 -17.203125 C 0.929688 -17.066406 1.367188 -16.941406 1.796875 -16.828125 C 2.234375 -16.722656 2.691406 -16.617188 3.171875 -16.515625 C 3.335938 -19.023438 4.003906 -21.25 5.171875 -23.1875 C 6.347656 -25.132812 7.890625 -26.671875 9.796875 -27.796875 C 11.710938 -28.921875 13.875 -29.484375 16.28125 -29.484375 Z M 12.90625 -15.171875 C 14.195312 -15.171875 15.367188 -15.296875 16.421875 -15.546875 C 17.484375 -15.804688 18.34375 -16.234375 19 -16.828125 C 19.65625 -17.429688 19.984375 -18.226562 19.984375 -19.21875 C 19.984375 -20.21875 19.566406 -21.03125 18.734375 -21.65625 C 17.898438 -22.28125 16.9375 -22.59375 15.84375 -22.59375 C 14.75 -22.59375 13.789062 -22.265625 12.96875 -21.609375 C 12.15625 -20.953125 11.53125 -20.125 11.09375 -19.125 C 10.664062 -18.125 10.453125 -17.113281 10.453125 -16.09375 C 10.453125 -15.957031 10.453125 -15.828125 10.453125 -15.703125 C 10.453125 -15.578125 10.46875 -15.429688 10.5 -15.265625 C 10.914062 -15.234375 11.320312 -15.207031 11.71875 -15.1875 C 12.125 -15.175781 12.519531 -15.171875 12.90625 -15.171875 Z M 11.5625 -7.171875 C 12.75 -5.441406 14.234375 -4.015625 16.015625 -2.890625 C 17.796875 -1.765625 19.695312 -1.070312 21.71875 -0.8125 L 21.71875 8.578125 C 18.738281 8.253906 16.003906 7.328125 13.515625 5.796875 C 11.023438 4.273438 8.925781 2.347656 7.21875 0.015625 C 5.519531 -2.304688 4.300781 -4.832031 3.5625 -7.5625 C 4.84375 -7.40625 5.910156 -7.285156 6.765625 -7.203125 C 7.617188 -7.117188 8.414062 -7.078125 9.15625 -7.078125 C 9.539062 -7.078125 9.929688 -7.082031 10.328125 -7.09375 C 10.734375 -7.113281 11.144531 -7.140625 11.5625 -7.171875 Z M 11.5625 -7.171875 "/></g></g></g><g fill="#000000" fill-opacity="1"><g transform="translate(148.092537, 48.487527)"><g><path d="M 20.28125 -22.40625 C 22.4375 -22.40625 24.128906 -21.703125 25.359375 -20.296875 C 26.597656 -18.898438 27.394531 -17.035156 27.75 -14.703125 C 28.101562 -12.378906 28.003906 -9.804688 27.453125 -6.984375 L 18.25 -6.984375 C 18.601562 -8.398438 18.796875 -9.664062 18.828125 -10.78125 C 18.867188 -11.90625 18.695312 -12.796875 18.3125 -13.453125 C 17.925781 -14.117188 17.25 -14.453125 16.28125 -14.453125 C 14.9375 -14.453125 13.753906 -13.960938 12.734375 -12.984375 C 11.722656 -12.003906 10.945312 -10.726562 10.40625 -9.15625 C 9.863281 -7.582031 9.640625 -5.910156 9.734375 -4.140625 C 10.054688 -2.535156 10.488281 -0.882812 11.03125 0.8125 L 3.90625 0.8125 C 2.425781 -3.550781 1.476562 -7.722656 1.0625 -11.703125 C 0.644531 -15.679688 0.804688 -19.488281 1.546875 -23.125 L 10.890625 -23.125 C 10.472656 -22.03125 10.125 -20.878906 9.84375 -19.671875 C 9.570312 -18.472656 9.359375 -17.226562 9.203125 -15.9375 C 10.234375 -17.832031 11.644531 -19.40625 13.4375 -20.65625 C 15.238281 -21.914062 17.519531 -22.5 20.28125 -22.40625 Z M 20.28125 -22.40625 "/></g></g></g></g></g><g fill="#000000" fill-opacity="1"><g transform="translate(266.335476, 156.791342)"><g><path d="M 2.859375 0.09375 C 2.347656 0.09375 1.90625 -0.0078125 1.53125 -0.21875 C 1.15625 -0.4375 0.863281 -0.726562 0.65625 -1.09375 C 0.457031 -1.457031 0.359375 -1.875 0.359375 -2.34375 C 0.359375 -2.882812 0.46875 -3.34375 0.6875 -3.71875 C 0.90625 -4.101562 1.191406 -4.394531 1.546875 -4.59375 C 1.898438 -4.800781 2.273438 -4.90625 2.671875 -4.90625 C 2.972656 -4.90625 3.257812 -4.84375 3.53125 -4.71875 C 3.8125 -4.59375 4.054688 -4.421875 4.265625 -4.203125 C 4.472656 -3.984375 4.640625 -3.726562 4.765625 -3.4375 C 4.890625 -3.144531 4.953125 -2.835938 4.953125 -2.515625 C 4.941406 -2.367188 4.878906 -2.25 4.765625 -2.15625 C 4.660156 -2.070312 4.539062 -2.03125 4.40625 -2.03125 L 0.96875 -2.03125 L 0.6875 -2.9375 L 4 -2.9375 L 3.796875 -2.75 L 3.796875 -3 C 3.785156 -3.175781 3.722656 -3.332031 3.609375 -3.46875 C 3.503906 -3.601562 3.367188 -3.710938 3.203125 -3.796875 C 3.035156 -3.878906 2.859375 -3.921875 2.671875 -3.921875 C 2.492188 -3.921875 2.328125 -3.894531 2.171875 -3.84375 C 2.015625 -3.789062 1.878906 -3.707031 1.765625 -3.59375 C 1.648438 -3.476562 1.554688 -3.328125 1.484375 -3.140625 C 1.421875 -2.953125 1.390625 -2.707031 1.390625 -2.40625 C 1.390625 -2.082031 1.457031 -1.804688 1.59375 -1.578125 C 1.726562 -1.359375 1.898438 -1.191406 2.109375 -1.078125 C 2.328125 -0.960938 2.554688 -0.90625 2.796875 -0.90625 C 3.015625 -0.90625 3.191406 -0.921875 3.328125 -0.953125 C 3.460938 -0.992188 3.566406 -1.035156 3.640625 -1.078125 C 3.722656 -1.128906 3.800781 -1.175781 3.875 -1.21875 C 3.976562 -1.269531 4.078125 -1.296875 4.171875 -1.296875 C 4.304688 -1.296875 4.414062 -1.25 4.5 -1.15625 C 4.59375 -1.070312 4.640625 -0.96875 4.640625 -0.84375 C 4.640625 -0.6875 4.554688 -0.539062 4.390625 -0.40625 C 4.234375 -0.269531 4.007812 -0.148438 3.71875 -0.046875 C 3.4375 0.046875 3.148438 0.09375 2.859375 0.09375 Z M 2.859375 0.09375 "/></g></g></g><g fill="#000000" fill-opacity="1"><g transform="translate(271.069508, 156.791342)"><g><path d="M 0.3125 -0.75 C 0.25 -0.832031 0.21875 -0.9375 0.21875 -1.0625 C 0.226562 -1.195312 0.304688 -1.3125 0.453125 -1.40625 C 0.554688 -1.46875 0.660156 -1.492188 0.765625 -1.484375 C 0.867188 -1.472656 0.972656 -1.421875 1.078125 -1.328125 C 1.253906 -1.148438 1.4375 -1.015625 1.625 -0.921875 C 1.820312 -0.828125 2.0625 -0.78125 2.34375 -0.78125 C 2.4375 -0.78125 2.535156 -0.789062 2.640625 -0.8125 C 2.753906 -0.832031 2.847656 -0.878906 2.921875 -0.953125 C 3.003906 -1.035156 3.046875 -1.15625 3.046875 -1.3125 C 3.046875 -1.4375 3 -1.535156 2.90625 -1.609375 C 2.820312 -1.691406 2.707031 -1.757812 2.5625 -1.8125 C 2.414062 -1.875 2.25 -1.925781 2.0625 -1.96875 C 1.882812 -2.019531 1.695312 -2.078125 1.5 -2.140625 C 1.300781 -2.210938 1.117188 -2.300781 0.953125 -2.40625 C 0.796875 -2.507812 0.664062 -2.648438 0.5625 -2.828125 C 0.457031 -3.003906 0.40625 -3.222656 0.40625 -3.484375 C 0.40625 -3.785156 0.488281 -4.039062 0.65625 -4.25 C 0.832031 -4.457031 1.050781 -4.617188 1.3125 -4.734375 C 1.582031 -4.847656 1.863281 -4.90625 2.15625 -4.90625 C 2.34375 -4.90625 2.535156 -4.878906 2.734375 -4.828125 C 2.941406 -4.785156 3.140625 -4.710938 3.328125 -4.609375 C 3.515625 -4.515625 3.671875 -4.390625 3.796875 -4.234375 C 3.859375 -4.140625 3.894531 -4.03125 3.90625 -3.90625 C 3.925781 -3.78125 3.875 -3.664062 3.75 -3.5625 C 3.65625 -3.488281 3.546875 -3.457031 3.421875 -3.46875 C 3.304688 -3.476562 3.207031 -3.519531 3.125 -3.59375 C 3.03125 -3.71875 2.894531 -3.816406 2.71875 -3.890625 C 2.550781 -3.972656 2.359375 -4.015625 2.140625 -4.015625 C 2.046875 -4.015625 1.945312 -4.003906 1.84375 -3.984375 C 1.738281 -3.960938 1.644531 -3.914062 1.5625 -3.84375 C 1.488281 -3.78125 1.453125 -3.675781 1.453125 -3.53125 C 1.453125 -3.394531 1.492188 -3.285156 1.578125 -3.203125 C 1.671875 -3.117188 1.789062 -3.050781 1.9375 -3 C 2.09375 -2.945312 2.257812 -2.898438 2.4375 -2.859375 C 2.613281 -2.804688 2.796875 -2.742188 2.984375 -2.671875 C 3.171875 -2.609375 3.34375 -2.523438 3.5 -2.421875 C 3.65625 -2.316406 3.78125 -2.175781 3.875 -2 C 3.96875 -1.832031 4.015625 -1.613281 4.015625 -1.34375 C 4.015625 -1.039062 3.925781 -0.78125 3.75 -0.5625 C 3.570312 -0.351562 3.347656 -0.191406 3.078125 -0.078125 C 2.804688 0.0351562 2.53125 0.09375 2.25 0.09375 C 1.894531 0.09375 1.539062 0.03125 1.1875 -0.09375 C 0.832031 -0.21875 0.539062 -0.4375 0.3125 -0.75 Z M 0.3125 -0.75 "/></g></g></g><g fill="#000000" fill-opacity="1"><g transform="translate(274.831535, 156.791342)"><g><path d="M 0.640625 -4.71875 L 2.765625 -4.71875 C 2.910156 -4.71875 3.03125 -4.671875 3.125 -4.578125 C 3.226562 -4.484375 3.28125 -4.363281 3.28125 -4.21875 C 3.28125 -4.082031 3.226562 -3.96875 3.125 -3.875 C 3.03125 -3.78125 2.910156 -3.734375 2.765625 -3.734375 L 0.640625 -3.734375 C 0.492188 -3.734375 0.375 -3.78125 0.28125 -3.875 C 0.1875 -3.96875 0.140625 -4.085938 0.140625 -4.234375 C 0.140625 -4.378906 0.1875 -4.492188 0.28125 -4.578125 C 0.375 -4.671875 0.492188 -4.71875 0.640625 -4.71875 Z M 1.609375 -5.84375 C 1.765625 -5.84375 1.890625 -5.789062 1.984375 -5.6875 C 2.085938 -5.582031 2.140625 -5.453125 2.140625 -5.296875 L 2.140625 -1.296875 C 2.140625 -1.210938 2.15625 -1.144531 2.1875 -1.09375 C 2.21875 -1.039062 2.257812 -1 2.3125 -0.96875 C 2.375 -0.945312 2.4375 -0.9375 2.5 -0.9375 C 2.570312 -0.9375 2.640625 -0.945312 2.703125 -0.96875 C 2.765625 -1 2.832031 -1.015625 2.90625 -1.015625 C 2.988281 -1.015625 3.0625 -0.972656 3.125 -0.890625 C 3.195312 -0.816406 3.234375 -0.710938 3.234375 -0.578125 C 3.234375 -0.410156 3.140625 -0.269531 2.953125 -0.15625 C 2.773438 -0.0507812 2.582031 0 2.375 0 C 2.25 0 2.109375 -0.0078125 1.953125 -0.03125 C 1.804688 -0.0507812 1.664062 -0.101562 1.53125 -0.1875 C 1.394531 -0.269531 1.28125 -0.394531 1.1875 -0.5625 C 1.09375 -0.726562 1.046875 -0.957031 1.046875 -1.25 L 1.046875 -5.296875 C 1.046875 -5.453125 1.097656 -5.582031 1.203125 -5.6875 C 1.316406 -5.789062 1.453125 -5.84375 1.609375 -5.84375 Z M 1.609375 -5.84375 "/></g></g></g><g fill="#000000" fill-opacity="1"><g transform="translate(277.936557, 156.791342)"><g><path d="M 4.53125 -6.65625 C 4.6875 -6.65625 4.8125 -6.601562 4.90625 -6.5 C 5.007812 -6.40625 5.0625 -6.273438 5.0625 -6.109375 L 5.0625 -0.546875 C 5.0625 -0.390625 5.007812 -0.257812 4.90625 -0.15625 C 4.8125 -0.0507812 4.6875 0 4.53125 0 C 4.375 0 4.242188 -0.0507812 4.140625 -0.15625 C 4.035156 -0.257812 3.984375 -0.390625 3.984375 -0.546875 L 3.984375 -0.984375 L 4.1875 -0.90625 C 4.1875 -0.832031 4.144531 -0.738281 4.0625 -0.625 C 3.976562 -0.507812 3.863281 -0.398438 3.71875 -0.296875 C 3.570312 -0.191406 3.398438 -0.0976562 3.203125 -0.015625 C 3.015625 0.0546875 2.804688 0.09375 2.578125 0.09375 C 2.160156 0.09375 1.78125 -0.0078125 1.4375 -0.21875 C 1.101562 -0.4375 0.835938 -0.734375 0.640625 -1.109375 C 0.453125 -1.484375 0.359375 -1.914062 0.359375 -2.40625 C 0.359375 -2.894531 0.453125 -3.328125 0.640625 -3.703125 C 0.835938 -4.078125 1.101562 -4.367188 1.4375 -4.578125 C 1.769531 -4.796875 2.132812 -4.90625 2.53125 -4.90625 C 2.789062 -4.90625 3.03125 -4.863281 3.25 -4.78125 C 3.46875 -4.707031 3.65625 -4.609375 3.8125 -4.484375 C 3.96875 -4.367188 4.085938 -4.25 4.171875 -4.125 C 4.265625 -4 4.3125 -3.894531 4.3125 -3.8125 L 3.984375 -3.703125 L 3.984375 -6.109375 C 3.984375 -6.265625 4.035156 -6.394531 4.140625 -6.5 C 4.242188 -6.601562 4.375 -6.65625 4.53125 -6.65625 Z M 2.703125 -0.90625 C 2.972656 -0.90625 3.207031 -0.96875 3.40625 -1.09375 C 3.601562 -1.226562 3.753906 -1.410156 3.859375 -1.640625 C 3.972656 -1.867188 4.03125 -2.125 4.03125 -2.40625 C 4.03125 -2.6875 3.972656 -2.941406 3.859375 -3.171875 C 3.753906 -3.398438 3.601562 -3.582031 3.40625 -3.71875 C 3.207031 -3.851562 2.972656 -3.921875 2.703125 -3.921875 C 2.453125 -3.921875 2.226562 -3.851562 2.03125 -3.71875 C 1.832031 -3.582031 1.675781 -3.398438 1.5625 -3.171875 C 1.445312 -2.941406 1.390625 -2.6875 1.390625 -2.40625 C 1.390625 -2.125 1.445312 -1.867188 1.5625 -1.640625 C 1.675781 -1.410156 1.832031 -1.226562 2.03125 -1.09375 C 2.226562 -0.96875 2.453125 -0.90625 2.703125 -0.90625 Z M 2.703125 -0.90625 "/></g></g></g><g fill="#000000" fill-opacity="1"><g transform="translate(264.718289, 164.414857)"><g><path d="M 4.125 -0.984375 C 4.269531 -0.984375 4.390625 -0.9375 4.484375 -0.84375 C 4.578125 -0.75 4.625 -0.628906 4.625 -0.484375 C 4.625 -0.347656 4.578125 -0.234375 4.484375 -0.140625 C 4.390625 -0.046875 4.269531 0 4.125 0 L 1.0625 0 C 0.90625 0 0.78125 -0.046875 0.6875 -0.140625 C 0.601562 -0.234375 0.5625 -0.359375 0.5625 -0.515625 C 0.5625 -0.660156 0.613281 -0.789062 0.71875 -0.90625 L 2.6875 -3 C 2.90625 -3.238281 3.078125 -3.484375 3.203125 -3.734375 C 3.335938 -3.992188 3.40625 -4.21875 3.40625 -4.40625 C 3.40625 -4.695312 3.316406 -4.9375 3.140625 -5.125 C 2.960938 -5.3125 2.734375 -5.40625 2.453125 -5.40625 C 2.335938 -5.40625 2.21875 -5.375 2.09375 -5.3125 C 1.976562 -5.257812 1.863281 -5.1875 1.75 -5.09375 C 1.632812 -5 1.53125 -4.890625 1.4375 -4.765625 C 1.363281 -4.660156 1.289062 -4.597656 1.21875 -4.578125 C 1.144531 -4.554688 1.082031 -4.546875 1.03125 -4.546875 C 0.894531 -4.546875 0.769531 -4.59375 0.65625 -4.6875 C 0.550781 -4.789062 0.5 -4.910156 0.5 -5.046875 C 0.5 -5.140625 0.53125 -5.234375 0.59375 -5.328125 C 0.664062 -5.429688 0.753906 -5.535156 0.859375 -5.640625 C 1.003906 -5.785156 1.171875 -5.914062 1.359375 -6.03125 C 1.546875 -6.144531 1.738281 -6.234375 1.9375 -6.296875 C 2.132812 -6.359375 2.328125 -6.390625 2.515625 -6.390625 C 2.910156 -6.390625 3.253906 -6.304688 3.546875 -6.140625 C 3.847656 -5.984375 4.078125 -5.757812 4.234375 -5.46875 C 4.398438 -5.1875 4.484375 -4.847656 4.484375 -4.453125 C 4.484375 -4.117188 4.382812 -3.75 4.1875 -3.34375 C 4 -2.9375 3.738281 -2.554688 3.40625 -2.203125 L 2.203125 -0.90625 L 2.09375 -0.984375 Z M 4.125 -0.984375 "/></g></g></g><g fill="#000000" fill-opacity="1"><g transform="translate(269.263321, 164.414857)"><g><path d="M 2.765625 0.09375 C 2.242188 0.09375 1.804688 -0.0390625 1.453125 -0.3125 C 1.097656 -0.59375 0.828125 -0.976562 0.640625 -1.46875 C 0.453125 -1.957031 0.359375 -2.519531 0.359375 -3.15625 C 0.359375 -3.789062 0.453125 -4.351562 0.640625 -4.84375 C 0.828125 -5.332031 1.097656 -5.710938 1.453125 -5.984375 C 1.804688 -6.253906 2.242188 -6.390625 2.765625 -6.390625 C 3.273438 -6.390625 3.707031 -6.253906 4.0625 -5.984375 C 4.425781 -5.710938 4.703125 -5.332031 4.890625 -4.84375 C 5.078125 -4.351562 5.171875 -3.789062 5.171875 -3.15625 C 5.171875 -2.519531 5.078125 -1.957031 4.890625 -1.46875 C 4.703125 -0.976562 4.425781 -0.59375 4.0625 -0.3125 C 3.707031 -0.0390625 3.273438 0.09375 2.765625 0.09375 Z M 2.765625 -0.984375 C 3.015625 -0.984375 3.226562 -1.0625 3.40625 -1.21875 C 3.59375 -1.382812 3.738281 -1.628906 3.84375 -1.953125 C 3.945312 -2.273438 4 -2.675781 4 -3.15625 C 4 -3.632812 3.945312 -4.03125 3.84375 -4.34375 C 3.738281 -4.664062 3.59375 -4.90625 3.40625 -5.0625 C 3.226562 -5.226562 3.015625 -5.3125 2.765625 -5.3125 C 2.515625 -5.3125 2.296875 -5.226562 2.109375 -5.0625 C 1.929688 -4.90625 1.789062 -4.664062 1.6875 -4.34375 C 1.582031 -4.03125 1.53125 -3.632812 1.53125 -3.15625 C 1.53125 -2.675781 1.582031 -2.273438 1.6875 -1.953125 C 1.789062 -1.628906 1.929688 -1.382812 2.109375 -1.21875 C 2.296875 -1.0625 2.515625 -0.984375 2.765625 -0.984375 Z M 2.765625 -0.984375 "/></g></g></g><g fill="#000000" fill-opacity="1"><g transform="translate(274.21336, 164.414857)"><g><path d="M 4.125 -0.984375 C 4.269531 -0.984375 4.390625 -0.9375 4.484375 -0.84375 C 4.578125 -0.75 4.625 -0.628906 4.625 -0.484375 C 4.625 -0.347656 4.578125 -0.234375 4.484375 -0.140625 C 4.390625 -0.046875 4.269531 0 4.125 0 L 1.0625 0 C 0.90625 0 0.78125 -0.046875 0.6875 -0.140625 C 0.601562 -0.234375 0.5625 -0.359375 0.5625 -0.515625 C 0.5625 -0.660156 0.613281 -0.789062 0.71875 -0.90625 L 2.6875 -3 C 2.90625 -3.238281 3.078125 -3.484375 3.203125 -3.734375 C 3.335938 -3.992188 3.40625 -4.21875 3.40625 -4.40625 C 3.40625 -4.695312 3.316406 -4.9375 3.140625 -5.125 C 2.960938 -5.3125 2.734375 -5.40625 2.453125 -5.40625 C 2.335938 -5.40625 2.21875 -5.375 2.09375 -5.3125 C 1.976562 -5.257812 1.863281 -5.1875 1.75 -5.09375 C 1.632812 -5 1.53125 -4.890625 1.4375 -4.765625 C 1.363281 -4.660156 1.289062 -4.597656 1.21875 -4.578125 C 1.144531 -4.554688 1.082031 -4.546875 1.03125 -4.546875 C 0.894531 -4.546875 0.769531 -4.59375 0.65625 -4.6875 C 0.550781 -4.789062 0.5 -4.910156 0.5 -5.046875 C 0.5 -5.140625 0.53125 -5.234375 0.59375 -5.328125 C 0.664062 -5.429688 0.753906 -5.535156 0.859375 -5.640625 C 1.003906 -5.785156 1.171875 -5.914062 1.359375 -6.03125 C 1.546875 -6.144531 1.738281 -6.234375 1.9375 -6.296875 C 2.132812 -6.359375 2.328125 -6.390625 2.515625 -6.390625 C 2.910156 -6.390625 3.253906 -6.304688 3.546875 -6.140625 C 3.847656 -5.984375 4.078125 -5.757812 4.234375 -5.46875 C 4.398438 -5.1875 4.484375 -4.847656 4.484375 -4.453125 C 4.484375 -4.117188 4.382812 -3.75 4.1875 -3.34375 C 4 -2.9375 3.738281 -2.554688 3.40625 -2.203125 L 2.203125 -0.90625 L 2.09375 -0.984375 Z M 4.125 -0.984375 "/></g></g></g><g fill="#000000" fill-opacity="1"><g transform="translate(278.758392, 164.414857)"><g><path d="M 1.015625 -1.265625 C 1.066406 -1.265625 1.125 -1.253906 1.1875 -1.234375 C 1.25 -1.222656 1.316406 -1.191406 1.390625 -1.140625 C 1.492188 -1.054688 1.613281 -0.984375 1.75 -0.921875 C 1.894531 -0.867188 2.0625 -0.84375 2.25 -0.84375 C 2.4375 -0.84375 2.613281 -0.882812 2.78125 -0.96875 C 2.945312 -1.0625 3.082031 -1.191406 3.1875 -1.359375 C 3.289062 -1.535156 3.34375 -1.742188 3.34375 -1.984375 C 3.34375 -2.210938 3.296875 -2.398438 3.203125 -2.546875 C 3.109375 -2.703125 2.984375 -2.816406 2.828125 -2.890625 C 2.679688 -2.972656 2.519531 -3.015625 2.34375 -3.015625 C 2.21875 -3.015625 2.109375 -3 2.015625 -2.96875 C 1.929688 -2.945312 1.847656 -2.921875 1.765625 -2.890625 C 1.679688 -2.867188 1.585938 -2.859375 1.484375 -2.859375 C 1.347656 -2.859375 1.238281 -2.90625 1.15625 -3 C 1.082031 -3.101562 1.046875 -3.21875 1.046875 -3.34375 C 1.046875 -3.425781 1.0625 -3.5 1.09375 -3.5625 C 1.132812 -3.632812 1.1875 -3.707031 1.25 -3.78125 L 2.828125 -5.46875 L 3.078125 -5.265625 L 0.859375 -5.265625 C 0.710938 -5.265625 0.59375 -5.3125 0.5 -5.40625 C 0.40625 -5.5 0.359375 -5.617188 0.359375 -5.765625 C 0.359375 -5.898438 0.40625 -6.015625 0.5 -6.109375 C 0.59375 -6.203125 0.710938 -6.25 0.859375 -6.25 L 3.625 -6.25 C 3.800781 -6.25 3.9375 -6.195312 4.03125 -6.09375 C 4.125 -6 4.171875 -5.875 4.171875 -5.71875 C 4.171875 -5.632812 4.148438 -5.554688 4.109375 -5.484375 C 4.066406 -5.410156 4.015625 -5.34375 3.953125 -5.28125 L 2.359375 -3.578125 L 2.125 -3.875 C 2.1875 -3.90625 2.273438 -3.929688 2.390625 -3.953125 C 2.515625 -3.984375 2.613281 -4 2.6875 -4 C 3.039062 -4 3.347656 -3.90625 3.609375 -3.71875 C 3.867188 -3.539062 4.066406 -3.304688 4.203125 -3.015625 C 4.347656 -2.722656 4.421875 -2.40625 4.421875 -2.0625 C 4.421875 -1.625 4.320312 -1.242188 4.125 -0.921875 C 3.925781 -0.597656 3.644531 -0.347656 3.28125 -0.171875 C 2.925781 0.00390625 2.507812 0.09375 2.03125 0.09375 C 1.8125 0.09375 1.59375 0.0625 1.375 0 C 1.15625 -0.0507812 0.96875 -0.117188 0.8125 -0.203125 C 0.6875 -0.273438 0.597656 -0.351562 0.546875 -0.4375 C 0.503906 -0.53125 0.484375 -0.613281 0.484375 -0.6875 C 0.484375 -0.832031 0.53125 -0.960938 0.625 -1.078125 C 0.726562 -1.203125 0.859375 -1.265625 1.015625 -1.265625 Z M 1.015625 -1.265625 "/></g></g></g><g fill="#000000" fill-opacity="1"><g transform="translate(71.264953, 203.399269)"><g><path d="M 5.078125 -6 C 5.234375 -5.914062 5.328125 -5.789062 5.359375 -5.625 C 5.390625 -5.457031 5.347656 -5.304688 5.234375 -5.171875 C 5.148438 -5.054688 5.046875 -4.992188 4.921875 -4.984375 C 4.804688 -4.972656 4.679688 -5 4.546875 -5.0625 C 4.410156 -5.125 4.257812 -5.171875 4.09375 -5.203125 C 3.9375 -5.242188 3.769531 -5.265625 3.59375 -5.265625 C 3.269531 -5.265625 2.976562 -5.210938 2.71875 -5.109375 C 2.46875 -5.003906 2.253906 -4.859375 2.078125 -4.671875 C 1.898438 -4.484375 1.765625 -4.257812 1.671875 -4 C 1.578125 -3.75 1.53125 -3.46875 1.53125 -3.15625 C 1.53125 -2.78125 1.582031 -2.457031 1.6875 -2.1875 C 1.789062 -1.925781 1.9375 -1.703125 2.125 -1.515625 C 2.3125 -1.335938 2.53125 -1.203125 2.78125 -1.109375 C 3.03125 -1.023438 3.300781 -0.984375 3.59375 -0.984375 C 3.757812 -0.984375 3.921875 -1 4.078125 -1.03125 C 4.242188 -1.0625 4.398438 -1.117188 4.546875 -1.203125 C 4.679688 -1.253906 4.804688 -1.269531 4.921875 -1.25 C 5.046875 -1.238281 5.148438 -1.179688 5.234375 -1.078125 C 5.359375 -0.921875 5.398438 -0.765625 5.359375 -0.609375 C 5.328125 -0.453125 5.238281 -0.335938 5.09375 -0.265625 C 4.9375 -0.179688 4.773438 -0.113281 4.609375 -0.0625 C 4.441406 -0.0078125 4.273438 0.0234375 4.109375 0.046875 C 3.941406 0.078125 3.769531 0.09375 3.59375 0.09375 C 3.164062 0.09375 2.757812 0.0234375 2.375 -0.109375 C 1.988281 -0.253906 1.640625 -0.460938 1.328125 -0.734375 C 1.023438 -1.003906 0.785156 -1.335938 0.609375 -1.734375 C 0.441406 -2.140625 0.359375 -2.613281 0.359375 -3.15625 C 0.359375 -3.613281 0.4375 -4.035156 0.59375 -4.421875 C 0.757812 -4.816406 0.984375 -5.15625 1.265625 -5.4375 C 1.554688 -5.726562 1.898438 -5.953125 2.296875 -6.109375 C 2.691406 -6.265625 3.125 -6.34375 3.59375 -6.34375 C 3.863281 -6.34375 4.125 -6.3125 4.375 -6.25 C 4.625 -6.195312 4.859375 -6.113281 5.078125 -6 Z M 5.078125 -6 "/></g></g></g><g fill="#000000" fill-opacity="1"><g transform="translate(76.331984, 203.399269)"><g><path d="M 1.328125 0 C 1.160156 0 1.007812 -0.0507812 0.875 -0.15625 C 0.738281 -0.257812 0.671875 -0.390625 0.671875 -0.546875 L 0.671875 -5.75 C 0.671875 -5.90625 0.722656 -6.035156 0.828125 -6.140625 C 0.929688 -6.242188 1.0625 -6.296875 1.21875 -6.296875 L 3.8125 -6.296875 C 4.125 -6.296875 4.414062 -6.210938 4.6875 -6.046875 C 4.96875 -5.890625 5.191406 -5.664062 5.359375 -5.375 C 5.523438 -5.082031 5.609375 -4.742188 5.609375 -4.359375 C 5.609375 -4.128906 5.5625 -3.90625 5.46875 -3.6875 C 5.375 -3.476562 5.242188 -3.285156 5.078125 -3.109375 C 4.921875 -2.941406 4.742188 -2.804688 4.546875 -2.703125 L 4.5625 -2.921875 C 4.726562 -2.828125 4.863281 -2.71875 4.96875 -2.59375 C 5.082031 -2.46875 5.171875 -2.332031 5.234375 -2.1875 C 5.304688 -2.050781 5.347656 -1.90625 5.359375 -1.75 C 5.378906 -1.59375 5.394531 -1.457031 5.40625 -1.34375 C 5.414062 -1.226562 5.429688 -1.128906 5.453125 -1.046875 C 5.484375 -0.972656 5.535156 -0.914062 5.609375 -0.875 C 5.742188 -0.800781 5.828125 -0.691406 5.859375 -0.546875 C 5.890625 -0.398438 5.859375 -0.269531 5.765625 -0.15625 C 5.691406 -0.0703125 5.601562 -0.0195312 5.5 0 C 5.40625 0.0195312 5.304688 0.0195312 5.203125 0 C 5.097656 -0.0195312 5.015625 -0.0507812 4.953125 -0.09375 C 4.847656 -0.15625 4.742188 -0.242188 4.640625 -0.359375 C 4.535156 -0.472656 4.453125 -0.628906 4.390625 -0.828125 C 4.328125 -1.023438 4.296875 -1.28125 4.296875 -1.59375 C 4.296875 -1.695312 4.273438 -1.789062 4.234375 -1.875 C 4.203125 -1.957031 4.15625 -2.03125 4.09375 -2.09375 C 4.03125 -2.164062 3.945312 -2.21875 3.84375 -2.25 C 3.738281 -2.28125 3.617188 -2.296875 3.484375 -2.296875 L 1.671875 -2.296875 L 1.796875 -2.5 L 1.796875 -0.546875 C 1.796875 -0.390625 1.753906 -0.257812 1.671875 -0.15625 C 1.585938 -0.0507812 1.472656 0 1.328125 0 Z M 1.671875 -3.21875 L 3.765625 -3.21875 C 3.878906 -3.21875 3.984375 -3.265625 4.078125 -3.359375 C 4.179688 -3.460938 4.265625 -3.597656 4.328125 -3.765625 C 4.398438 -3.941406 4.4375 -4.132812 4.4375 -4.34375 C 4.4375 -4.601562 4.363281 -4.820312 4.21875 -5 C 4.082031 -5.175781 3.929688 -5.265625 3.765625 -5.265625 L 1.6875 -5.265625 L 1.796875 -5.546875 L 1.796875 -3 Z M 1.671875 -3.21875 "/></g></g></g><g fill="#000000" fill-opacity="1"><g transform="translate(81.939028, 203.399269)"><g><path d="M 1.21875 -6.296875 L 4.234375 -6.296875 C 4.390625 -6.296875 4.519531 -6.242188 4.625 -6.140625 C 4.726562 -6.046875 4.78125 -5.921875 4.78125 -5.765625 C 4.78125 -5.617188 4.726562 -5.5 4.625 -5.40625 C 4.519531 -5.3125 4.390625 -5.265625 4.234375 -5.265625 L 1.71875 -5.265625 L 1.796875 -5.421875 L 1.796875 -3.65625 L 1.734375 -3.734375 L 3.828125 -3.734375 C 3.984375 -3.734375 4.113281 -3.679688 4.21875 -3.578125 C 4.332031 -3.484375 4.390625 -3.359375 4.390625 -3.203125 C 4.390625 -3.054688 4.332031 -2.9375 4.21875 -2.84375 C 4.113281 -2.75 3.984375 -2.703125 3.828125 -2.703125 L 1.75 -2.703125 L 1.796875 -2.765625 L 1.796875 -0.953125 L 1.734375 -1.03125 L 4.234375 -1.03125 C 4.390625 -1.03125 4.519531 -0.976562 4.625 -0.875 C 4.726562 -0.769531 4.78125 -0.648438 4.78125 -0.515625 C 4.78125 -0.359375 4.726562 -0.234375 4.625 -0.140625 C 4.519531 -0.046875 4.390625 0 4.234375 0 L 1.21875 0 C 1.0625 0 0.929688 -0.0507812 0.828125 -0.15625 C 0.722656 -0.257812 0.671875 -0.390625 0.671875 -0.546875 L 0.671875 -5.75 C 0.671875 -5.90625 0.722656 -6.035156 0.828125 -6.140625 C 0.929688 -6.242188 1.0625 -6.296875 1.21875 -6.296875 Z M 1.21875 -6.296875 "/></g></g></g><g fill="#000000" fill-opacity="1"><g transform="translate(86.511057, 203.399269)"><g><path d="M 2.984375 -4.890625 L 1.046875 -0.3125 C 1.003906 -0.195312 0.9375 -0.109375 0.84375 -0.046875 C 0.757812 0.015625 0.664062 0.046875 0.5625 0.046875 C 0.40625 0.046875 0.285156 0.00390625 0.203125 -0.078125 C 0.128906 -0.171875 0.09375 -0.285156 0.09375 -0.421875 C 0.09375 -0.472656 0.0976562 -0.53125 0.109375 -0.59375 L 2.359375 -5.96875 C 2.410156 -6.09375 2.484375 -6.1875 2.578125 -6.25 C 2.679688 -6.320312 2.785156 -6.351562 2.890625 -6.34375 C 3.003906 -6.34375 3.109375 -6.304688 3.203125 -6.234375 C 3.296875 -6.171875 3.363281 -6.082031 3.40625 -5.96875 L 5.609375 -0.703125 C 5.640625 -0.617188 5.65625 -0.546875 5.65625 -0.484375 C 5.65625 -0.328125 5.601562 -0.195312 5.5 -0.09375 C 5.394531 0 5.28125 0.046875 5.15625 0.046875 C 5.050781 0.046875 4.953125 0.015625 4.859375 -0.046875 C 4.773438 -0.117188 4.707031 -0.210938 4.65625 -0.328125 L 2.734375 -4.828125 Z M 1.328125 -1.40625 L 1.8125 -2.453125 L 4.25 -2.453125 L 4.421875 -1.40625 Z M 1.328125 -1.40625 "/></g></g></g><g fill="#000000" fill-opacity="1"><g transform="translate(91.686098, 203.399269)"><g><path d="M 2.8125 0 C 2.644531 0 2.503906 -0.0507812 2.390625 -0.15625 C 2.285156 -0.257812 2.234375 -0.390625 2.234375 -0.546875 L 2.234375 -5.765625 L 3.40625 -5.765625 L 3.40625 -0.546875 C 3.40625 -0.390625 3.347656 -0.257812 3.234375 -0.15625 C 3.117188 -0.0507812 2.976562 0 2.8125 0 Z M 0.8125 -5.265625 C 0.65625 -5.265625 0.523438 -5.3125 0.421875 -5.40625 C 0.316406 -5.5 0.265625 -5.625 0.265625 -5.78125 C 0.265625 -5.9375 0.316406 -6.0625 0.421875 -6.15625 C 0.523438 -6.25 0.65625 -6.296875 0.8125 -6.296875 L 4.8125 -6.296875 C 4.96875 -6.296875 5.097656 -6.25 5.203125 -6.15625 C 5.304688 -6.0625 5.359375 -5.9375 5.359375 -5.78125 C 5.359375 -5.625 5.304688 -5.5 5.203125 -5.40625 C 5.097656 -5.3125 4.96875 -5.265625 4.8125 -5.265625 Z M 0.8125 -5.265625 "/></g></g></g><g fill="#000000" fill-opacity="1"><g transform="translate(96.744134, 203.399269)"><g><path d="M 1.796875 -0.546875 C 1.796875 -0.390625 1.738281 -0.257812 1.625 -0.15625 C 1.507812 -0.0507812 1.378906 0 1.234375 0 C 1.066406 0 0.929688 -0.0507812 0.828125 -0.15625 C 0.722656 -0.257812 0.671875 -0.390625 0.671875 -0.546875 L 0.671875 -5.75 C 0.671875 -5.90625 0.722656 -6.035156 0.828125 -6.140625 C 0.941406 -6.242188 1.082031 -6.296875 1.25 -6.296875 C 1.394531 -6.296875 1.519531 -6.242188 1.625 -6.140625 C 1.738281 -6.035156 1.796875 -5.90625 1.796875 -5.75 Z M 1.796875 -0.546875 "/></g></g></g><g fill="#000000" fill-opacity="1"><g transform="translate(98.643144, 203.399269)"><g><path d="M 5.28125 -6.3125 C 5.425781 -6.3125 5.550781 -6.257812 5.65625 -6.15625 C 5.769531 -6.0625 5.828125 -5.941406 5.828125 -5.796875 C 5.828125 -5.710938 5.8125 -5.628906 5.78125 -5.546875 L 3.5625 -0.34375 C 3.5 -0.226562 3.414062 -0.140625 3.3125 -0.078125 C 3.21875 -0.0234375 3.125 0 3.03125 0 C 2.925781 -0.0078125 2.828125 -0.0390625 2.734375 -0.09375 C 2.648438 -0.15625 2.582031 -0.238281 2.53125 -0.34375 L 0.3125 -5.5625 C 0.289062 -5.59375 0.273438 -5.628906 0.265625 -5.671875 C 0.265625 -5.710938 0.265625 -5.75 0.265625 -5.78125 C 0.265625 -5.957031 0.328125 -6.09375 0.453125 -6.1875 C 0.578125 -6.28125 0.695312 -6.328125 0.8125 -6.328125 C 1.039062 -6.328125 1.207031 -6.207031 1.3125 -5.96875 L 3.28125 -1.34375 L 2.96875 -1.328125 L 4.78125 -5.96875 C 4.882812 -6.195312 5.050781 -6.3125 5.28125 -6.3125 Z M 5.28125 -6.3125 "/></g></g></g><g fill="#000000" fill-opacity="1"><g transform="translate(104.169187, 203.399269)"><g><path d="M 1.21875 -6.296875 L 4.234375 -6.296875 C 4.390625 -6.296875 4.519531 -6.242188 4.625 -6.140625 C 4.726562 -6.046875 4.78125 -5.921875 4.78125 -5.765625 C 4.78125 -5.617188 4.726562 -5.5 4.625 -5.40625 C 4.519531 -5.3125 4.390625 -5.265625 4.234375 -5.265625 L 1.71875 -5.265625 L 1.796875 -5.421875 L 1.796875 -3.65625 L 1.734375 -3.734375 L 3.828125 -3.734375 C 3.984375 -3.734375 4.113281 -3.679688 4.21875 -3.578125 C 4.332031 -3.484375 4.390625 -3.359375 4.390625 -3.203125 C 4.390625 -3.054688 4.332031 -2.9375 4.21875 -2.84375 C 4.113281 -2.75 3.984375 -2.703125 3.828125 -2.703125 L 1.75 -2.703125 L 1.796875 -2.765625 L 1.796875 -0.953125 L 1.734375 -1.03125 L 4.234375 -1.03125 C 4.390625 -1.03125 4.519531 -0.976562 4.625 -0.875 C 4.726562 -0.769531 4.78125 -0.648438 4.78125 -0.515625 C 4.78125 -0.359375 4.726562 -0.234375 4.625 -0.140625 C 4.519531 -0.046875 4.390625 0 4.234375 0 L 1.21875 0 C 1.0625 0 0.929688 -0.0507812 0.828125 -0.15625 C 0.722656 -0.257812 0.671875 -0.390625 0.671875 -0.546875 L 0.671875 -5.75 C 0.671875 -5.90625 0.722656 -6.035156 0.828125 -6.140625 C 0.929688 -6.242188 1.0625 -6.296875 1.21875 -6.296875 Z M 1.21875 -6.296875 "/></g></g></g><g fill="#000000" fill-opacity="1"><g transform="translate(108.741215, 203.399269)"><g/></g></g><g fill="#000000" fill-opacity="1"><g transform="translate(110.685235, 203.399269)"><g><path d="M 2.703125 0.09375 C 2.273438 0.09375 1.894531 0.0390625 1.5625 -0.0625 C 1.226562 -0.164062 0.910156 -0.351562 0.609375 -0.625 C 0.523438 -0.6875 0.460938 -0.757812 0.421875 -0.84375 C 0.378906 -0.925781 0.359375 -1.007812 0.359375 -1.09375 C 0.359375 -1.238281 0.40625 -1.363281 0.5 -1.46875 C 0.601562 -1.570312 0.726562 -1.625 0.875 -1.625 C 0.988281 -1.625 1.09375 -1.585938 1.1875 -1.515625 C 1.414062 -1.328125 1.640625 -1.179688 1.859375 -1.078125 C 2.085938 -0.984375 2.367188 -0.9375 2.703125 -0.9375 C 2.921875 -0.9375 3.125 -0.972656 3.3125 -1.046875 C 3.5 -1.117188 3.648438 -1.210938 3.765625 -1.328125 C 3.878906 -1.441406 3.9375 -1.578125 3.9375 -1.734375 C 3.9375 -1.910156 3.878906 -2.0625 3.765625 -2.1875 C 3.660156 -2.3125 3.492188 -2.414062 3.265625 -2.5 C 3.046875 -2.59375 2.769531 -2.660156 2.4375 -2.703125 C 2.101562 -2.753906 1.8125 -2.828125 1.5625 -2.921875 C 1.320312 -3.023438 1.117188 -3.148438 0.953125 -3.296875 C 0.796875 -3.453125 0.671875 -3.632812 0.578125 -3.84375 C 0.492188 -4.050781 0.453125 -4.285156 0.453125 -4.546875 C 0.453125 -4.929688 0.550781 -5.257812 0.75 -5.53125 C 0.957031 -5.8125 1.234375 -6.023438 1.578125 -6.171875 C 1.921875 -6.316406 2.296875 -6.390625 2.703125 -6.390625 C 3.097656 -6.390625 3.460938 -6.328125 3.796875 -6.203125 C 4.128906 -6.085938 4.398438 -5.941406 4.609375 -5.765625 C 4.785156 -5.628906 4.875 -5.472656 4.875 -5.296875 C 4.875 -5.160156 4.820312 -5.035156 4.71875 -4.921875 C 4.613281 -4.816406 4.492188 -4.765625 4.359375 -4.765625 C 4.265625 -4.765625 4.179688 -4.789062 4.109375 -4.84375 C 4.015625 -4.9375 3.882812 -5.019531 3.71875 -5.09375 C 3.5625 -5.164062 3.390625 -5.226562 3.203125 -5.28125 C 3.023438 -5.332031 2.859375 -5.359375 2.703125 -5.359375 C 2.453125 -5.359375 2.238281 -5.320312 2.0625 -5.25 C 1.882812 -5.1875 1.75 -5.097656 1.65625 -4.984375 C 1.5625 -4.867188 1.515625 -4.738281 1.515625 -4.59375 C 1.515625 -4.40625 1.566406 -4.253906 1.671875 -4.140625 C 1.785156 -4.023438 1.941406 -3.929688 2.140625 -3.859375 C 2.335938 -3.796875 2.570312 -3.738281 2.84375 -3.6875 C 3.207031 -3.613281 3.523438 -3.53125 3.796875 -3.4375 C 4.066406 -3.351562 4.289062 -3.238281 4.46875 -3.09375 C 4.65625 -2.957031 4.789062 -2.78125 4.875 -2.5625 C 4.96875 -2.351562 5.015625 -2.097656 5.015625 -1.796875 C 5.015625 -1.398438 4.90625 -1.0625 4.6875 -0.78125 C 4.46875 -0.5 4.179688 -0.28125 3.828125 -0.125 C 3.484375 0.0195312 3.109375 0.09375 2.703125 0.09375 Z M 2.703125 0.09375 "/></g></g></g><g fill="#000000" fill-opacity="1"><g transform="translate(115.482266, 203.399269)"><g><path d="M 2.8125 0 C 2.644531 0 2.503906 -0.0507812 2.390625 -0.15625 C 2.285156 -0.257812 2.234375 -0.390625 2.234375 -0.546875 L 2.234375 -5.765625 L 3.40625 -5.765625 L 3.40625 -0.546875 C 3.40625 -0.390625 3.347656 -0.257812 3.234375 -0.15625 C 3.117188 -0.0507812 2.976562 0 2.8125 0 Z M 0.8125 -5.265625 C 0.65625 -5.265625 0.523438 -5.3125 0.421875 -5.40625 C 0.316406 -5.5 0.265625 -5.625 0.265625 -5.78125 C 0.265625 -5.9375 0.316406 -6.0625 0.421875 -6.15625 C 0.523438 -6.25 0.65625 -6.296875 0.8125 -6.296875 L 4.8125 -6.296875 C 4.96875 -6.296875 5.097656 -6.25 5.203125 -6.15625 C 5.304688 -6.0625 5.359375 -5.9375 5.359375 -5.78125 C 5.359375 -5.625 5.304688 -5.5 5.203125 -5.40625 C 5.097656 -5.3125 4.96875 -5.265625 4.8125 -5.265625 Z M 0.8125 -5.265625 "/></g></g></g><g fill="#000000" fill-opacity="1"><g transform="translate(120.540302, 203.399269)"><g><path d="M 5.140625 -6.3125 C 5.296875 -6.3125 5.421875 -6.257812 5.515625 -6.15625 C 5.617188 -6.050781 5.671875 -5.921875 5.671875 -5.765625 L 5.671875 -2.5 C 5.671875 -2 5.5625 -1.554688 5.34375 -1.171875 C 5.132812 -0.796875 4.84375 -0.5 4.46875 -0.28125 C 4.101562 -0.0625 3.671875 0.046875 3.171875 0.046875 C 2.679688 0.046875 2.25 -0.0625 1.875 -0.28125 C 1.5 -0.5 1.203125 -0.796875 0.984375 -1.171875 C 0.773438 -1.554688 0.671875 -2 0.671875 -2.5 L 0.671875 -5.765625 C 0.671875 -5.921875 0.722656 -6.050781 0.828125 -6.15625 C 0.941406 -6.257812 1.082031 -6.3125 1.25 -6.3125 C 1.382812 -6.3125 1.507812 -6.257812 1.625 -6.15625 C 1.738281 -6.050781 1.796875 -5.921875 1.796875 -5.765625 L 1.796875 -2.5 C 1.796875 -2.195312 1.859375 -1.9375 1.984375 -1.71875 C 2.109375 -1.5 2.273438 -1.328125 2.484375 -1.203125 C 2.703125 -1.085938 2.929688 -1.03125 3.171875 -1.03125 C 3.429688 -1.03125 3.671875 -1.085938 3.890625 -1.203125 C 4.117188 -1.328125 4.300781 -1.5 4.4375 -1.71875 C 4.570312 -1.9375 4.640625 -2.195312 4.640625 -2.5 L 4.640625 -5.765625 C 4.640625 -5.921875 4.679688 -6.050781 4.765625 -6.15625 C 4.859375 -6.257812 4.984375 -6.3125 5.140625 -6.3125 Z M 5.140625 -6.3125 "/></g></g></g><g fill="#000000" fill-opacity="1"><g transform="translate(126.309337, 203.399269)"><g><path d="M 3.375 -6.296875 C 3.800781 -6.296875 4.179688 -6.210938 4.515625 -6.046875 C 4.859375 -5.890625 5.144531 -5.664062 5.375 -5.375 C 5.601562 -5.082031 5.773438 -4.742188 5.890625 -4.359375 C 6.015625 -3.984375 6.078125 -3.582031 6.078125 -3.15625 C 6.078125 -2.570312 5.96875 -2.039062 5.75 -1.5625 C 5.539062 -1.082031 5.238281 -0.703125 4.84375 -0.421875 C 4.445312 -0.140625 3.957031 0 3.375 0 L 1.21875 0 C 1.0625 0 0.929688 -0.0507812 0.828125 -0.15625 C 0.722656 -0.257812 0.671875 -0.390625 0.671875 -0.546875 L 0.671875 -5.75 C 0.671875 -5.90625 0.722656 -6.035156 0.828125 -6.140625 C 0.929688 -6.242188 1.0625 -6.296875 1.21875 -6.296875 Z M 3.28125 -1.03125 C 3.664062 -1.03125 3.976562 -1.128906 4.21875 -1.328125 C 4.457031 -1.523438 4.628906 -1.78125 4.734375 -2.09375 C 4.847656 -2.414062 4.90625 -2.769531 4.90625 -3.15625 C 4.90625 -3.4375 4.875 -3.703125 4.8125 -3.953125 C 4.75 -4.210938 4.648438 -4.4375 4.515625 -4.625 C 4.378906 -4.820312 4.207031 -4.976562 4 -5.09375 C 3.800781 -5.207031 3.5625 -5.265625 3.28125 -5.265625 L 1.703125 -5.265625 L 1.796875 -5.34375 L 1.796875 -0.9375 L 1.75 -1.03125 Z M 3.28125 -1.03125 "/></g></g></g><g fill="#000000" fill-opacity="1"><g transform="translate(132.16838, 203.399269)"><g><path d="M 1.796875 -0.546875 C 1.796875 -0.390625 1.738281 -0.257812 1.625 -0.15625 C 1.507812 -0.0507812 1.378906 0 1.234375 0 C 1.066406 0 0.929688 -0.0507812 0.828125 -0.15625 C 0.722656 -0.257812 0.671875 -0.390625 0.671875 -0.546875 L 0.671875 -5.75 C 0.671875 -5.90625 0.722656 -6.035156 0.828125 -6.140625 C 0.941406 -6.242188 1.082031 -6.296875 1.25 -6.296875 C 1.394531 -6.296875 1.519531 -6.242188 1.625 -6.140625 C 1.738281 -6.035156 1.796875 -5.90625 1.796875 -5.75 Z M 1.796875 -0.546875 "/></g></g></g><g fill="#000000" fill-opacity="1"><g transform="translate(134.067389, 203.399269)"><g><path d="M 6.46875 -3.15625 C 6.46875 -2.695312 6.390625 -2.273438 6.234375 -1.890625 C 6.085938 -1.503906 5.878906 -1.160156 5.609375 -0.859375 C 5.335938 -0.554688 5.015625 -0.320312 4.640625 -0.15625 C 4.265625 0.0078125 3.851562 0.09375 3.40625 0.09375 C 2.96875 0.09375 2.5625 0.0078125 2.1875 -0.15625 C 1.8125 -0.320312 1.488281 -0.554688 1.21875 -0.859375 C 0.945312 -1.160156 0.734375 -1.503906 0.578125 -1.890625 C 0.429688 -2.273438 0.359375 -2.695312 0.359375 -3.15625 C 0.359375 -3.601562 0.429688 -4.019531 0.578125 -4.40625 C 0.734375 -4.800781 0.945312 -5.144531 1.21875 -5.4375 C 1.488281 -5.738281 1.8125 -5.972656 2.1875 -6.140625 C 2.5625 -6.304688 2.96875 -6.390625 3.40625 -6.390625 C 3.851562 -6.390625 4.265625 -6.304688 4.640625 -6.140625 C 5.015625 -5.972656 5.335938 -5.738281 5.609375 -5.4375 C 5.878906 -5.144531 6.085938 -4.800781 6.234375 -4.40625 C 6.390625 -4.019531 6.46875 -3.601562 6.46875 -3.15625 Z M 5.296875 -3.15625 C 5.296875 -3.550781 5.210938 -3.910156 5.046875 -4.234375 C 4.890625 -4.566406 4.671875 -4.828125 4.390625 -5.015625 C 4.109375 -5.210938 3.78125 -5.3125 3.40625 -5.3125 C 3.039062 -5.3125 2.710938 -5.210938 2.421875 -5.015625 C 2.140625 -4.828125 1.921875 -4.570312 1.765625 -4.25 C 1.609375 -3.925781 1.53125 -3.5625 1.53125 -3.15625 C 1.53125 -2.75 1.609375 -2.378906 1.765625 -2.046875 C 1.921875 -1.722656 2.140625 -1.460938 2.421875 -1.265625 C 2.710938 -1.078125 3.039062 -0.984375 3.40625 -0.984375 C 3.78125 -0.984375 4.109375 -1.078125 4.390625 -1.265625 C 4.671875 -1.460938 4.890625 -1.722656 5.046875 -2.046875 C 5.210938 -2.378906 5.296875 -2.75 5.296875 -3.15625 Z M 5.296875 -3.15625 "/></g></g></g></svg>