<svg xmlns="http://www.w3.org/2000/svg" xmlns:xlink="http://www.w3.org/1999/xlink" width="500" zoomAndPan="magnify" viewBox="0 0 375 374.999991" height="500" preserveAspectRatio="xMidYMid meet" version="1.0"><defs><g/><clipPath id="ebc567ac24"><path d="M 110.105469 134.007812 L 129 134.007812 L 129 206.757812 L 110.105469 206.757812 Z M 110.105469 134.007812 " clip-rule="nonzero"/></clipPath><clipPath id="e1537fa569"><path d="M 132 134.007812 L 140 134.007812 L 140 206.757812 L 132 206.757812 Z M 132 134.007812 " clip-rule="nonzero"/></clipPath><clipPath id="eb6dcbcdb7"><path d="M 147 134.007812 L 151 134.007812 L 151 206.757812 L 147 206.757812 Z M 147 134.007812 " clip-rule="nonzero"/></clipPath><clipPath id="e9dc14182f"><path d="M 177 134.007812 L 183 134.007812 L 183 206.757812 L 177 206.757812 Z M 177 134.007812 " clip-rule="nonzero"/></clipPath><clipPath id="3ee3abd838"><path d="M 190 134.007812 L 200 134.007812 L 200 206.757812 L 190 206.757812 Z M 190 134.007812 " clip-rule="nonzero"/></clipPath><clipPath id="6d8028b741"><path d="M 204 134.007812 L 209 134.007812 L 209 206.757812 L 204 206.757812 Z M 204 134.007812 " clip-rule="nonzero"/></clipPath><clipPath id="18c90dc536"><path d="M 155 134.007812 L 170 134.007812 L 170 206.757812 L 155 206.757812 Z M 155 134.007812 " clip-rule="nonzero"/></clipPath><clipPath id="066c611629"><path d="M 211 134.007812 L 214 134.007812 L 214 206.757812 L 211 206.757812 Z M 211 134.007812 " clip-rule="nonzero"/></clipPath><clipPath id="c69f43d9b2"><path d="M 219 134.007812 L 233 134.007812 L 233 206.757812 L 219 206.757812 Z M 219 134.007812 " clip-rule="nonzero"/></clipPath><clipPath id="936d045be5"><path d="M 235 134.007812 L 238 134.007812 L 238 206.757812 L 235 206.757812 Z M 235 134.007812 " clip-rule="nonzero"/></clipPath><clipPath id="5da24adc5a"><path d="M 241 134.007812 L 248 134.007812 L 248 206.757812 L 241 206.757812 Z M 241 134.007812 " clip-rule="nonzero"/></clipPath><clipPath id="ef3559006e"><path d="M 250 134.007812 L 255 134.007812 L 255 206.757812 L 250 206.757812 Z M 250 134.007812 " clip-rule="nonzero"/></clipPath><clipPath id="ec6e529065"><path d="M 142 134.007812 L 145 134.007812 L 145 206.757812 L 142 206.757812 Z M 142 134.007812 " clip-rule="nonzero"/></clipPath><clipPath id="be5389780f"><path d="M 259 134.007812 L 260.855469 134.007812 L 260.855469 206.757812 L 259 206.757812 Z M 259 134.007812 " clip-rule="nonzero"/></clipPath><clipPath id="b3fb10da4c"><rect x="0" width="157" y="0" height="64"/></clipPath></defs><g clip-path="url(#ebc567ac24)"><path fill="#000000" d="M 110.15625 134.007812 L 128.796875 134.007812 L 128.796875 206.742188 L 110.15625 206.742188 Z M 110.15625 134.007812 " fill-opacity="1" fill-rule="evenodd"/></g><g clip-path="url(#e1537fa569)"><path fill="#000000" d="M 132.675781 134.007812 L 139.382812 134.007812 L 139.382812 206.742188 L 132.675781 206.742188 Z M 132.675781 134.007812 " fill-opacity="1" fill-rule="evenodd"/></g><g clip-path="url(#eb6dcbcdb7)"><path fill="#000000" d="M 147.476562 134.007812 L 151 134.007812 L 151 206.757812 L 147.476562 206.757812 Z M 147.476562 134.007812 " fill-opacity="1" fill-rule="evenodd"/></g><g clip-path="url(#e9dc14182f)"><path fill="#000000" d="M 177.71875 134.007812 L 182.992188 134.007812 L 182.992188 206.742188 L 177.71875 206.742188 Z M 177.71875 134.007812 " fill-opacity="1" fill-rule="evenodd"/></g><g clip-path="url(#3ee3abd838)"><path fill="#000000" d="M 190.035156 134.007812 L 199.902344 134.007812 L 199.902344 206.742188 L 190.035156 206.742188 Z M 190.035156 134.007812 " fill-opacity="1" fill-rule="evenodd"/></g><g clip-path="url(#6d8028b741)"><path fill="#000000" d="M 204.496094 134.007812 L 208.015625 134.007812 L 208.015625 206.757812 L 204.496094 206.757812 Z M 204.496094 134.007812 " fill-opacity="1" fill-rule="evenodd"/></g><g clip-path="url(#18c90dc536)"><path fill="#000000" d="M 155.574219 134.007812 L 170 134.007812 L 170 206.742188 L 155.574219 206.742188 Z M 155.574219 134.007812 " fill-opacity="1" fill-rule="evenodd"/></g><g clip-path="url(#066c611629)"><path fill="#000000" d="M 211.351562 134.007812 L 213.464844 134.007812 L 213.464844 206.757812 L 211.351562 206.757812 Z M 211.351562 134.007812 " fill-opacity="1" fill-rule="evenodd"/></g><g clip-path="url(#c69f43d9b2)"><path fill="#000000" d="M 219.449219 134.007812 L 232.101562 134.007812 L 232.101562 206.742188 L 219.449219 206.742188 Z M 219.449219 134.007812 " fill-opacity="1" fill-rule="evenodd"/></g><g clip-path="url(#936d045be5)"><path fill="#000000" d="M 235.792969 134.007812 L 237.90625 134.007812 L 237.90625 206.757812 L 235.792969 206.757812 Z M 235.792969 134.007812 " fill-opacity="1" fill-rule="evenodd"/></g><g clip-path="url(#5da24adc5a)"><path fill="#000000" d="M 241.96875 134.007812 L 247.242188 134.007812 L 247.242188 206.742188 L 241.96875 206.742188 Z M 241.96875 134.007812 " fill-opacity="1" fill-rule="evenodd"/></g><g clip-path="url(#ef3559006e)"><path fill="#000000" d="M 250.933594 134.007812 L 254.453125 134.007812 L 254.453125 206.757812 L 250.933594 206.757812 Z M 250.933594 134.007812 " fill-opacity="1" fill-rule="evenodd"/></g><g clip-path="url(#ec6e529065)"><path fill="#000000" d="M 142.882812 134.007812 L 144.46875 134.007812 L 144.46875 206.757812 L 142.882812 206.757812 Z M 142.882812 134.007812 " fill-opacity="1" fill-rule="evenodd"/></g><g clip-path="url(#be5389780f)"><path fill="#000000" d="M 259.21875 134.007812 L 260.804688 134.007812 L 260.804688 206.757812 L 259.21875 206.757812 Z M 259.21875 134.007812 " fill-opacity="1" fill-rule="evenodd"/></g><g transform="matrix(1, 0, 0, 1, 110, 206)"><g clip-path="url(#b3fb10da4c)"><g fill="#000000" fill-opacity="1"><g transform="translate(0.793018, 51.578757)"><g><path d="M 12.6875 -4.015625 C 12.6875 -2.734375 12.328125 -1.742188 11.609375 -1.046875 C 10.898438 -0.347656 9.925781 0 8.6875 0 L 4.125 0 C 3.132812 0 2.265625 -0.3125 1.515625 -0.9375 C 0.765625 -1.5625 0.390625 -2.347656 0.390625 -3.296875 L 0.390625 -4.171875 L 0.328125 -4.171875 L 0.328125 -20.375 L 5.328125 -20.375 L 5.328125 -5.046875 L 7.640625 -5.046875 L 7.578125 -20.4375 C 7.578125 -21.3125 7.578125 -22.003906 7.578125 -22.515625 C 7.578125 -23.035156 7.519531 -23.46875 7.40625 -23.8125 C 7.300781 -24.164062 7.128906 -24.492188 6.890625 -24.796875 C 6.648438 -25.109375 6.296875 -25.523438 5.828125 -26.046875 C 4.472656 -27.546875 3.425781 -28.710938 2.6875 -29.546875 C 1.957031 -30.390625 1.414062 -31.085938 1.0625 -31.640625 C 0.71875 -32.191406 0.519531 -32.664062 0.46875 -33.0625 C 0.414062 -33.46875 0.390625 -33.984375 0.390625 -34.609375 L 0.390625 -45.375 C 0.390625 -46.65625 0.742188 -47.648438 1.453125 -48.359375 C 2.171875 -49.078125 3.148438 -49.4375 4.390625 -49.4375 L 8.953125 -49.4375 C 9.941406 -49.4375 10.8125 -49.113281 11.5625 -48.46875 C 12.3125 -47.832031 12.6875 -47.039062 12.6875 -46.09375 L 12.6875 -36.265625 L 7.796875 -36.265625 L 7.796875 -44.5 L 5.4375 -44.5 L 5.390625 -37.1875 C 5.390625 -36.53125 5.40625 -36.007812 5.4375 -35.625 C 5.476562 -35.238281 5.597656 -34.851562 5.796875 -34.46875 C 5.992188 -34.082031 6.300781 -33.632812 6.71875 -33.125 C 7.144531 -32.613281 7.757812 -31.898438 8.5625 -30.984375 C 9.625 -29.816406 10.429688 -28.882812 10.984375 -28.1875 C 11.535156 -27.488281 11.945312 -26.828125 12.21875 -26.203125 C 12.5 -25.578125 12.65625 -24.898438 12.6875 -24.171875 C 12.726562 -23.441406 12.75 -22.4375 12.75 -21.15625 L 12.6875 -6.75 Z M 12.6875 -4.015625 "/></g></g></g><g fill="#000000" fill-opacity="1"><g transform="translate(16.285253, 51.578757)"><g><path d="M 8.84375 0 L 3.84375 0 L 3.84375 -44.5 L 0.21875 -44.5 L 0.21875 -49.4375 L 12.359375 -49.4375 L 12.359375 -44.5 L 8.84375 -44.5 Z M 8.84375 0 "/></g></g></g><g fill="#000000" fill-opacity="1"><g transform="translate(31.392923, 51.578757)"><g><path d="M 12.53125 -32.46875 C 12.53125 -31.957031 12.445312 -31.546875 12.28125 -31.234375 C 12.113281 -30.921875 11.890625 -30.65625 11.609375 -30.4375 C 11.335938 -30.21875 11.035156 -30.035156 10.703125 -29.890625 C 10.378906 -29.742188 10.050781 -29.578125 9.71875 -29.390625 C 11.664062 -28.398438 12.617188 -26.769531 12.578125 -24.5 L 12.578125 0 L 7.640625 0 L 7.640625 -26.921875 L 5.171875 -26.921875 L 5.171875 0 L 0.21875 0 L 0.21875 -49.4375 L 8.625 -49.4375 C 10.019531 -49.4375 11.023438 -49.113281 11.640625 -48.46875 C 12.265625 -47.832031 12.578125 -46.96875 12.578125 -45.875 Z M 7.46875 -32.03125 L 7.46875 -44.5 L 5.28125 -44.5 L 5.28125 -32.03125 Z M 7.46875 -32.03125 "/></g></g></g><g fill="#000000" fill-opacity="1"><g transform="translate(47.819086, 51.578757)"><g><path d="M 5.171875 -26.921875 L 5.21875 -22.140625 L 5.21875 -4.78125 L 8.734375 -4.78125 L 8.734375 0 L 0.21875 0 L 0.21875 -49.4375 L 8.6875 -49.4375 L 8.6875 -44.5 L 5.28125 -44.5 L 5.28125 -31.8125 L 8.734375 -31.8125 L 8.734375 -26.921875 Z M 5.171875 -26.921875 "/></g></g></g><g fill="#000000" fill-opacity="1"><g transform="translate(59.300916, 51.578757)"><g><path d="M 5.171875 -26.921875 L 5.21875 -22.140625 L 5.21875 -4.78125 L 8.734375 -4.78125 L 8.734375 0 L 0.21875 0 L 0.21875 -49.4375 L 8.6875 -49.4375 L 8.6875 -44.5 L 5.28125 -44.5 L 5.28125 -31.8125 L 8.734375 -31.8125 L 8.734375 -26.921875 Z M 5.171875 -26.921875 "/></g></g></g><g fill="#000000" fill-opacity="1"><g transform="translate(70.782746, 51.578757)"><g><path d="M 8.84375 0 L 3.84375 0 L 3.84375 -44.5 L 0.21875 -44.5 L 0.21875 -49.4375 L 12.359375 -49.4375 L 12.359375 -44.5 L 8.84375 -44.5 Z M 8.84375 0 "/></g></g></g><g fill="#000000" fill-opacity="1"><g transform="translate(85.890416, 51.578757)"><g><path d="M 20 0 L 4.171875 0 C 2.785156 0 1.78125 -0.351562 1.15625 -1.0625 C 0.53125 -1.78125 0.21875 -2.910156 0.21875 -4.453125 L 0.21875 -49.4375 L 5.28125 -49.4375 L 5.28125 -5.109375 L 7.6875 -5.109375 L 7.6875 -49.4375 L 12.640625 -49.4375 L 12.640625 -5.046875 L 15.15625 -5.046875 L 15.15625 -49.4375 L 20.046875 -49.4375 L 20.046875 -48.671875 C 20.046875 -41.304688 20.046875 -33.988281 20.046875 -26.71875 C 20.046875 -19.457031 20.03125 -12.144531 20 -4.78125 Z M 20 0 "/></g></g></g><g fill="#000000" fill-opacity="1"><g transform="translate(109.788004, 51.578757)"><g><path d="M 5.171875 -26.921875 L 5.21875 -22.140625 L 5.21875 -4.78125 L 8.734375 -4.78125 L 8.734375 0 L 0.21875 0 L 0.21875 -49.4375 L 8.6875 -49.4375 L 8.6875 -44.5 L 5.28125 -44.5 L 5.28125 -31.8125 L 8.734375 -31.8125 L 8.734375 -26.921875 Z M 5.171875 -26.921875 "/></g></g></g><g fill="#000000" fill-opacity="1"><g transform="translate(121.269835, 51.578757)"><g><path d="M 12.640625 -49.4375 L 12.640625 0 L 7.6875 0 L 7.6875 -26.859375 L 5.21875 -26.859375 L 5.21875 0 L 0.21875 0 L 0.21875 -44.9375 C 0.21875 -46.476562 0.570312 -47.613281 1.28125 -48.34375 C 2 -49.070312 3.144531 -49.4375 4.71875 -49.4375 Z M 5.328125 -31.75 L 7.53125 -31.75 L 7.53125 -44.5 L 5.328125 -44.5 Z M 5.328125 -31.75 "/></g></g></g><g fill="#000000" fill-opacity="1"><g transform="translate(137.750924, 51.578757)"><g><path d="M 12.53125 -32.46875 C 12.53125 -31.957031 12.445312 -31.546875 12.28125 -31.234375 C 12.113281 -30.921875 11.890625 -30.65625 11.609375 -30.4375 C 11.335938 -30.21875 11.035156 -30.035156 10.703125 -29.890625 C 10.378906 -29.742188 10.050781 -29.578125 9.71875 -29.390625 C 11.664062 -28.398438 12.617188 -26.769531 12.578125 -24.5 L 12.578125 0 L 7.640625 0 L 7.640625 -26.921875 L 5.171875 -26.921875 L 5.171875 0 L 0.21875 0 L 0.21875 -49.4375 L 8.625 -49.4375 C 10.019531 -49.4375 11.023438 -49.113281 11.640625 -48.46875 C 12.265625 -47.832031 12.578125 -46.96875 12.578125 -45.875 Z M 7.46875 -32.03125 L 7.46875 -44.5 L 5.28125 -44.5 L 5.28125 -32.03125 Z M 7.46875 -32.03125 "/></g></g></g></g></g></svg>